<svg width="600" height="141" viewBox="0 0 600 141" fill="none" xmlns="http://www.w3.org/2000/svg">
<path d="M15.2131 32.443H0V0.811113H14.8139C18.0851 0.811113 20.6519 1.51252 22.5144 2.9155C24.3769 4.3184 25.3081 6.24745 25.3081 8.70259C25.3081 10.3832 24.7212 11.8666 23.5473 13.1526C22.3736 14.4386 20.9179 15.2058 19.1806 15.4542V15.8488C21.4188 16.0096 23.2657 16.7987 24.7212 18.2163C26.1925 19.6339 26.928 21.3583 26.928 23.3896C26.928 26.1663 25.8794 28.3729 23.7821 30.0097C21.6849 31.6318 18.8285 32.443 15.2131 32.443ZM7.09007 5.87483V13.9198H12.4193C14.3288 13.9198 15.7922 13.569 16.8095 12.8676C17.8269 12.1661 18.3355 11.1797 18.3355 9.90828C18.3355 8.63688 17.8659 7.65043 16.9269 6.94894C16.0035 6.23284 14.6965 5.87483 13.0062 5.87483H7.09007ZM7.09007 27.3792H13.4054C15.44 27.3792 16.9973 26.9919 18.0772 26.2174C19.1572 25.4282 19.6971 24.2957 19.6971 22.8196C19.6971 21.3729 19.1416 20.2768 18.0303 19.5315C16.9347 18.7716 15.3383 18.3916 13.241 18.3916H7.09007V27.3792ZM55.1004 32.443L52.5413 24.9022H40.6386L38.0327 32.443H30.9192L42.681 0.811113H51.0153L62.7773 32.443H55.1004ZM46.4139 7.38735L42.1645 19.7946H51.0389L46.8365 7.38735H46.4139ZM81.3945 33.2541C76.4801 33.2541 72.5985 31.7707 69.75 28.8041C66.9171 25.8228 65.5006 21.7601 65.5006 16.6161C65.5006 11.472 66.9171 7.41658 69.75 4.44998C72.5985 1.4833 76.4801 0 81.3945 0C85.4013 0 88.7819 1.11794 91.5366 3.35391C94.3068 5.57519 95.825 8.41037 96.0911 11.8592H89.1888C88.8446 10.0325 87.9603 8.57109 86.536 7.47502C85.1273 6.37895 83.4136 5.831 81.3945 5.831C78.7338 5.831 76.6288 6.79549 75.0792 8.72454C73.5298 10.6536 72.755 13.2841 72.755 16.6161C72.755 19.9481 73.5298 22.5859 75.0792 24.5295C76.6288 26.4586 78.7416 27.4231 81.418 27.4231C83.4526 27.4231 85.1743 26.9043 86.583 25.8667C87.9915 24.8291 88.868 23.4408 89.2124 21.7017H96.1146C95.8172 25.1214 94.3068 27.9053 91.5835 30.0536C88.8759 32.1872 85.4795 33.2541 81.3945 33.2541ZM109.731 32.443H102.641V0.811113H109.731V14.9062H110.154L122.667 0.811113H130.555L118.206 14.687L131.424 32.443H122.925L113.088 19.2027L109.731 22.9074V32.443ZM159.22 26.7874V32.443H136.777V0.811113H159.22V6.4667H143.867V13.8541H158.352V19.0931H143.867V26.7874H159.22ZM173.471 32.443H166.687V0.811113H172.602L188.191 20.518H188.614V0.811113H195.399V32.443H189.529L173.894 12.6484H173.471V32.443ZM203.639 0.789155H216.974C222.014 0.789155 225.919 2.15557 228.689 4.88839C231.475 7.6066 232.868 11.4428 232.868 16.3969C232.868 21.5264 231.483 25.4868 228.713 28.278C225.958 31.0547 222.045 32.443 216.974 32.443H203.639V0.789155ZM210.729 6.44474V26.7874H215.847C218.993 26.7874 221.411 25.9106 223.101 24.1568C224.792 22.3886 225.637 19.8384 225.637 16.5065C225.637 13.3206 224.776 10.8509 223.055 9.09716C221.333 7.32891 218.93 6.44474 215.847 6.44474H210.729ZM267.168 32.443H251.955V0.811113H266.768C270.039 0.811113 272.606 1.51252 274.469 2.9155C276.332 4.3184 277.263 6.24745 277.263 8.70259C277.263 10.3832 276.675 11.8666 275.502 13.1526C274.328 14.4386 272.873 15.2058 271.136 15.4542V15.8488C273.373 16.0096 275.22 16.7987 276.675 18.2163C278.147 19.6339 278.883 21.3583 278.883 23.3896C278.883 26.1663 277.834 28.3729 275.736 30.0097C273.639 31.6318 270.783 32.443 267.168 32.443ZM259.045 5.87483V13.9198H264.374C266.283 13.9198 267.746 13.569 268.764 12.8676C269.781 12.1661 270.29 11.1797 270.29 9.90828C270.29 8.63688 269.821 7.65043 268.881 6.94894C267.958 6.23284 266.651 5.87483 264.961 5.87483H259.045ZM259.045 27.3792H265.36C267.395 27.3792 268.952 26.9919 270.031 26.2174C271.112 25.4282 271.651 24.2957 271.651 22.8196C271.651 21.3729 271.096 20.2768 269.985 19.5315C268.889 18.7716 267.293 18.3916 265.195 18.3916H259.045V27.3792ZM307.054 32.443L304.496 24.9022H292.593L289.987 32.443H282.873L294.636 0.811113H302.97L314.732 32.443H307.054ZM298.368 7.38735L294.119 19.7946H302.993L298.791 7.38735H298.368ZM333.349 33.2541C328.435 33.2541 324.553 31.7707 321.704 28.8041C318.872 25.8228 317.455 21.7601 317.455 16.6161C317.455 11.472 318.872 7.41658 321.704 4.44998C324.553 1.4833 328.435 0 333.349 0C337.356 0 340.736 1.11794 343.491 3.35391C346.261 5.57519 347.78 8.41037 348.045 11.8592H341.144C340.799 10.0325 339.915 8.57109 338.491 7.47502C337.082 6.37895 335.368 5.831 333.349 5.831C330.688 5.831 328.583 6.79549 327.033 8.72454C325.484 10.6536 324.71 13.2841 324.71 16.6161C324.71 19.9481 325.484 22.5859 327.033 24.5295C328.583 26.4586 330.696 27.4231 333.372 27.4231C335.407 27.4231 337.129 26.9043 338.538 25.8667C339.946 24.8291 340.822 23.4408 341.166 21.7017H348.069C347.772 25.1214 346.261 27.9053 343.538 30.0536C340.83 32.1872 337.434 33.2541 333.349 33.2541ZM361.686 32.443H354.596V0.811113H361.686V14.9062H362.108L374.621 0.811113H382.51L370.161 14.687L383.379 32.443H374.88L365.042 19.2027L361.686 22.9074V32.443ZM411.175 26.7874V32.443H388.731V0.811113H411.175V6.4667H395.821V13.8541H410.307V19.0931H395.821V26.7874H411.175ZM425.426 32.443H418.64V0.811113H424.557L440.145 20.518H440.568V0.811113H447.353V32.443H441.484L425.848 12.6484H425.426V32.443ZM455.593 0.789155H468.928C473.968 0.789155 477.873 2.15557 480.643 4.88839C483.43 7.6066 484.822 11.4428 484.822 16.3969C484.822 21.5264 483.437 25.4868 480.667 28.278C477.912 31.0547 474 32.443 468.928 32.443H455.593V0.789155ZM462.683 6.44474V26.7874H467.802C470.947 26.7874 473.366 25.9106 475.056 24.1568C476.746 22.3886 477.592 19.8384 477.592 16.5065C477.592 13.3206 476.731 10.8509 475.008 9.09716C473.287 7.32891 470.885 6.44474 467.802 6.44474H462.683ZM77.1922 86.3158H61.9791V54.684H76.793C80.0642 54.684 82.631 55.3854 84.4935 56.7883C86.356 58.1912 87.2872 60.1203 87.2872 62.5754C87.2872 64.256 86.7004 65.7394 85.5265 67.0254C84.3526 68.3117 82.8971 69.0789 81.1598 69.3271V69.7213C83.3979 69.8821 85.2447 70.6715 86.7004 72.0893C88.1715 73.5063 88.9072 75.2311 88.9072 77.2627C88.9072 80.0388 87.8585 82.246 85.7612 83.8825C83.6639 85.5044 80.8076 86.3158 77.1922 86.3158ZM69.0691 59.7477V67.7925H74.3984C76.3078 67.7925 77.7712 67.4419 78.7886 66.7405C79.8059 66.039 80.3146 65.0525 80.3146 63.7811C80.3146 62.5097 79.8451 61.5233 78.9059 60.8218C77.9825 60.1057 76.6757 59.7477 74.9853 59.7477H69.0691ZM69.0691 81.2518H75.3844C77.4191 81.2518 78.9764 80.8649 80.0564 80.0902C81.1363 79.3009 81.6763 78.1688 81.6763 76.6922C81.6763 75.2458 81.1206 74.1495 80.0094 73.4043C78.9138 72.6443 77.3174 72.2648 75.2201 72.2648H69.0691V81.2518ZM117.079 86.3158L114.521 78.7752H102.618L100.012 86.3158H92.8982L104.66 54.684H112.995L124.756 86.3158H117.079ZM108.393 61.2602L104.144 73.6671H113.018L108.816 61.2602H108.393ZM143.374 87.1272C138.459 87.1272 134.578 85.6432 131.729 82.6769C128.896 79.696 127.48 75.6327 127.48 70.4886C127.48 65.3448 128.896 61.2894 131.729 58.3228C134.578 55.3561 138.459 53.8728 143.374 53.8728C147.38 53.8728 150.761 54.9908 153.516 57.2268C156.286 59.448 157.804 62.2832 158.071 65.7321H151.168C150.824 63.9054 149.939 62.4439 148.515 61.3479C147.106 60.2518 145.393 59.7038 143.374 59.7038C140.713 59.7038 138.608 60.6683 137.058 62.5974C135.509 64.5264 134.734 67.1569 134.734 70.4886C134.734 73.8206 135.509 76.4587 137.058 78.4022C138.608 80.331 140.721 81.2958 143.397 81.2958C145.432 81.2958 147.153 80.7775 148.562 79.7392C149.971 78.7018 150.847 77.3133 151.191 75.5747H158.093C157.796 78.994 156.286 81.7782 153.562 83.9266C150.855 86.0603 147.459 87.1272 143.374 87.1272ZM171.711 86.3158H164.62V54.684H171.711V68.7794H172.133L184.646 54.684H192.534L180.185 68.5598L193.403 86.3158H184.904L175.068 73.0753L171.711 76.7803V86.3158ZM221.2 80.66V86.3158H198.756V54.684H221.2V60.3395H205.845V67.7272H220.331V72.9659H205.845V80.66H221.2ZM235.45 86.3158H228.665V54.684H234.582L250.171 74.3911H250.593V54.684H257.377V86.3158H251.508L235.873 66.5212H235.45V86.3158ZM265.618 54.662H278.953C283.992 54.662 287.897 56.0284 290.668 58.7612C293.454 61.4794 294.847 65.3156 294.847 70.2699C294.847 75.3992 293.462 79.3597 290.691 82.1505C287.937 84.9274 284.024 86.3158 278.953 86.3158H265.618V54.662ZM272.708 60.3176V80.66H277.826C280.972 80.66 283.39 79.7833 285.081 78.03C286.77 76.2612 287.616 73.7112 287.616 70.3792C287.616 67.1935 286.755 64.7237 285.033 62.97C283.312 61.2018 280.909 60.3176 277.826 60.3176H272.708ZM329.146 86.3158H313.934V54.684H328.748C332.019 54.684 334.586 55.3854 336.448 56.7883C338.31 58.1912 339.241 60.1203 339.241 62.5754C339.241 64.256 338.655 65.7394 337.481 67.0254C336.307 68.3117 334.851 69.0789 333.114 69.3271V69.7213C335.352 69.8821 337.199 70.6715 338.655 72.0893C340.126 73.5063 340.861 75.2311 340.861 77.2627C340.861 80.0388 339.813 82.246 337.716 83.8825C335.619 85.5044 332.762 86.3158 329.146 86.3158ZM321.023 59.7477V67.7925H326.353C328.262 67.7925 329.726 67.4419 330.743 66.7405C331.76 66.039 332.269 65.0525 332.269 63.7811C332.269 62.5097 331.799 61.5233 330.861 60.8218C329.937 60.1057 328.63 59.7477 326.94 59.7477H321.023ZM321.023 81.2518H327.339C329.374 81.2518 330.93 80.8649 332.011 80.0902C333.091 79.3009 333.631 78.1688 333.631 76.6922C333.631 75.2458 333.075 74.1495 331.964 73.4043C330.868 72.6443 329.272 72.2648 327.175 72.2648H321.023V81.2518ZM369.034 86.3158L366.475 78.7752H354.572L351.966 86.3158H344.853L356.614 54.684H364.949L376.711 86.3158H369.034ZM360.347 61.2602L356.098 73.6671H364.973L360.77 61.2602H360.347ZM395.328 87.1272C390.413 87.1272 386.532 85.6432 383.684 82.6769C380.851 79.696 379.434 75.6327 379.434 70.4886C379.434 65.3448 380.851 61.2894 383.684 58.3228C386.532 55.3561 390.413 53.8728 395.328 53.8728C399.335 53.8728 402.715 54.9908 405.471 57.2268C408.24 59.448 409.758 62.2832 410.024 65.7321H403.122C402.778 63.9054 401.894 62.4439 400.469 61.3479C399.061 60.2518 397.348 59.7038 395.328 59.7038C392.667 59.7038 390.562 60.6683 389.013 62.5974C387.463 64.5264 386.688 67.1569 386.688 70.4886C386.688 73.8206 387.463 76.4587 389.013 78.4022C390.562 80.331 392.675 81.2958 395.352 81.2958C397.386 81.2958 399.108 80.7775 400.516 79.7392C401.925 78.7018 402.802 77.3133 403.146 75.5747H410.048C409.751 78.994 408.24 81.7782 405.517 83.9266C402.809 86.0603 399.413 87.1272 395.328 87.1272ZM423.664 86.3158H416.575V54.684H423.664V68.7794H424.087L436.601 54.684H444.488L432.14 68.5598L445.357 86.3158H436.859L427.022 73.0753L423.664 76.7803V86.3158ZM473.154 80.66V86.3158H450.71V54.684H473.154V60.3395H457.8V67.7272H472.285V72.9659H457.8V80.66H473.154ZM487.405 86.3158H480.62V54.684H486.536L502.124 74.3911H502.547V54.684H509.332V86.3158H503.463L487.827 66.5212H487.405V86.3158ZM517.572 54.662H530.907C535.947 54.662 539.852 56.0284 542.622 58.7612C545.408 61.4794 546.801 65.3156 546.801 70.2699C546.801 75.3992 545.416 79.3597 542.646 82.1505C539.891 84.9274 535.978 86.3158 530.907 86.3158H517.572V54.662ZM524.663 60.3176V80.66H529.78C532.926 80.66 535.344 79.7833 537.035 78.03C538.725 76.2612 539.57 73.7112 539.57 70.3792C539.57 67.1935 538.709 64.7237 536.988 62.97C535.266 61.2018 532.864 60.3176 529.78 60.3176H524.663ZM22.4439 134.533V140.189H0V108.557H22.4439V114.212H7.09007V121.6H21.5753V126.839H7.09007V134.533H22.4439ZM36.6944 140.189H29.9096V108.557H35.8258L51.4145 128.264H51.8371V108.557H58.6219V140.189H52.7526L37.117 120.394H36.6944V140.189ZM66.8623 108.535H80.1972C85.237 108.535 89.1419 109.901 91.9122 112.634C94.6981 115.352 96.0911 119.188 96.0911 124.143C96.0911 129.272 94.706 133.233 91.9357 136.023C89.1811 138.8 85.2682 140.189 80.1972 140.189H66.8623V108.535ZM73.9523 114.19V134.533H79.0703C82.2163 134.533 84.6344 133.656 86.3247 131.903C88.0151 130.134 88.8602 127.584 88.8602 124.252C88.8602 121.066 87.9994 118.596 86.2778 116.843C84.5561 115.075 82.1536 114.19 79.0703 114.19H73.9523ZM130.391 140.189H115.178V108.557H129.992C133.263 108.557 135.83 109.258 137.692 110.661C139.555 112.064 140.486 113.993 140.486 116.449C140.486 118.129 139.899 119.612 138.725 120.898C137.551 122.185 136.096 122.952 134.359 123.2V123.594C136.597 123.755 138.443 124.544 139.899 125.962C141.37 127.379 142.106 129.104 142.106 131.136C142.106 133.912 141.057 136.119 138.96 137.755C136.863 139.377 134.006 140.189 130.391 140.189ZM122.268 113.62V121.665H127.597C129.507 121.665 130.97 121.314 131.987 120.613C133.005 119.912 133.513 118.925 133.513 117.654C133.513 116.383 133.044 115.396 132.105 114.695C131.181 113.979 129.874 113.62 128.184 113.62H122.268ZM122.268 135.125H128.583C130.618 135.125 132.175 134.738 133.255 133.963C134.335 133.174 134.875 132.042 134.875 130.565C134.875 129.119 134.319 128.022 133.208 127.277C132.113 126.517 130.516 126.138 128.419 126.138H122.268V135.125ZM170.278 140.189L167.719 132.648H155.816L153.21 140.189H146.097L157.859 108.557H166.194L177.955 140.189H170.278ZM161.592 115.133L157.342 127.54H166.216L162.014 115.133H161.592ZM196.573 141C191.658 141 187.777 139.516 184.928 136.55C182.095 133.569 180.678 129.505 180.678 124.361C180.678 119.217 182.095 115.162 184.928 112.196C187.777 109.229 191.658 107.746 196.573 107.746C200.579 107.746 203.96 108.864 206.714 111.1C209.485 113.321 211.003 116.156 211.269 119.605H204.367C204.023 117.778 203.138 116.316 201.714 115.221C200.306 114.125 198.591 113.576 196.573 113.576C193.912 113.576 191.807 114.541 190.257 116.47C188.708 118.4 187.933 121.03 187.933 124.361C187.933 127.693 188.708 130.332 190.257 132.275C191.807 134.204 193.92 135.169 196.595 135.169C198.631 135.169 200.352 134.65 201.761 133.612C203.169 132.575 204.046 131.186 204.39 129.448H211.292C210.995 132.867 209.485 135.651 206.761 137.799C204.053 139.933 200.657 141 196.573 141ZM224.909 140.189H217.819V108.557H224.909V122.652H225.331L237.844 108.557H245.733L233.384 122.433L246.602 140.189H238.103L228.266 126.948L224.909 130.653V140.189ZM274.398 134.533V140.189H251.955V108.557H274.398V114.212H259.045V121.6H273.53V126.839H259.045V134.533H274.398ZM288.649 140.189H281.864V108.557H287.78L303.369 128.264H303.791V108.557H310.577V140.189H304.707L289.071 120.394H288.649V140.189ZM318.817 108.535H332.152C337.191 108.535 341.097 109.901 343.867 112.634C346.653 115.352 348.045 119.188 348.045 124.143C348.045 129.272 346.661 133.233 343.89 136.023C341.136 138.8 337.223 140.189 332.152 140.189H318.817V108.535ZM325.906 114.19V134.533H331.025C334.17 134.533 336.589 133.656 338.279 131.903C339.97 130.134 340.815 127.584 340.815 124.252C340.815 121.066 339.954 118.596 338.232 116.843C336.51 115.075 334.108 114.19 331.025 114.19H325.906ZM382.345 140.189H367.133V108.557H381.946C385.217 108.557 387.784 109.258 389.647 110.661C391.509 112.064 392.441 113.993 392.441 116.449C392.441 118.129 391.853 119.612 390.68 120.898C389.506 122.185 388.05 122.952 386.313 123.2V123.594C388.551 123.755 390.398 124.544 391.853 125.962C393.324 127.379 394.061 129.104 394.061 131.136C394.061 133.912 393.011 136.119 390.914 137.755C388.817 139.377 385.961 140.189 382.345 140.189ZM374.222 113.62V121.665H379.552C381.461 121.665 382.924 121.314 383.942 120.613C384.959 119.912 385.468 118.925 385.468 117.654C385.468 116.383 384.999 115.396 384.059 114.695C383.136 113.979 381.829 113.62 380.138 113.62H374.222ZM374.222 135.125H380.538C382.572 135.125 384.13 134.738 385.209 133.963C386.29 133.174 386.829 132.042 386.829 130.565C386.829 129.119 386.274 128.022 385.163 127.277C384.067 126.517 382.47 126.138 380.373 126.138H374.222V135.125ZM422.232 140.189L419.674 132.648H407.771L405.165 140.189H398.051L409.814 108.557H418.147L429.91 140.189H422.232ZM413.546 115.133L409.297 127.54H418.171L413.969 115.133H413.546ZM448.526 141C443.613 141 439.731 139.516 436.882 136.55C434.05 133.569 432.633 129.505 432.633 124.361C432.633 119.217 434.05 115.162 436.882 112.196C439.731 109.229 443.613 107.746 448.526 107.746C452.534 107.746 455.914 108.864 458.669 111.1C461.439 113.321 462.958 116.156 463.223 119.605H456.321C455.977 117.778 455.093 116.316 453.668 115.221C452.259 114.125 450.546 113.576 448.526 113.576C445.866 113.576 443.761 114.541 442.211 116.47C440.662 118.4 439.888 121.03 439.888 124.361C439.888 127.693 440.662 130.332 442.211 132.275C443.761 134.204 445.874 135.169 448.55 135.169C450.585 135.169 452.306 134.65 453.715 133.612C455.124 132.575 456 131.186 456.344 129.448H463.247C462.95 132.867 461.439 135.651 458.716 137.799C456.008 139.933 452.612 141 448.526 141ZM476.863 140.189H469.774V108.557H476.863V122.652H477.286L489.799 108.557H497.688L485.339 122.433L498.556 140.189H490.058L480.22 126.948L476.863 130.653V140.189ZM526.353 134.533V140.189H503.908V108.557H526.353V114.212H510.999V121.6H525.484V126.839H510.999V134.533H526.353ZM540.604 140.189H533.818V108.557H539.735L555.323 128.264H555.746V108.557H562.531V140.189H556.662L541.026 120.394H540.604V140.189ZM570.771 108.535H584.106C589.146 108.535 593.051 109.901 595.821 112.634C598.607 115.352 600 119.188 600 124.143C600 129.272 598.614 133.233 595.845 136.023C593.089 138.8 589.177 140.189 584.106 140.189H570.771V108.535ZM577.861 114.19V134.533H582.979C586.125 134.533 588.543 133.656 590.233 131.903C591.924 130.134 592.769 127.584 592.769 124.252C592.769 121.066 591.908 118.596 590.186 116.843C588.465 115.075 586.063 114.19 582.979 114.19H577.861Z" fill="#1F1F29"/>
</svg>
