<svg width="601" height="142" viewBox="0 0 601 142" fill="none" xmlns="http://www.w3.org/2000/svg">
<path d="M2.27881 0.791448H14.8455C19.5949 0.791448 23.2749 2.16183 25.8856 4.9026C28.511 7.62871 29.8238 11.476 29.8238 16.4445C29.8238 21.5889 28.5184 25.5608 25.9077 28.3602C23.3118 31.1449 19.6244 32.5373 14.8455 32.5373H2.27881V0.791448ZM8.96043 6.46347V26.8652H13.7836C16.7482 26.8652 19.027 25.9859 20.62 24.227C22.213 22.4536 23.0094 19.8961 23.0094 16.5544C23.0094 13.3593 22.1982 10.8824 20.5758 9.1236C18.9533 7.35021 16.6892 6.46347 13.7836 6.46347H8.96043ZM55.1784 32.5373L52.7668 24.9745H41.5498L39.0939 32.5373H32.3902L43.4746 0.81347H51.3287L62.4131 32.5373H55.1784ZM46.9923 7.40882L42.9878 19.8521H51.3508L47.3906 7.40882H46.9923ZM78.8294 32.5373H72.1479V6.48549H62.568V0.81347H88.4093V6.48549H78.8294V32.5373ZM111.374 32.5373L108.963 24.9745H97.7459L95.29 32.5373H88.5863L99.6707 0.81347H107.525L118.609 32.5373H111.374ZM103.188 7.40882L99.184 19.8521H107.547L103.587 7.40882H103.188ZM138.388 32.5373H124.052V0.81347H138.012C141.095 0.81347 143.514 1.51692 145.269 2.92397C147.024 4.33095 147.902 6.26561 147.902 8.72788C147.902 10.4134 147.349 11.901 146.242 13.1908C145.136 14.4805 143.765 15.25 142.127 15.4992V15.8949C144.237 16.0561 145.977 16.8475 147.349 18.2692C148.735 19.6909 149.428 21.4204 149.428 23.4576C149.428 26.2423 148.44 28.4554 146.464 30.0969C144.487 31.7238 141.796 32.5373 138.388 32.5373ZM130.733 5.89191V13.9602H135.756C137.555 13.9602 138.934 13.6085 139.893 12.905C140.852 12.2015 141.331 11.2122 141.331 9.93707C141.331 8.66198 140.889 7.67267 140.004 6.96914C139.133 6.25096 137.902 5.89191 136.309 5.89191H130.733ZM130.733 27.4588H136.685C138.602 27.4588 140.07 27.0704 141.088 26.2936C142.105 25.5021 142.614 24.3663 142.614 22.886C142.614 21.435 142.091 20.3358 141.043 19.5883C140.011 18.8261 138.506 18.4451 136.53 18.4451H130.733V27.4588ZM175.978 32.5373L173.567 24.9745H162.349L159.893 32.5373H153.19L164.274 0.81347H172.128L183.213 32.5373H175.978ZM167.791 7.40882L163.788 19.8521H172.15L168.19 7.40882H167.791ZM187.217 23.7214H193.677C193.825 25.0112 194.503 26.0371 195.713 26.7992C196.922 27.5614 198.471 27.9425 200.359 27.9425C202.099 27.9425 203.523 27.5688 204.629 26.8213C205.736 26.0591 206.288 25.0771 206.288 23.8753C206.288 22.864 205.861 22.0433 205.005 21.413C204.15 20.7828 202.741 20.2625 200.779 19.8521L196.62 18.9728C190.838 17.7709 187.947 14.7517 187.947 9.91505C187.947 6.92518 189.061 4.52881 191.288 2.72611C193.515 0.908676 196.472 0 200.16 0C203.67 0 206.554 0.886737 208.811 2.66013C211.082 4.4336 212.269 6.7346 212.372 9.56329H206.089C205.927 8.30285 205.307 7.2916 204.23 6.52945C203.154 5.76731 201.812 5.38624 200.204 5.38624C198.523 5.38624 197.174 5.74529 196.155 6.46347C195.153 7.18166 194.651 8.14166 194.651 9.34349C194.651 10.3254 195.056 11.1169 195.868 11.7178C196.694 12.3187 198.044 12.817 199.917 13.2127L203.766 14.0262C206.967 14.7004 209.297 15.7556 210.758 17.192C212.218 18.6283 212.947 20.5776 212.947 23.0399C212.947 26.235 211.79 28.7559 209.474 30.6026C207.173 32.4347 204.017 33.3507 200.005 33.3507C196.2 33.3507 193.147 32.4859 190.846 30.7565C188.545 29.0271 187.335 26.682 187.217 23.7214ZM240.426 26.8652V32.5373H219.275V0.81347H240.426V6.48549H225.957V13.8943H239.608V19.1486H225.957V26.8652H240.426ZM259.144 0.791448H271.711C276.46 0.791448 280.14 2.16183 282.75 4.9026C285.376 7.62871 286.689 11.476 286.689 16.4445C286.689 21.5889 285.383 25.5608 282.772 28.3602C280.176 31.1449 276.489 32.5373 271.711 32.5373H259.144V0.791448ZM265.825 6.46347V26.8652H270.649C273.613 26.8652 275.892 25.9859 277.485 24.227C279.077 22.4536 279.874 19.8961 279.874 16.5544C279.874 13.3593 279.063 10.8824 277.441 9.1236C275.818 7.35021 273.554 6.46347 270.649 6.46347H265.825ZM312.043 32.5373L309.632 24.9745H298.415L295.959 32.5373H289.255L300.34 0.81347H308.193L319.278 32.5373H312.043ZM303.858 7.40882L299.853 19.8521H308.216L304.256 7.40882H303.858ZM335.695 32.5373H329.013V6.48549H319.433V0.81347H345.274V6.48549H335.695V32.5373ZM368.239 32.5373L365.828 24.9745H354.611L352.155 32.5373H345.451L356.535 0.81347H364.39L375.474 32.5373H368.239ZM360.053 7.40882L356.049 19.8521H364.412L360.452 7.40882H360.053ZM395.254 32.5373H380.917V0.81347H394.877C397.96 0.81347 400.379 1.51692 402.134 2.92397C403.889 4.33095 404.767 6.26561 404.767 8.72788C404.767 10.4134 404.214 11.901 403.107 13.1908C402.001 14.4805 400.629 15.25 398.992 15.4992V15.8949C401.101 16.0561 402.842 16.8475 404.214 18.2692C405.6 19.6909 406.293 21.4204 406.293 23.4576C406.293 26.2423 405.305 28.4554 403.329 30.0969C401.353 31.7238 398.66 32.5373 395.254 32.5373ZM387.599 5.89191V13.9602H392.621C394.42 13.9602 395.799 13.6085 396.758 12.905C397.716 12.2015 398.196 11.2122 398.196 9.93707C398.196 8.66198 397.753 7.67267 396.868 6.96914C395.998 6.25096 394.767 5.89191 393.174 5.89191H387.599ZM387.599 27.4588H393.55C395.467 27.4588 396.935 27.0704 397.953 26.2936C398.97 25.5021 399.479 24.3663 399.479 22.886C399.479 21.435 398.955 20.3358 397.908 19.5883C396.876 18.8261 395.372 18.4451 393.395 18.4451H387.599V27.4588ZM432.843 32.5373L430.431 24.9745H419.214L416.758 32.5373H410.055L421.139 0.81347H428.993L440.078 32.5373H432.843ZM424.656 7.40882L420.653 19.8521H429.015L425.055 7.40882H424.656ZM444.082 23.7214H450.542C450.69 25.0112 451.368 26.0371 452.578 26.7992C453.787 27.5614 455.336 27.9425 457.224 27.9425C458.964 27.9425 460.388 27.5688 461.494 26.8213C462.601 26.0591 463.153 25.0771 463.153 23.8753C463.153 22.864 462.726 22.0433 461.87 21.413C461.015 20.7828 459.606 20.2625 457.644 19.8521L453.485 18.9728C447.703 17.7709 444.812 14.7517 444.812 9.91505C444.812 6.92518 445.926 4.52881 448.153 2.72611C450.38 0.908676 453.337 0 457.025 0C460.535 0 463.419 0.886737 465.676 2.66013C467.947 4.4336 469.134 6.7346 469.237 9.56329H462.954C462.792 8.30285 462.172 7.2916 461.095 6.52945C460.019 5.76731 458.677 5.38624 457.069 5.38624C455.388 5.38624 454.038 5.74529 453.02 6.46347C452.018 7.18166 451.516 8.14166 451.516 9.34349C451.516 10.3254 451.921 11.1169 452.733 11.7178C453.559 12.3187 454.908 12.817 456.782 13.2127L460.631 14.0262C463.832 14.7004 466.162 15.7556 467.623 17.192C469.082 18.6283 469.812 20.5776 469.812 23.0399C469.812 26.235 468.655 28.7559 466.339 30.6026C464.038 32.4347 460.882 33.3507 456.87 33.3507C453.065 33.3507 450.012 32.4859 447.711 30.7565C445.41 29.0271 444.2 26.682 444.082 23.7214ZM497.291 26.8652V32.5373H476.14V0.81347H497.291V6.48549H482.822V13.8943H496.473V19.1486H482.822V26.8652H497.291ZM60.6874 54.8209H73.2541C78.0034 54.8209 81.6835 56.1912 84.2941 58.932C86.9196 61.6581 88.2323 65.5054 88.2323 70.4741C88.2323 75.6183 86.927 79.5903 84.3163 82.3892C81.7203 85.1742 78.0329 86.5667 73.2541 86.5667H60.6874V54.8209ZM67.369 60.4929V80.8944H72.1921C75.1567 80.8944 77.4356 80.0152 79.0285 78.2568C80.6215 76.4828 81.418 73.9254 81.418 70.5838C81.418 67.3888 80.6067 64.9118 78.9843 63.153C77.3618 61.3796 75.0978 60.4929 72.1921 60.4929H67.369ZM113.587 86.5667L111.175 79.0042H99.9583L97.5024 86.5667H90.7987L101.883 54.8429H109.737L120.822 86.5667H113.587ZM105.401 61.4382L101.396 73.8812H109.759L105.799 61.4382H105.401ZM137.238 86.5667H130.556V60.5149H120.977V54.8429H146.817V60.5149H137.238V86.5667ZM169.783 86.5667L167.371 79.0042H156.154L153.699 86.5667H146.995L158.079 54.8429H165.934L177.018 86.5667H169.783ZM161.597 61.4382L157.592 73.8812H165.955L161.995 61.4382H161.597ZM196.797 86.5667H182.461V54.8429H196.421C199.503 54.8429 201.923 55.5463 203.678 56.9534C205.433 58.3604 206.311 60.295 206.311 62.7573C206.311 64.4428 205.757 65.9305 204.651 67.2202C203.545 68.5102 202.173 69.2797 200.536 69.5286V69.924C202.645 70.0852 204.385 70.8768 205.757 72.2988C207.144 73.7199 207.837 75.4497 207.837 77.4873C207.837 80.2714 206.849 82.485 204.872 84.1263C202.896 85.7529 200.204 86.5667 196.797 86.5667ZM189.142 59.9213V67.9896H194.164C195.963 67.9896 197.342 67.6379 198.301 66.9344C199.26 66.2309 199.74 65.2416 199.74 63.9665C199.74 62.6914 199.297 61.7021 198.412 60.9986C197.542 60.2804 196.31 59.9213 194.718 59.9213H189.142ZM189.142 81.4879H195.093C197.011 81.4879 198.478 81.0999 199.496 80.323C200.514 79.5314 201.022 78.3959 201.022 76.915C201.022 75.4644 200.499 74.365 199.452 73.6176C198.419 72.8555 196.915 72.4748 194.938 72.4748H189.142V81.4879ZM234.386 86.5667L231.975 79.0042H220.757L218.302 86.5667H211.598L222.683 54.8429H230.537L241.621 86.5667H234.386ZM226.201 61.4382L222.196 73.8812H230.559L226.598 61.4382H226.201ZM245.626 77.7509H252.086C252.234 79.0402 252.912 80.0668 254.122 80.8289C255.331 81.591 256.879 81.9717 258.767 81.9717C260.508 81.9717 261.931 81.5984 263.037 80.851C264.144 80.0889 264.697 79.1065 264.697 77.9048C264.697 76.8938 264.269 76.0727 263.414 75.4423C262.558 74.812 261.15 74.2922 259.188 73.8812L255.029 73.002C249.246 71.8003 246.356 68.7812 246.356 63.9445C246.356 60.9546 247.469 58.5582 249.696 56.7555C251.924 54.9381 254.881 54.0294 258.568 54.0294C262.079 54.0294 264.963 54.9162 267.219 56.6895C269.491 58.463 270.678 60.764 270.781 63.5927H264.498C264.336 62.3323 263.716 61.321 262.64 60.5589C261.563 59.7967 260.221 59.4157 258.613 59.4157C256.931 59.4157 255.582 59.7747 254.564 60.4929C253.561 61.2111 253.059 62.1711 253.059 63.3729C253.059 64.3548 253.465 65.1463 254.276 65.7472C255.102 66.3481 256.452 66.8464 258.325 67.2421L262.175 68.0559C265.375 68.7296 267.706 69.7848 269.166 71.2215C270.627 72.6574 271.356 74.6073 271.356 77.069C271.356 80.2641 270.198 82.7854 267.883 84.6322C265.582 86.4643 262.425 87.3804 258.413 87.3804C254.608 87.3804 251.555 86.5151 249.254 84.7861C246.953 83.0564 245.743 80.711 245.626 77.7509ZM298.835 80.8944V86.5667H277.684V54.8429H298.835V60.5149H284.366V67.9241H298.017V73.178H284.366V80.8944H298.835ZM317.552 54.8209H330.119C334.868 54.8209 338.548 56.1912 341.159 58.932C343.785 61.6581 345.097 65.5054 345.097 70.4741C345.097 75.6183 343.792 79.5903 341.181 82.3892C338.585 85.1742 334.898 86.5667 330.119 86.5667H317.552V54.8209ZM324.233 60.4929V80.8944H329.057C332.022 80.8944 334.301 80.0152 335.893 78.2568C337.487 76.4828 338.283 73.9254 338.283 70.5838C338.283 67.3888 337.472 64.9118 335.85 63.153C334.227 61.3796 331.963 60.4929 329.057 60.4929H324.233ZM370.452 86.5667L368.04 79.0042H356.824L354.368 86.5667H347.663L358.748 54.8429H366.602L377.686 86.5667H370.452ZM362.266 61.4382L358.261 73.8812H366.625L362.664 61.4382H362.266ZM394.103 86.5667H387.422V60.5149H377.841V54.8429H403.682V60.5149H394.103V86.5667ZM426.648 86.5667L424.236 79.0042H413.019L410.564 86.5667H403.86L414.944 54.8429H422.799L433.883 86.5667H426.648ZM418.462 61.4382L414.457 73.8812H422.82L418.86 61.4382H418.462ZM453.662 86.5667H439.326V54.8429H453.285C456.368 54.8429 458.787 55.5463 460.543 56.9534C462.298 58.3604 463.176 60.295 463.176 62.7573C463.176 64.4428 462.622 65.9305 461.516 67.2202C460.41 68.5102 459.038 69.2797 457.401 69.5286V69.924C459.51 70.0852 461.25 70.8768 462.622 72.2988C464.008 73.7199 464.702 75.4497 464.702 77.4873C464.702 80.2714 463.714 82.485 461.737 84.1263C459.761 85.7529 457.069 86.5667 453.662 86.5667ZM446.007 59.9213V67.9896H451.029C452.828 67.9896 454.207 67.6379 455.166 66.9344C456.125 66.2309 456.605 65.2416 456.605 63.9665C456.605 62.6914 456.162 61.7021 455.277 60.9986C454.407 60.2804 453.175 59.9213 451.583 59.9213H446.007ZM446.007 81.4879H451.958C453.876 81.4879 455.343 81.0999 456.361 80.323C457.379 79.5314 457.887 78.3959 457.887 76.915C457.887 75.4644 457.364 74.365 456.317 73.6176C455.284 72.8555 453.78 72.4748 451.803 72.4748H446.007V81.4879ZM491.251 86.5667L488.84 79.0042H477.622L475.167 86.5667H468.463L479.548 54.8429H487.402L498.486 86.5667H491.251ZM483.065 61.4382L479.061 73.8812H487.424L483.463 61.4382H483.065ZM502.491 77.7509H508.951C509.099 79.0402 509.777 80.0668 510.987 80.8289C512.196 81.591 513.744 81.9717 515.632 81.9717C517.373 81.9717 518.796 81.5984 519.902 80.851C521.009 80.0889 521.562 79.1065 521.562 77.9048C521.562 76.8938 521.134 76.0727 520.279 75.4423C519.423 74.812 518.015 74.2922 516.053 73.8812L511.894 73.002C506.111 71.8003 503.221 68.7812 503.221 63.9445C503.221 60.9546 504.334 58.5582 506.561 56.7555C508.789 54.9381 511.746 54.0294 515.433 54.0294C518.944 54.0294 521.828 54.9162 524.084 56.6895C526.355 58.463 527.543 60.764 527.646 63.5927H521.363C521.201 62.3323 520.581 61.321 519.504 60.5589C518.428 59.7967 517.086 59.4157 515.478 59.4157C513.796 59.4157 512.447 59.7747 511.429 60.4929C510.426 61.2111 509.924 62.1711 509.924 63.3729C509.924 64.3548 510.33 65.1463 511.141 65.7472C511.967 66.3481 513.317 66.8464 515.19 67.2421L519.04 68.0559C522.24 68.7296 524.571 69.7848 526.031 71.2215C527.491 72.6574 528.221 74.6073 528.221 77.069C528.221 80.2641 527.063 82.7854 524.748 84.6322C522.447 86.4643 519.29 87.3804 515.278 87.3804C511.473 87.3804 508.42 86.5151 506.119 84.7861C503.818 83.0564 502.608 80.711 502.491 77.7509ZM555.7 80.8944V86.5667H534.549V54.8429H555.7V60.5149H541.231V67.9241H554.882V73.178H541.231V80.8944H555.7ZM22.7882 140.596L20.3766 133.034H9.15956L6.7037 140.596H0L11.0844 108.873H18.9385L30.0229 140.596H22.7882ZM14.6021 115.467L10.5976 127.911H18.9606L15.0004 115.467H14.6021ZM34.0274 131.78H40.4877C40.6352 133.07 41.3137 134.096 42.5232 134.858C43.7327 135.62 45.2814 136.001 47.1694 136.001C48.9098 136.001 50.3331 135.628 51.4394 134.88C52.5455 134.118 53.0987 133.136 53.0987 131.934C53.0987 130.923 52.6709 130.102 51.8155 129.472C50.96 128.841 49.5514 128.322 47.5897 127.911L43.4303 127.031C37.6484 125.83 34.7575 122.811 34.7575 117.974C34.7575 114.984 35.8711 112.588 38.0983 110.785C40.3255 108.968 43.2828 108.059 46.9702 108.059C50.4806 108.059 53.3642 108.945 55.6209 110.719C57.8923 112.493 59.0797 114.794 59.1829 117.622H52.8995C52.7373 116.361 52.1178 115.35 51.0411 114.588C49.9644 113.826 48.6222 113.445 47.0145 113.445C45.333 113.445 43.9834 113.804 42.9657 114.522C41.9627 115.241 41.4612 116.2 41.4612 117.402C41.4612 118.384 41.8668 119.176 42.6781 119.777C43.504 120.378 44.8537 120.876 46.7268 121.272L50.5765 122.085C53.7772 122.759 56.1076 123.814 57.5678 125.251C59.028 126.687 59.7581 128.637 59.7581 131.098C59.7581 134.293 58.6003 136.815 56.2846 138.662C53.9836 140.494 50.8273 141.41 46.8154 141.41C43.0099 141.41 39.9568 140.544 37.6558 138.816C35.3548 137.086 34.1454 134.74 34.0274 131.78ZM87.2367 134.924V140.596H66.0857V108.873H87.2367V114.544H72.7673V121.953H86.4182V127.207H72.7673V134.924H87.2367ZM105.954 108.851H118.521C123.27 108.851 126.95 110.221 129.561 112.962C132.186 115.688 133.499 119.534 133.499 124.503C133.499 129.648 132.194 133.62 129.583 136.419C126.987 139.204 123.3 140.596 118.521 140.596H105.954V108.851ZM112.636 114.522V134.924H117.459C120.423 134.924 122.702 134.045 124.295 132.286C125.888 130.512 126.685 127.955 126.685 124.613C126.685 121.418 125.873 118.941 124.251 117.183C122.628 115.409 120.364 114.522 117.459 114.522H112.636ZM158.854 140.596L156.442 133.034H145.225L142.769 140.596H136.065L147.149 108.873H155.004L166.089 140.596H158.854ZM150.667 115.467L146.663 127.911H155.026L151.066 115.467H150.667ZM182.504 140.596H175.823V114.544H166.243V108.873H192.085V114.544H182.504V140.596ZM215.05 140.596L212.639 133.034H201.421L198.965 140.596H192.262L203.346 108.873H211.2L222.284 140.596H215.05ZM206.863 115.467L202.859 127.911H211.222L207.262 115.467H206.863ZM242.063 140.596H227.727V108.873H241.688C244.771 108.873 247.189 109.576 248.944 110.983C250.7 112.389 251.577 114.325 251.577 116.787C251.577 118.472 251.024 119.96 249.918 121.249C248.811 122.54 247.44 123.309 245.803 123.558V123.953C247.912 124.115 249.653 124.906 251.024 126.328C252.411 127.749 253.104 129.479 253.104 131.517C253.104 134.301 252.116 136.514 250.139 138.156C248.162 139.782 245.471 140.596 242.063 140.596ZM234.408 113.951V122.019H239.43C241.231 122.019 242.61 121.667 243.568 120.964C244.527 120.261 245.006 119.271 245.006 117.996C245.006 116.721 244.564 115.731 243.679 115.028C242.808 114.31 241.577 113.951 239.984 113.951H234.408ZM234.408 135.517H240.36C242.278 135.517 243.745 135.129 244.763 134.352C245.781 133.561 246.29 132.425 246.29 130.944C246.29 129.494 245.766 128.394 244.719 127.647C243.686 126.885 242.182 126.504 240.205 126.504H234.408V135.517ZM279.653 140.596L277.241 133.034H266.025L263.569 140.596H256.865L267.949 108.873H275.804L286.887 140.596H279.653ZM271.467 115.467L267.462 127.911H275.826L271.866 115.467H271.467ZM290.892 131.78H297.353C297.5 133.07 298.179 134.096 299.388 134.858C300.598 135.62 302.146 136.001 304.034 136.001C305.775 136.001 307.198 135.628 308.305 134.88C309.41 134.118 309.964 133.136 309.964 131.934C309.964 130.923 309.536 130.102 308.68 129.472C307.825 128.841 306.416 128.322 304.455 127.911L300.295 127.031C294.514 125.83 291.623 122.811 291.623 117.974C291.623 114.984 292.736 112.588 294.963 110.785C297.19 108.968 300.148 108.059 303.835 108.059C307.346 108.059 310.229 108.945 312.486 110.719C314.757 112.493 315.945 114.794 316.048 117.622H309.764C309.602 116.361 308.983 115.35 307.906 114.588C306.829 113.826 305.487 113.445 303.879 113.445C302.198 113.445 300.848 113.804 299.831 114.522C298.827 115.241 298.326 116.2 298.326 117.402C298.326 118.384 298.732 119.176 299.543 119.777C300.369 120.378 301.719 120.876 303.591 121.272L307.441 122.085C310.642 122.759 312.972 123.814 314.433 125.251C315.893 126.687 316.623 128.637 316.623 131.098C316.623 134.293 315.465 136.815 313.15 138.662C310.849 140.494 307.693 141.41 303.68 141.41C299.875 141.41 296.822 140.544 294.521 138.816C292.22 137.086 291.011 134.74 290.892 131.78ZM344.102 134.924V140.596H322.951V108.873H344.102V114.544H329.632V121.953H343.283V127.207H329.632V134.924H344.102ZM362.819 108.851H375.385C380.135 108.851 383.815 110.221 386.426 112.962C389.051 115.688 390.363 119.534 390.363 124.503C390.363 129.648 389.059 133.62 386.448 136.419C383.852 139.204 380.164 140.596 375.385 140.596H362.819V108.851ZM369.501 114.522V134.924H374.323C377.288 134.924 379.567 134.045 381.16 132.286C382.753 130.512 383.55 127.955 383.55 124.613C383.55 121.418 382.738 118.941 381.116 117.183C379.493 115.409 377.229 114.522 374.323 114.522H369.501ZM415.719 140.596L413.307 133.034H402.09L399.634 140.596H392.931L404.014 108.873H411.869L422.954 140.596H415.719ZM407.532 115.467L403.528 127.911H411.891L407.931 115.467H407.532ZM439.369 140.596H432.688V114.544H423.108V108.873H448.95V114.544H439.369V140.596ZM471.915 140.596L469.503 133.034H458.286L455.83 140.596H449.127L460.211 108.873H468.065L479.149 140.596H471.915ZM463.728 115.467L459.724 127.911H468.087L464.127 115.467H463.728ZM498.928 140.596H484.592V108.873H498.553C501.635 108.873 504.054 109.576 505.809 110.983C507.565 112.389 508.442 114.325 508.442 116.787C508.442 118.472 507.889 119.96 506.783 121.249C505.676 122.54 504.305 123.309 502.668 123.558V123.953C504.777 124.115 506.517 124.906 507.889 126.328C509.276 127.749 509.969 129.479 509.969 131.517C509.969 134.301 508.981 136.514 507.004 138.156C505.027 139.782 502.336 140.596 498.928 140.596ZM491.273 113.951V122.019H496.295C498.095 122.019 499.475 121.667 500.433 120.964C501.392 120.261 501.871 119.271 501.871 117.996C501.871 116.721 501.429 115.731 500.544 115.028C499.673 114.31 498.441 113.951 496.849 113.951H491.273ZM491.273 135.517H497.225C499.143 135.517 500.61 135.129 501.628 134.352C502.645 133.561 503.155 132.425 503.155 130.944C503.155 129.494 502.631 128.394 501.584 127.647C500.551 126.885 499.046 126.504 497.07 126.504H491.273V135.517ZM536.518 140.596L534.106 133.034H522.89L520.434 140.596H513.73L524.814 108.873H532.668L543.752 140.596H536.518ZM528.332 115.467L524.327 127.911H532.691L528.731 115.467H528.332ZM547.757 131.78H554.218C554.365 133.07 555.044 134.096 556.253 134.858C557.463 135.62 559.011 136.001 560.899 136.001C562.64 136.001 564.063 135.628 565.17 134.88C566.275 134.118 566.829 133.136 566.829 131.934C566.829 130.923 566.4 130.102 565.545 129.472C564.69 128.841 563.281 128.322 561.32 127.911L557.16 127.031C551.379 125.83 548.488 122.811 548.488 117.974C548.488 114.984 549.601 112.588 551.828 110.785C554.055 108.968 557.013 108.059 560.7 108.059C564.211 108.059 567.094 108.945 569.351 110.719C571.622 112.493 572.81 114.794 572.913 117.622H566.629C566.467 116.361 565.848 115.35 564.771 114.588C563.694 113.826 562.352 113.445 560.744 113.445C559.063 113.445 557.713 113.804 556.696 114.522C555.692 115.241 555.191 116.2 555.191 117.402C555.191 118.384 555.597 119.176 556.408 119.777C557.234 120.378 558.584 120.876 560.456 121.272L564.306 122.085C567.507 122.759 569.837 123.814 571.298 125.251C572.758 126.687 573.488 128.637 573.488 131.098C573.488 134.293 572.33 136.815 570.015 138.662C567.714 140.494 564.557 141.41 560.545 141.41C556.74 141.41 553.687 140.544 551.386 138.816C549.085 137.086 547.876 134.74 547.757 131.78ZM600.967 134.924V140.596H579.816V108.873H600.967V114.544H586.497V121.953H600.148V127.207H586.497V134.924H600.967Z" fill="#1F1F29"/>
</svg>
