<svg width="150" height="30" viewBox="0 0 150 30" fill="none" xmlns="http://www.w3.org/2000/svg">
<rect width="150" height="30" rx="15" fill="#FFFDFD"/>
<path d="M15.6698 18.9937L11.25 14.5729L12.7229 13.1L15.6698 16.0458L21.5615 10.1531L23.0354 11.627L15.6698 18.9937Z" fill="#14AE5C"/>
<path fill-rule="evenodd" clip-rule="evenodd" d="M6.0415 14.5C6.0415 8.17183 11.1717 3.04163 17.4998 3.04163C23.828 3.04163 28.9582 8.17183 28.9582 14.5C28.9582 20.8281 23.828 25.9583 17.4998 25.9583C11.1717 25.9583 6.0415 20.8281 6.0415 14.5ZM17.4998 23.875C16.2687 23.875 15.0496 23.6325 13.9122 23.1613C12.7748 22.6902 11.7413 21.9996 10.8707 21.1291C10.0002 20.2585 9.3096 19.225 8.83847 18.0876C8.36733 16.9502 8.12484 15.7311 8.12484 14.5C8.12484 13.2688 8.36733 12.0497 8.83847 10.9123C9.3096 9.77487 10.0002 8.74138 10.8707 7.87083C11.7413 7.00028 12.7748 6.30973 13.9122 5.83859C15.0496 5.36745 16.2687 5.12496 17.4998 5.12496C19.9862 5.12496 22.3708 6.11268 24.129 7.87083C25.8871 9.62899 26.8748 12.0136 26.8748 14.5C26.8748 16.9864 25.8871 19.3709 24.129 21.1291C22.3708 22.8872 19.9862 23.875 17.4998 23.875Z" fill="#14AE5C"/>
<path d="M134 9.16663V6.66663L130.667 9.99996L134 13.3333V10.8333C136.758 10.8333 139 13.075 139 15.8333C139 18.3083 137.192 20.3583 134.833 20.7583V22.4416C138.125 22.0333 140.667 19.2333 140.667 15.8333C140.667 12.15 137.683 9.16663 134 9.16663ZM129 15.8333C129 14.4583 129.558 13.2083 130.467 12.3L129.283 11.1166C128.665 11.7362 128.174 12.4717 127.839 13.281C127.505 14.0903 127.333 14.9576 127.333 15.8333C127.333 19.2333 129.875 22.0333 133.167 22.4416V20.7583C130.808 20.3583 129 18.3083 129 15.8333Z" fill="#6B6B6B"/>
<circle cx="134" cy="15" r="9.75" stroke="#6B6B6B" stroke-width="0.5"/>
</svg>
