<svg width="150" height="30" viewBox="0 0 150 30" fill="none" xmlns="http://www.w3.org/2000/svg">
<rect width="150" height="30" rx="15" fill="#FFFDFD"/>
<path d="M134 9.16663V6.66663L130.666 9.99996L134 13.3333V10.8333C136.758 10.8333 139 13.075 139 15.8333C139 18.3083 137.191 20.3583 134.833 20.7583V22.4416C138.125 22.0333 140.666 19.2333 140.666 15.8333C140.666 12.15 137.683 9.16663 134 9.16663ZM129 15.8333C129 14.4583 129.558 13.2083 130.466 12.3L129.283 11.1166C128.664 11.7362 128.173 12.4717 127.839 13.281C127.504 14.0903 127.332 14.9576 127.333 15.8333C127.333 19.2333 129.875 22.0333 133.166 22.4416V20.7583C130.808 20.3583 129 18.3083 129 15.8333Z" fill="#6B6B6B"/>
<circle cx="134" cy="15" r="9.75" stroke="#6B6B6B" stroke-width="0.5"/>
<circle cx="17" cy="15" r="11" stroke="#484848" stroke-width="2"/>
<path d="M15.4443 22.25L15.1577 19.9605C14.9049 19.884 14.6318 19.7642 14.3383 19.6011C14.0444 19.4375 13.7945 19.2622 13.5886 19.0754L11.4765 19.974L10 17.401L11.8256 16.0243C11.8018 15.8818 11.7826 15.7346 11.7678 15.5826C11.752 15.4306 11.744 15.2831 11.744 15.14C11.744 15.007 11.752 14.8672 11.7678 14.7205C11.7826 14.5737 11.8018 14.4085 11.8256 14.2249L10 12.8498L11.4765 10.3069L13.5728 11.1904C13.8092 10.9936 14.0652 10.816 14.3407 10.6576C14.6152 10.4993 14.8825 10.3768 15.1427 10.2903L15.4435 8H18.398L18.6838 10.3053C18.9873 10.4119 19.2554 10.5341 19.4881 10.6719C19.7209 10.8096 19.9608 10.9822 20.2078 11.1896L22.365 10.3069L23.8415 12.849L21.9558 14.2708C21.999 14.4344 22.0233 14.5846 22.0286 14.7213C22.0339 14.8579 22.0365 14.9925 22.0365 15.125C22.0365 15.248 22.0312 15.3775 22.0207 15.5137C22.0106 15.6504 21.9874 15.8156 21.951 16.0093L23.8067 17.401L22.3302 19.974L20.2078 19.0604C19.9613 19.2678 19.7132 19.4454 19.4636 19.5932C19.2139 19.7409 18.954 19.8584 18.6838 19.9455L18.398 22.25H15.4443ZM16.8994 17.1042C17.4514 17.1042 17.9193 16.9123 18.303 16.5286C18.6867 16.1449 18.8785 15.6771 18.8785 15.125C18.8785 14.5729 18.6867 14.1051 18.303 13.7214C17.9193 13.3377 17.4514 13.1458 16.8994 13.1458C16.3442 13.1458 15.8755 13.3377 15.4934 13.7214C15.1113 14.1051 14.9202 14.5729 14.9202 15.125C14.9202 15.6771 15.1113 16.1449 15.4934 16.5286C15.8755 16.9123 16.3442 17.1042 16.8994 17.1042Z" fill="#484848"/>
</svg>
