<svg width="20" height="20" viewBox="0 0 20 20" fill="none" xmlns="http://www.w3.org/2000/svg">
<rect width="20" height="20" rx="5" fill="#1B1F23"/>
<path d="M14.1201 13.9402C14.2264 13.0555 14.1946 12.9256 14.8535 13.069L15.0207 13.0837C15.5275 13.1067 16.1903 13.0021 16.5798 12.8212C17.4182 12.4322 17.9151 11.7828 17.0887 11.9533C15.2031 12.3424 15.0735 11.7039 15.0735 11.7039C17.0646 8.74978 17.8968 4.99969 17.1783 4.0817C15.2188 1.57798 11.8271 2.76193 11.7703 2.79253L11.7522 2.79592C11.3797 2.71859 10.9627 2.67242 10.4943 2.66483C9.64104 2.65075 8.99361 2.88854 8.50245 3.26094C8.50245 3.26094 2.45163 0.768052 2.73316 6.39597C2.79302 7.59319 4.44916 15.4551 6.42462 13.0804C7.14666 12.2121 7.84433 11.4779 7.84433 11.4779C8.19072 11.708 8.60564 11.8255 9.0406 11.7833L9.07432 11.7545C9.06375 11.8623 9.06836 11.9678 9.08772 12.0927C8.57896 12.6613 8.72846 12.7611 7.71108 12.9704C6.68164 13.1825 7.28641 13.5602 7.68115 13.6589C8.15985 13.7786 9.26715 13.9482 10.0155 12.9008L9.98567 13.0203C10.1853 13.1801 10.1719 14.1682 10.2 14.8741C10.2283 15.5802 10.2756 16.239 10.4195 16.6275C10.5635 17.016 10.7333 18.0163 12.0704 17.7298C13.1879 17.4909 14.0422 17.1463 14.1201 13.9402Z" fill="black"/>
<path d="M11.6353 18.4284C11.044 18.4284 10.6588 18.1997 10.425 17.9788C10.0719 17.6457 9.93191 17.2166 9.84823 16.9602L9.81207 16.8532C9.64361 16.3985 9.58647 15.7438 9.55261 14.9007C9.54747 14.7741 9.54395 14.6437 9.54002 14.5054C9.53717 14.4042 9.53365 14.2773 9.52851 14.1446C9.31546 14.2462 9.08931 14.3177 8.85657 14.357C8.43962 14.4282 7.99139 14.4052 7.52407 14.2883C7.19433 14.2058 6.85173 14.035 6.65646 13.771C6.0873 14.2695 5.54441 14.2019 5.24866 14.1032C4.7269 13.9292 4.25999 13.4402 3.8211 12.6086C3.50843 12.0162 3.20604 11.2443 2.92221 10.3142C2.42794 8.69466 2.1139 6.98882 2.08601 6.42873C1.99826 4.67576 2.47019 3.42208 3.48838 2.70288C5.09456 1.56836 7.52813 2.23556 8.41538 2.53848C9.01149 2.17922 9.71281 2.0044 10.5053 2.01699C10.9309 2.0239 11.3362 2.06127 11.7126 2.12844C12.1054 2.00494 12.881 1.82768 13.7689 1.83878C15.4049 1.85828 16.7606 2.49583 17.6891 3.68248C18.3519 4.52911 18.0241 6.30699 17.77 7.29147C17.4122 8.67624 16.7854 10.149 16.0154 11.4312C16.2245 11.4327 16.5274 11.4076 16.958 11.3186C17.8076 11.1433 18.0561 11.5988 18.1235 11.8027C18.3937 12.6209 17.2194 13.2392 16.8531 13.4093C16.3837 13.6272 15.6185 13.7599 14.9918 13.7312L14.9644 13.7295L14.7997 13.715L14.7835 13.8523L14.7678 13.9865C14.7257 15.6113 14.4936 16.6404 14.0159 17.3203C13.5153 18.0331 12.8195 18.2329 12.2066 18.3642C11.9976 18.4089 11.8076 18.4284 11.6353 18.4284ZM10.3908 12.5146C10.7726 12.8201 10.806 13.395 10.836 14.4692C10.8397 14.6033 10.8433 14.7302 10.848 14.8487C10.8624 15.2075 10.8961 16.0478 11.0277 16.4028C11.0463 16.4531 11.0629 16.504 11.0805 16.558C11.2272 17.0071 11.3007 17.2323 11.9349 17.0967C12.4672 16.9826 12.7409 16.8802 12.9551 16.5752C13.2664 16.1319 13.4406 15.24 13.4725 13.9245L14.1202 13.9402L13.477 13.863L13.4959 13.7024C13.5576 13.1729 13.602 12.7905 13.9558 12.5375C14.2398 12.3347 14.5633 12.3543 14.821 12.4007C14.5378 12.1868 14.4596 11.9359 14.4387 11.8329L14.3847 11.5668L14.5365 11.3416C15.4109 10.0444 16.1318 8.44996 16.5148 6.96715C16.9083 5.44358 16.7883 4.63446 16.6684 4.48144C15.08 2.45195 12.3258 3.28991 12.0382 3.38497L11.9896 3.41124L11.7458 3.45661L11.621 3.43074C11.2767 3.35924 10.8943 3.3197 10.4844 3.31307C9.84037 3.30223 9.32078 3.45444 8.89476 3.77768L8.59914 4.0018L8.25613 3.86056C7.52326 3.56088 5.37067 2.95841 4.2348 3.76292C3.6043 4.20952 3.31708 5.08459 3.381 6.36387C3.40212 6.78623 3.68907 8.3851 4.16249 9.93575C4.81669 12.0787 5.41116 12.7906 5.65938 12.8733C5.70272 12.888 5.81511 12.8006 5.92697 12.6663C6.39336 12.1072 6.87629 11.5622 7.37511 11.0318L7.75022 10.6371L8.20373 10.9384C8.38654 11.0598 8.58817 11.1288 8.79523 11.1418L9.8768 10.2193L9.72012 11.8183C9.7166 11.8542 9.71484 11.9031 9.72892 11.9938L9.77605 12.2969L9.57157 12.5255L9.54801 12.552L10.1422 12.8262L10.3908 12.5146Z" fill="black"/>
<path d="M17.0891 11.9534C15.2034 12.3424 15.0738 11.7039 15.0738 11.7039C17.0648 8.74966 17.8971 4.99943 17.1789 4.08171C15.2194 1.57813 11.8273 2.76208 11.7707 2.79282L11.7524 2.79607C11.3799 2.71874 10.963 2.6727 10.4943 2.66512C9.64103 2.65117 8.99387 2.88883 8.50271 3.26122C8.50271 3.26122 2.45176 0.768473 2.73315 6.39626C2.79301 7.59361 4.44915 15.4555 6.42461 13.0808C7.14665 12.2125 7.84418 11.4783 7.84418 11.4783C8.19071 11.7084 8.6055 11.8259 9.04032 11.7837L9.07417 11.755C9.06361 11.8628 9.06849 11.9682 9.08771 12.0931C8.57882 12.6617 8.72832 12.7615 7.71093 12.9709C6.6815 13.1829 7.28627 13.5606 7.68114 13.6593C8.1597 13.779 9.26714 13.9486 10.0153 12.9013L9.98539 13.0207C10.1849 13.1805 10.3249 14.0596 10.3015 14.8565C10.278 15.6535 10.2622 16.2007 10.4194 16.6281C10.5765 17.0554 10.733 18.0169 12.0704 17.7304C13.1879 17.4909 13.7669 16.8703 13.8476 15.8352C13.9048 15.0992 14.0341 15.2081 14.0423 14.5501L14.1462 14.2386C14.2659 13.241 14.1652 12.9193 14.8538 13.0689L15.021 13.0835C15.5277 13.1066 16.1909 13.002 16.5802 12.8211C17.4184 12.4323 17.9155 11.7829 17.0891 11.9534Z" fill="#336791"/>
<path d="M11.7029 18.0291C10.5881 18.0291 10.2349 17.1463 10.0905 16.7853C9.87893 16.2562 9.8333 14.203 9.88042 12.5193C9.88112 12.4909 9.88744 12.4629 9.899 12.4369C9.91055 12.411 9.92713 12.3876 9.94778 12.3681C9.96842 12.3486 9.99272 12.3333 10.0193 12.3233C10.0458 12.3132 10.0741 12.3085 10.1025 12.3094C10.1309 12.3101 10.1588 12.3165 10.1847 12.3281C10.2106 12.3396 10.234 12.3562 10.2535 12.3768C10.273 12.3974 10.2882 12.4217 10.2983 12.4482C10.3084 12.4747 10.3132 12.5029 10.3124 12.5313C10.2581 14.4733 10.3352 16.2332 10.4917 16.6248C10.736 17.2354 11.1065 17.7695 12.1539 17.5451C13.1483 17.3318 13.5207 16.9548 13.6866 15.9932C13.8139 15.2553 14.0656 13.1561 14.0966 12.7419C14.0987 12.7136 14.1063 12.686 14.1191 12.6606C14.1319 12.6353 14.1495 12.6127 14.171 12.5942C14.1925 12.5756 14.2175 12.5615 14.2445 12.5527C14.2714 12.5438 14.2999 12.5404 14.3282 12.5425C14.3853 12.5469 14.4384 12.5737 14.4757 12.6171C14.5131 12.6605 14.5317 12.717 14.5275 12.7741C14.4952 13.2054 14.2446 15.3006 14.1125 16.0668C13.9167 17.2025 13.4103 17.7176 12.2445 17.9676C12.0464 18.01 11.8664 18.029 11.7029 18.0291ZM5.6584 13.7173C5.56096 13.717 5.46421 13.701 5.37186 13.6699C4.64779 13.4283 3.95811 12.2491 3.32192 10.1646C2.83767 8.57795 2.53082 6.92181 2.50387 6.38353C2.42411 4.78778 2.83497 3.65881 3.72533 3.02817C5.48669 1.78017 8.44975 2.96859 8.57501 3.01978C8.62807 3.04145 8.67035 3.08332 8.69255 3.13617C8.71474 3.18901 8.71504 3.24851 8.69336 3.30158C8.67169 3.35464 8.62982 3.39692 8.57697 3.41912C8.52412 3.44131 8.46462 3.44161 8.41156 3.41993C8.38299 3.40829 5.54167 2.26997 3.97423 3.38134C3.21291 3.92111 2.8634 4.92401 2.93531 6.362C2.95792 6.81551 3.2446 8.43184 3.73508 10.0384C4.30302 11.8993 4.94936 13.0735 5.5085 13.26C5.59625 13.2892 5.86329 13.3782 6.24503 12.9191C6.69018 12.3845 7.15205 11.8639 7.62993 11.3583C7.66992 11.3184 7.72393 11.2958 7.7804 11.2952C7.83687 11.2947 7.89132 11.3162 7.9321 11.3553C7.97287 11.3944 7.99673 11.4479 7.99857 11.5043C8.00041 11.5608 7.98008 11.6157 7.94193 11.6573C7.93543 11.6641 7.28557 12.3435 6.57734 13.1955C6.24191 13.5989 5.92043 13.7173 5.6584 13.7173ZM15.0602 11.8966C15.0211 11.8966 14.9827 11.8859 14.9491 11.8657C14.9155 11.8455 14.8881 11.8165 14.8697 11.7819C14.8513 11.7473 14.8427 11.7084 14.8447 11.6693C14.8467 11.6302 14.8594 11.5923 14.8812 11.5598C16.8939 8.57321 17.6004 4.9645 16.9954 4.19127C16.2338 3.21816 15.1584 2.70994 13.799 2.68056C12.7924 2.65889 11.9924 2.91591 11.8616 2.96073L11.8287 2.97414C11.6972 3.01544 11.5963 2.9434 11.5582 2.85917C11.5365 2.81091 11.5333 2.75639 11.549 2.70587C11.5647 2.65535 11.5984 2.61234 11.6437 2.58495C11.6499 2.5813 11.6697 2.5729 11.7018 2.56112C11.924 2.47973 12.7362 2.23598 13.7422 2.2475C15.2464 2.26347 16.489 2.84346 17.3354 3.92504C17.7358 4.43678 17.7368 5.61571 17.338 7.15973C16.9314 8.73395 16.1665 10.4257 15.2394 11.8014C15.198 11.8633 15.1297 11.8966 15.0602 11.8966ZM15.1632 13.2792C14.8195 13.2792 14.5114 13.2307 14.327 13.1202C14.1374 13.0066 14.1012 12.8522 14.0965 12.7703C14.0448 11.8617 14.5461 11.7035 14.8017 11.6313C14.7661 11.5774 14.7155 11.5141 14.6631 11.4487C14.514 11.2623 14.3098 11.0072 14.1524 10.6256C14.1278 10.566 14.0506 10.4275 13.9612 10.267C13.4765 9.3979 12.4681 7.58941 13.1159 6.6633C13.4157 6.2347 14.0128 6.06597 14.8925 6.16009C14.6337 5.37169 13.4014 2.90548 10.4773 2.85755C9.59794 2.84292 8.87672 3.11335 8.33478 3.66057C7.12144 4.88595 7.16532 7.10313 7.166 7.12534C7.16674 7.1537 7.1619 7.18194 7.15173 7.20843C7.14157 7.23492 7.12628 7.25915 7.10676 7.27973C7.08723 7.30032 7.06384 7.31685 7.03792 7.3284C7.012 7.33994 6.98406 7.34627 6.95569 7.34702C6.92733 7.34776 6.8991 7.34292 6.87261 7.33275C6.84612 7.32259 6.82189 7.3073 6.8013 7.28778C6.78072 7.26825 6.76418 7.24486 6.75264 7.21894C6.74109 7.19302 6.73476 7.16508 6.73402 7.13671C6.73131 7.03827 6.68608 4.71154 8.02779 3.35642C8.65572 2.72227 9.4823 2.40918 10.4845 2.42557C12.3552 2.45631 13.5593 3.40734 14.2399 4.19966C14.9818 5.06321 15.3456 6.01573 15.3755 6.33369C15.3978 6.57013 15.2282 6.61739 15.1939 6.62443L15.1159 6.62619C14.2526 6.48793 13.6988 6.58394 13.4698 6.91111C12.977 7.61541 13.931 9.32613 14.3383 10.0567C14.4423 10.243 14.5174 10.3778 14.5518 10.4609C14.6855 10.7854 14.8601 11.0034 15.0003 11.1786C15.1236 11.3327 15.2305 11.4664 15.2687 11.6232C15.2864 11.6543 15.5381 12.0267 17.0319 11.7184C17.4063 11.6412 17.6309 11.7072 17.6995 11.9148C17.8345 12.323 17.077 12.7993 16.6576 12.994C16.2818 13.1687 15.6821 13.2792 15.1632 13.2792ZM14.5272 12.7347C14.5746 12.7825 14.8118 12.865 15.3028 12.8438C15.7394 12.8252 16.1998 12.7302 16.476 12.602C16.8293 12.4379 17.0652 12.2544 17.1874 12.1291L17.1197 12.1416C16.1646 12.3387 15.489 12.3125 15.1117 12.0634C15.0863 12.0467 15.0619 12.0286 15.0386 12.0091C14.9977 12.0253 14.9599 12.0358 14.933 12.0434C14.719 12.1034 14.4977 12.1655 14.5272 12.7347ZM8.35739 13.9419C8.12014 13.9419 7.87043 13.9096 7.61544 13.8458C7.35125 13.7797 6.90586 13.5808 6.91263 13.254C6.92035 12.8875 7.45349 12.7775 7.65417 12.7362C8.37919 12.5868 8.42646 12.527 8.65301 12.2392C8.71909 12.1554 8.80129 12.051 8.91341 11.9259C9.07984 11.7395 9.26171 11.6451 9.454 11.6451C9.58792 11.6451 9.69775 11.6905 9.77033 11.7207C10.0016 11.8166 10.1946 12.0484 10.2739 12.3256C10.3456 12.5757 10.3113 12.8165 10.1778 13.0035C9.73946 13.6173 9.1099 13.9419 8.35739 13.9419ZM7.37941 13.2726C7.44455 13.323 7.57509 13.3903 7.72039 13.4265C7.94126 13.4818 8.15549 13.5098 8.35753 13.5098C8.97313 13.5098 9.4674 13.255 9.82639 12.7523C9.90128 12.6475 9.8788 12.5144 9.85876 12.4444C9.81678 12.2977 9.71251 12.1643 9.60512 12.1198C9.54689 12.0957 9.49855 12.0773 9.45413 12.0773C9.4303 12.0773 9.35772 12.0773 9.23557 12.2139C9.15127 12.3087 9.07024 12.4063 8.99263 12.5067C8.71042 12.865 8.5811 12.9866 7.74152 13.1595C7.53663 13.2015 7.43155 13.2443 7.37941 13.2726ZM9.04084 12.2759C8.98926 12.2758 8.93941 12.2573 8.90029 12.2237C8.86118 12.19 8.83538 12.1435 8.82756 12.0926C8.82214 12.0567 8.81852 12.0206 8.81673 11.9844C8.26639 11.9741 7.73542 11.7379 7.33229 11.3173C6.82258 10.7855 6.59061 10.0487 6.69597 9.29593C6.81039 8.47842 6.7676 7.75679 6.74458 7.36909C6.73822 7.2613 6.73361 7.18343 6.73388 7.12954C6.73429 7.06115 6.73564 6.87983 7.34177 6.57257C7.55735 6.46329 7.9896 6.27262 8.4618 6.22373C9.2441 6.14289 9.75977 6.49132 9.91414 7.20496C10.3308 9.13167 9.94718 9.98385 9.66701 10.6062C9.61487 10.7221 9.56558 10.8316 9.52617 10.9376L9.49137 11.031C9.34336 11.4279 9.21539 11.7708 9.25466 12.0269C9.25898 12.0549 9.25772 12.0835 9.25097 12.1111C9.24421 12.1387 9.2321 12.1646 9.21531 12.1875C9.19852 12.2104 9.17739 12.2297 9.15312 12.2444C9.12886 12.2591 9.10193 12.2689 9.07388 12.2732L9.04084 12.2759ZM7.16735 7.18939L7.17575 7.34363C7.19958 7.74636 7.244 8.49575 7.12375 9.35592C7.03694 9.97681 7.22653 10.5828 7.64415 11.0183C7.97416 11.3625 8.40844 11.5525 8.85478 11.5525H8.86399C8.91396 11.3419 8.99697 11.1196 9.08634 10.88L9.12087 10.7871C9.16542 10.6674 9.21756 10.5515 9.27281 10.4288C9.54242 9.82974 9.87812 9.084 9.49151 7.29637C9.415 6.94226 9.22934 6.73737 8.92425 6.6698C8.29754 6.5314 7.36357 7.00279 7.16735 7.18939ZM8.47141 7.09771C8.46058 7.17409 8.6113 7.37803 8.80792 7.40524C9.00414 7.43273 9.17206 7.27321 9.18276 7.19684C9.19346 7.12046 9.04287 7.03623 8.84625 7.00888C8.64962 6.98153 8.48184 7.02134 8.47141 7.09771ZM8.85302 7.4804L8.7979 7.47661C8.67603 7.45968 8.5528 7.3829 8.46843 7.27105C8.43878 7.23178 8.39043 7.15567 8.40005 7.08769C8.41373 6.98803 8.53533 6.92831 8.72505 6.92831C8.76743 6.92831 8.81158 6.93142 8.856 6.93765C8.95973 6.95201 9.05601 6.98193 9.1271 7.02161C9.25033 7.0904 9.2594 7.16718 9.25385 7.20686C9.23868 7.31695 9.06359 7.4804 8.85302 7.4804ZM8.54305 7.11044C8.54914 7.15757 8.66587 7.31303 8.81781 7.33402L8.85315 7.33645C8.99344 7.33645 9.09826 7.22609 9.11058 7.18993C9.09758 7.16529 9.00739 7.10408 8.83636 7.08024C8.79953 7.07504 8.76238 7.07237 8.72518 7.07226C8.61523 7.07226 8.55686 7.09704 8.54305 7.11044ZM14.4479 6.94185C14.4586 7.01822 14.308 7.22216 14.1115 7.24952C13.9152 7.27687 13.7471 7.11748 13.7363 7.04111C13.726 6.96473 13.8766 6.88037 14.0729 6.85315C14.2693 6.82566 14.4371 6.86561 14.4479 6.94185ZM14.0662 7.28852C13.8771 7.28852 13.7139 7.14145 13.7005 7.04598C13.685 6.93142 13.8736 6.84435 14.0678 6.8174C14.1106 6.81144 14.153 6.80846 14.1937 6.80846C14.3614 6.80846 14.4724 6.85762 14.4835 6.93697C14.4907 6.9883 14.4513 7.06752 14.3834 7.13902C14.3386 7.18601 14.2445 7.26739 14.1163 7.28513L14.0662 7.28852ZM14.1939 6.88051C14.1563 6.88051 14.1177 6.88326 14.0779 6.88877C13.8828 6.91598 13.7663 6.99426 13.772 7.03623C13.7785 7.08241 13.9031 7.21661 14.0663 7.21661L14.1065 7.21377C14.2131 7.19901 14.2931 7.1294 14.3313 7.08932C14.3913 7.02635 14.4151 6.96704 14.4123 6.94686C14.4085 6.92005 14.3364 6.88051 14.1939 6.88051ZM14.7308 11.328C14.6916 11.328 14.6532 11.3174 14.6196 11.2973C14.5861 11.2771 14.5586 11.2482 14.5402 11.2137C14.5218 11.1792 14.5131 11.1403 14.5151 11.1012C14.5171 11.0621 14.5297 11.0242 14.5515 10.9918C15.0116 10.3045 14.9274 9.60373 14.846 8.92597C14.8112 8.63727 14.7755 8.33867 14.7847 8.05213C14.7942 7.75733 14.8317 7.51412 14.8678 7.2789C14.9107 7.00021 14.9514 6.73696 14.9346 6.42442C14.9331 6.39609 14.9371 6.36774 14.9465 6.34098C14.956 6.31423 14.9706 6.28959 14.9895 6.26847C15.0085 6.24736 15.0314 6.23019 15.057 6.21793C15.0826 6.20568 15.1103 6.19859 15.1387 6.19706C15.167 6.19553 15.1953 6.19959 15.2221 6.20902C15.2488 6.21845 15.2735 6.23306 15.2946 6.25201C15.3372 6.29028 15.3629 6.34392 15.366 6.40113C15.3852 6.75836 15.3393 7.05628 15.2949 7.34458C15.2607 7.56707 15.2252 7.79714 15.2167 8.06594C15.2084 8.31971 15.2408 8.58919 15.275 8.87438C15.3617 9.59507 15.4599 10.4119 14.9106 11.2321C14.8908 11.2616 14.864 11.2858 14.8327 11.3025C14.8013 11.3192 14.7663 11.328 14.7308 11.328Z" fill="white"/>
</svg>
