<svg width="20" height="20" viewBox="0 0 20 20" fill="none" xmlns="http://www.w3.org/2000/svg">
<rect width="20" height="20" rx="5" fill="#1B1F23"/>
<path d="M10.0837 8.50164C10.8276 8.50164 11.4343 9.10831 11.4343 9.86664C11.4343 10.5889 10.8276 11.2028 10.0837 11.2028C9.33982 11.2028 8.73316 10.5889 8.73316 9.86664C8.73316 9.10831 9.33982 8.50164 10.0837 8.50164ZM6.73982 15.6444C7.19482 15.9189 8.19149 15.5 9.33982 14.4166C8.96427 13.9905 8.59594 13.5283 8.24927 13.0444C7.66732 12.9883 7.08873 12.9015 6.51594 12.7844C6.1476 14.33 6.28482 15.3916 6.73982 15.6444ZM7.2526 11.4989L7.04316 11.1305C6.96371 11.34 6.88427 11.5494 6.83371 11.7516C7.02871 11.795 7.24538 11.8311 7.46927 11.8672L7.2526 11.4989ZM11.9759 10.95L12.5609 9.86664L11.9759 8.78331C11.7593 8.40053 11.5282 8.06108 11.3187 7.72164C10.9287 7.69997 10.517 7.69997 10.0837 7.69997C9.65038 7.69997 9.23871 7.69997 8.84871 7.72164C8.63927 8.06108 8.40816 8.40053 8.19149 8.78331L7.60649 9.86664L8.19149 10.95C8.40816 11.3328 8.63927 11.6722 8.84871 12.0116C9.23871 12.0333 9.65038 12.0333 10.0837 12.0333C10.517 12.0333 10.9287 12.0333 11.3187 12.0116C11.5282 11.6722 11.7593 11.3328 11.9759 10.95ZM10.0837 6.09664C9.94649 6.25553 9.80205 6.42164 9.6576 6.61664H10.5098C10.3654 6.42164 10.2209 6.25553 10.0837 6.09664ZM10.0837 13.6366C10.2209 13.4778 10.3654 13.3116 10.5098 13.1166H9.6576C9.80205 13.3116 9.94649 13.4778 10.0837 13.6366ZM13.4204 4.08886C12.9726 3.81442 11.9759 4.23331 10.8276 5.31664C11.2032 5.74275 11.5715 6.20497 11.9182 6.68886C12.5104 6.74664 13.0954 6.83331 13.6515 6.94886C14.0198 5.40331 13.8826 4.34164 13.4204 4.08886ZM12.9148 8.23442L13.1243 8.60275C13.2037 8.39331 13.2832 8.18386 13.3337 7.98164C13.1387 7.93831 12.922 7.9022 12.6982 7.86608L12.9148 8.23442ZM13.962 3.14275C15.0237 3.74942 15.1393 5.34553 14.6915 7.20886C16.5259 7.75053 17.8476 8.64608 17.8476 9.86664C17.8476 11.0872 16.5259 11.9828 14.6915 12.5244C15.1393 14.3878 15.0237 15.9839 13.962 16.5905C12.9076 17.1972 11.4704 16.5039 10.0837 15.1822C8.69705 16.5039 7.25982 17.1972 6.19816 16.5905C5.14371 15.9839 5.02816 14.3878 5.47594 12.5244C3.64149 11.9828 2.31982 11.0872 2.31982 9.86664C2.31982 8.64608 3.64149 7.75053 5.47594 7.20886C5.02816 5.34553 5.14371 3.74942 6.19816 3.14275C7.25982 2.53608 8.69705 3.22942 10.0837 4.55108C11.4704 3.22942 12.9076 2.53608 13.962 3.14275ZM13.7526 9.86664C13.9982 10.4083 14.2148 10.95 14.3954 11.4989C15.912 11.0439 16.7643 10.3939 16.7643 9.86664C16.7643 9.33942 15.912 8.68942 14.3954 8.23442C14.2148 8.78331 13.9982 9.32497 13.7526 9.86664ZM6.41482 9.86664C6.16927 9.32497 5.9526 8.78331 5.77205 8.23442C4.25538 8.68942 3.40316 9.33942 3.40316 9.86664C3.40316 10.3939 4.25538 11.0439 5.77205 11.4989C5.9526 10.95 6.16927 10.4083 6.41482 9.86664ZM12.9148 11.4989L12.6982 11.8672C12.922 11.8311 13.1387 11.795 13.3337 11.7516C13.2832 11.5494 13.2037 11.34 13.1243 11.1305L12.9148 11.4989ZM10.8276 14.4166C11.9759 15.5 12.9726 15.9189 13.4204 15.6444C13.8826 15.3916 14.0198 14.33 13.6515 12.7844C13.0954 12.9 12.5104 12.9866 11.9182 13.0444C11.5715 13.5283 11.2032 13.9905 10.8276 14.4166ZM7.2526 8.23442L7.46927 7.86608C7.24538 7.9022 7.02871 7.93831 6.83371 7.98164C6.88427 8.18386 6.96371 8.39331 7.04316 8.60275L7.2526 8.23442ZM9.33982 5.31664C8.19149 4.23331 7.19482 3.81442 6.73982 4.08886C6.28482 4.34164 6.1476 5.40331 6.51594 6.94886C7.08873 6.83175 7.66732 6.74497 8.24927 6.68886C8.59594 6.20497 8.96427 5.74275 9.33982 5.31664Z" fill="#61DBFB"/>
</svg>
