<svg width="20" height="20" viewBox="0 0 20 20" fill="none" xmlns="http://www.w3.org/2000/svg">
<path d="M15.3125 0H4.6875C2.09867 0 0 2.09867 0 4.6875V15.3125C0 17.9013 2.09867 20 4.6875 20H15.3125C17.9013 20 20 17.9013 20 15.3125V4.6875C20 2.09867 17.9013 0 15.3125 0Z" fill="#CD6799"/>
<mask id="mask0_219_928" style="mask-type:luminance" maskUnits="userSpaceOnUse" x="2" y="4" width="16" height="12">
<path d="M2.1875 4.14062H17.8125V15.8523H2.1875V4.14062Z" fill="white"/>
</mask>
<g mask="url(#mask0_219_928)">
<path d="M15.6331 10.8721C15.0883 10.8749 14.6148 11.0061 14.2183 11.2C14.0729 10.912 13.9274 10.6553 13.9017 10.467C13.8732 10.2474 13.839 10.1133 13.8732 9.85088C13.9074 9.58846 14.0615 9.21486 14.0586 9.18635C14.0557 9.15783 14.0244 9.02377 13.7106 9.02088C13.3969 9.01799 13.1259 9.0808 13.0945 9.16354C13.0631 9.24619 13.0033 9.43447 12.9633 9.62846C12.9091 9.91369 12.3358 10.932 12.0078 11.4653C11.9022 11.2571 11.811 11.0746 11.791 10.9291C11.7625 10.7095 11.7283 10.5754 11.7625 10.313C11.7967 10.0506 11.9508 9.6769 11.9479 9.64838C11.945 9.61986 11.9136 9.4858 11.5999 9.48299C11.2861 9.48018 11.0151 9.54283 10.9838 9.62557C10.9524 9.7083 10.9182 9.90229 10.8526 10.0905C10.787 10.2788 10.0254 11.9788 9.82576 12.418C9.74508 12.5957 9.66045 12.7717 9.57193 12.9456C9.57193 12.9456 9.56904 12.9542 9.56053 12.9685C9.53269 13.023 9.50414 13.0772 9.4749 13.131V13.1339C9.43217 13.211 9.38646 13.2822 9.36365 13.2822C9.34654 13.2822 9.31521 13.0769 9.36935 12.7974C9.48349 12.2069 9.75443 11.2885 9.75162 11.2571C9.75162 11.24 9.80295 11.0803 9.57474 10.9975C9.35224 10.9148 9.2724 11.0517 9.2524 11.0517C9.23248 11.0517 9.21818 11.1003 9.21818 11.1003C9.21818 11.1003 9.46638 10.0677 8.74474 10.0677C8.29404 10.0677 7.67224 10.5611 7.36428 11.0061C7.01406 11.1967 6.66414 11.3878 6.31451 11.5794C6.14631 11.6735 5.97232 11.7677 5.80967 11.8561C5.79826 11.8447 5.78685 11.8304 5.77545 11.819C4.90263 10.8863 3.28826 10.2274 3.3567 8.97526C3.3824 8.51885 3.53928 7.32088 6.45717 5.86619C8.85881 4.68252 10.7699 5.01049 11.1008 5.73783C11.5742 6.77611 10.0768 8.70424 7.59529 8.98377C6.64826 9.08932 6.15201 8.72424 6.02654 8.58736C5.89529 8.44471 5.87529 8.43619 5.82678 8.46471C5.74693 8.50744 5.79826 8.6358 5.82678 8.70994C5.90099 8.90393 6.20615 9.24619 6.7224 9.41447C7.17881 9.56283 8.28834 9.64557 9.63178 9.12643C11.135 8.54455 12.3101 6.92721 11.965 5.57244C11.6199 4.1976 9.33803 3.74408 7.17881 4.51135C5.89521 4.96776 4.50334 5.68651 3.50217 6.62205C2.31271 7.73455 2.12451 8.70143 2.20154 9.10643C2.47818 10.544 4.46053 11.4796 5.25349 12.1727C5.21357 12.1955 5.17646 12.2155 5.14513 12.2326C4.74865 12.4294 3.23693 13.2195 2.86037 14.0553C2.43256 15.0022 2.92888 15.681 3.25685 15.7723C4.27513 16.0547 5.32193 15.547 5.88388 14.7084C6.44584 13.8698 6.37732 12.7803 6.11771 12.2811C6.11488 12.2748 6.11103 12.269 6.10631 12.264C6.20904 12.2041 6.31451 12.1413 6.41724 12.0814C6.60601 11.9699 6.79715 11.8624 6.99053 11.7591C6.89357 12.0244 6.82224 12.341 6.78803 12.7974C6.74529 13.3336 6.9649 14.0296 7.25295 14.3034C7.38131 14.4231 7.53248 14.426 7.62951 14.426C7.96607 14.426 8.11724 14.1465 8.28553 13.8156C8.49084 13.4106 8.67631 12.9399 8.67631 12.9399C8.67631 12.9399 8.44521 14.2121 9.07271 14.2121C9.30092 14.2121 9.53193 13.9155 9.63467 13.7643V13.7671C9.63467 13.7671 9.64037 13.7586 9.65178 13.7386C9.67459 13.7015 9.68881 13.6787 9.68881 13.6787V13.673C9.78013 13.5133 9.98545 13.151 10.2907 12.5492C10.6843 11.7734 11.0637 10.8036 11.0637 10.8036C11.0637 10.8036 11.0979 11.0403 11.2148 11.4339C11.2833 11.665 11.4259 11.9188 11.54 12.1642C11.4487 12.2925 11.3917 12.3638 11.3917 12.3638L11.3945 12.3667C11.3204 12.4636 11.2405 12.5692 11.1521 12.6718C10.8412 13.0427 10.4704 13.4677 10.419 13.5903C10.3591 13.7358 10.3734 13.8413 10.4875 13.9269C10.5702 13.9896 10.7185 13.9981 10.8697 13.9896C11.1492 13.9696 11.3461 13.9012 11.443 13.8584C11.5942 13.8042 11.7711 13.7215 11.9365 13.5988C12.2417 13.3735 12.4271 13.0512 12.41 12.6262C12.4014 12.3923 12.3244 12.1585 12.2303 11.9388C12.2588 11.8988 12.2844 11.8589 12.3129 11.819C12.7951 11.1145 13.1687 10.3415 13.1687 10.3415C13.1687 10.3415 13.2029 10.5782 13.3198 10.9719C13.3769 11.1715 13.4938 11.3883 13.5965 11.5994C13.143 11.9674 12.8635 12.3952 12.7637 12.6747C12.584 13.1938 12.7237 13.4277 12.989 13.4819C13.1088 13.5076 13.2799 13.4506 13.4054 13.3963C13.5651 13.345 13.7534 13.2566 13.9331 13.1253C14.2383 12.9 14.5321 12.5863 14.515 12.1613C14.5064 11.9674 14.4551 11.7762 14.3837 11.5908C14.7688 11.4311 15.2651 11.3427 15.8983 11.4168C17.2561 11.5766 17.5242 12.4237 17.4728 12.7803C17.4215 13.1367 17.1362 13.3307 17.0421 13.3906C16.948 13.4506 16.9166 13.4705 16.9252 13.5133C16.9366 13.576 16.9822 13.5731 17.0621 13.5617C17.1733 13.5418 17.7751 13.2737 17.8008 12.6177C17.8437 11.7791 17.045 10.8635 15.6331 10.8721ZM5.15935 14.4032C4.70873 14.8938 4.08123 15.0792 3.81021 14.9224C3.51928 14.754 3.63334 14.0296 4.18678 13.5104C4.52326 13.1938 4.95685 12.9 5.2449 12.7203C5.31053 12.6804 5.40748 12.6234 5.52443 12.5521C5.54443 12.5406 5.55584 12.5349 5.55584 12.5349L5.62428 12.4921C5.82678 13.2338 5.63279 13.887 5.15935 14.4032ZM8.43959 12.1727C8.28271 12.5549 7.95474 13.5332 7.75506 13.4791C7.58396 13.4334 7.47842 12.6918 7.72084 11.9588C7.84349 11.5908 8.10303 11.1516 8.2542 10.9804C8.49951 10.7066 8.77045 10.6153 8.83607 10.7266C8.91881 10.8721 8.53662 11.9331 8.43959 12.1727ZM11.1465 13.4677C11.0808 13.5019 11.0181 13.5247 10.9896 13.5076C10.9696 13.4962 11.0181 13.4506 11.0181 13.4506C11.0181 13.4506 11.3576 13.0854 11.4916 12.92C11.5686 12.823 11.6599 12.7089 11.7569 12.5806V12.6177C11.7569 13.0541 11.3347 13.3478 11.1465 13.4677ZM13.2344 12.9913C13.1858 12.9571 13.1944 12.843 13.357 12.4864C13.4197 12.3467 13.5681 12.1128 13.8219 11.8874C13.8504 11.9788 13.8704 12.0671 13.8676 12.1499C13.8647 12.7004 13.4711 12.9057 13.2344 12.9913Z" fill="white"/>
</g>
</svg>
