<svg width="20" height="20" viewBox="0 0 20 20" fill="none" xmlns="http://www.w3.org/2000/svg">
<path d="M15.3125 0H4.6875C2.09867 0 0 2.09867 0 4.6875V15.3125C0 17.9013 2.09867 20 4.6875 20H15.3125C17.9013 20 20 17.9013 20 15.3125V4.6875C20 2.09867 17.9013 0 15.3125 0Z" fill="#007ACC"/>
<path d="M4.42283 10.0663L4.4165 10.8854H7.01963V18.2822H8.86096V10.8854H11.4641V10.0822C11.4641 9.63773 11.4546 9.26632 11.4419 9.25679C11.4324 9.24413 9.84822 9.23772 7.9276 9.24093L4.43236 9.25046L4.42283 10.0663ZM16.1381 9.22718C16.646 9.35421 17.0334 9.5796 17.3889 9.9478C17.5731 10.1447 17.846 10.5034 17.8683 10.5891C17.8746 10.6145 17.0048 11.1987 16.4778 11.5256C16.4588 11.5384 16.3825 11.4558 16.2968 11.3288C16.0397 10.9542 15.7699 10.7923 15.3571 10.7637C14.7508 10.7224 14.3603 11.0399 14.3635 11.5701C14.3635 11.7256 14.3857 11.8176 14.4492 11.9447C14.5825 12.2208 14.8302 12.3859 15.608 12.7224C17.0397 13.3384 17.6524 13.7447 18.0334 14.3224C18.4588 14.9669 18.554 15.9955 18.2651 16.7605C17.9477 17.5923 17.1603 18.1573 16.0524 18.3447C15.7095 18.405 14.8968 18.3955 14.5286 18.3288C13.7254 18.1859 12.9635 17.7891 12.4937 17.2685C12.3096 17.0653 11.9508 16.5351 11.9731 16.497C11.9825 16.4844 12.0651 16.4336 12.1571 16.3796C12.246 16.3288 12.5826 16.1351 12.9 15.951L13.4746 15.6176L13.5953 15.7955C13.7635 16.0526 14.1317 16.405 14.354 16.5224C14.992 16.859 15.8683 16.8113 16.3 16.4241C16.4842 16.2558 16.5603 16.0812 16.5603 15.8241C16.5603 15.5923 16.5317 15.4907 16.4111 15.3161C16.2556 15.0939 15.9381 14.9066 15.0365 14.5161C14.0048 14.0716 13.5603 13.7955 13.154 13.3573C12.9191 13.1034 12.6968 12.697 12.6048 12.3573C12.5286 12.0748 12.5096 11.3669 12.5699 11.0812C12.7825 10.0844 13.5349 9.38913 14.6206 9.18273C14.9731 9.11608 15.792 9.14148 16.1381 9.22718Z" fill="white"/>
</svg>
