<svg width="500" height="500" viewBox="0 0 500 500" fill="none" xmlns="http://www.w3.org/2000/svg">
<g filter="url(#filter0_i_404_631)">
<rect width="500" height="500" rx="140" fill="#1B1F23"/>
</g>
<g filter="url(#filter1_d_404_631)">
<g filter="url(#filter2_d_404_631)">
<mask id="mask0_404_631" style="mask-type:luminance" maskUnits="userSpaceOnUse" x="75" y="99" width="350" height="302">
<path d="M75 99H425V400.831H75V99Z" fill="white"/>
</mask>
<g mask="url(#mask0_404_631)">
<path fill-rule="evenodd" clip-rule="evenodd" d="M319.25 400.831L208.007 322.599L92.4893 296.836L75 199.574L187.404 99L395.941 145.509L425 306.454L319.25 400.831Z" fill="#F9EF76"/>
</g>
</g>
<path fill-rule="evenodd" clip-rule="evenodd" d="M319.462 328.856C317.841 328.897 316.227 328.614 314.717 328.022C313.206 327.43 311.83 326.541 310.668 325.409C309.506 324.276 308.583 322.923 307.953 321.428C307.322 319.933 306.998 318.327 306.998 316.705C306.998 315.083 307.322 313.477 307.953 311.982C308.583 310.487 309.506 309.134 310.668 308.002C311.83 306.869 313.206 305.981 314.717 305.389C316.227 304.797 317.841 304.513 319.462 304.554C322.631 304.635 325.643 305.951 327.856 308.221C330.069 310.491 331.307 313.535 331.307 316.705C331.307 319.875 330.069 322.92 327.856 325.19C325.643 327.46 322.631 328.775 319.462 328.856ZM307.316 191.502C307.316 188.28 308.595 185.191 310.873 182.913C313.151 180.635 316.241 179.355 319.462 179.355C322.684 179.355 325.774 180.635 328.052 182.913C330.33 185.191 331.609 188.28 331.609 191.502C331.609 194.724 330.33 197.813 328.052 200.091C325.774 202.369 322.684 203.649 319.462 203.649C316.241 203.649 313.151 202.369 310.873 200.091C308.595 197.813 307.316 194.724 307.316 191.502ZM263.383 253.88C261.761 253.922 260.147 253.638 258.637 253.046C257.127 252.454 255.75 251.565 254.588 250.433C253.427 249.301 252.504 247.947 251.873 246.452C251.243 244.958 250.918 243.352 250.918 241.729C250.918 240.107 251.243 238.501 251.873 237.007C252.504 235.512 253.427 234.158 254.588 233.026C255.75 231.893 257.127 231.005 258.637 230.413C260.147 229.821 261.761 229.537 263.383 229.579C266.552 229.659 269.564 230.975 271.776 233.245C273.989 235.515 275.228 238.559 275.228 241.729C275.228 244.899 273.989 247.944 271.776 250.214C269.564 252.484 266.552 253.799 263.383 253.88ZM149.84 228.433C146.617 228.433 143.525 227.152 141.246 224.873C138.966 222.593 137.686 219.502 137.686 216.278C137.686 213.054 138.966 209.963 141.246 207.683C143.525 205.404 146.617 204.123 149.84 204.123C153.064 204.123 156.156 205.404 158.435 207.683C160.715 209.963 161.995 213.054 161.995 216.278C161.995 219.502 160.715 222.593 158.435 224.873C156.156 227.152 153.064 228.433 149.84 228.433ZM324.109 295.798V212.413C328.869 211.354 333.125 208.706 336.179 204.906C339.233 201.105 340.902 196.378 340.911 191.502C340.905 185.815 338.643 180.363 334.622 176.342C330.601 172.321 325.149 170.059 319.462 170.053C313.776 170.059 308.324 172.321 304.303 176.342C300.282 180.363 298.02 185.815 298.014 191.502C298.014 195.311 299.096 198.844 300.843 201.934L275.838 224.331C272.216 221.702 267.858 220.284 263.383 220.277C254.848 220.277 247.514 225.327 244.068 232.566L171.281 216.309L171.289 216.278C171.283 210.591 169.021 205.139 165 201.118C160.979 197.097 155.527 194.835 149.84 194.829C144.152 194.833 138.698 197.094 134.676 201.115C130.653 205.137 128.39 210.59 128.384 216.278C128.39 221.966 130.653 227.419 134.676 231.44C138.698 235.462 144.152 237.722 149.84 237.727C153.908 237.716 157.889 236.548 161.317 234.359C164.746 232.171 167.481 229.052 169.203 225.366L241.95 241.607L241.934 241.726C241.938 247.414 244.199 252.867 248.22 256.89C252.242 260.913 257.695 263.176 263.383 263.182C269.071 263.176 274.524 260.913 278.545 256.89C282.566 252.867 284.827 247.414 284.831 241.726C284.807 238.062 283.832 234.468 282.002 231.294L307.007 208.896C309.315 210.556 311.955 211.781 314.815 212.413V295.79C310.055 296.849 305.797 299.498 302.743 303.301C299.689 307.103 298.021 311.832 298.014 316.709C298.022 322.394 300.285 327.844 304.306 331.864C308.326 335.883 313.777 338.144 319.462 338.15C325.148 338.144 330.598 335.883 334.619 331.864C338.64 327.844 340.903 322.394 340.911 316.709C340.902 311.834 339.233 307.106 336.179 303.306C333.125 299.505 328.869 296.857 324.109 295.798Z" fill="#020303"/>
</g>
<defs>
<filter id="filter0_i_404_631" x="0" y="0" width="500" height="500" filterUnits="userSpaceOnUse" color-interpolation-filters="sRGB">
<feFlood flood-opacity="0" result="BackgroundImageFix"/>
<feBlend mode="normal" in="SourceGraphic" in2="BackgroundImageFix" result="shape"/>
<feColorMatrix in="SourceAlpha" type="matrix" values="0 0 0 0 0 0 0 0 0 0 0 0 0 0 0 0 0 0 127 0" result="hardAlpha"/>
<feMorphology radius="20" operator="erode" in="SourceAlpha" result="effect1_innerShadow_404_631"/>
<feOffset/>
<feGaussianBlur stdDeviation="25"/>
<feComposite in2="hardAlpha" operator="arithmetic" k2="-1" k3="1"/>
<feColorMatrix type="matrix" values="0 0 0 0 0.976471 0 0 0 0 0.937255 0 0 0 0 0.462745 0 0 0 1 0"/>
<feBlend mode="normal" in2="shape" result="effect1_innerShadow_404_631"/>
</filter>
<filter id="filter1_d_404_631" x="70" y="96" width="360" height="311.831" filterUnits="userSpaceOnUse" color-interpolation-filters="sRGB">
<feFlood flood-opacity="0" result="BackgroundImageFix"/>
<feColorMatrix in="SourceAlpha" type="matrix" values="0 0 0 0 0 0 0 0 0 0 0 0 0 0 0 0 0 0 127 0" result="hardAlpha"/>
<feOffset dy="2"/>
<feGaussianBlur stdDeviation="2.5"/>
<feComposite in2="hardAlpha" operator="out"/>
<feColorMatrix type="matrix" values="0 0 0 0 0 0 0 0 0 0 0 0 0 0 0 0 0 0 0.7 0"/>
<feBlend mode="normal" in2="BackgroundImageFix" result="effect1_dropShadow_404_631"/>
<feBlend mode="normal" in="SourceGraphic" in2="effect1_dropShadow_404_631" result="shape"/>
</filter>
<filter id="filter2_d_404_631" x="35" y="79" width="410" height="361.831" filterUnits="userSpaceOnUse" color-interpolation-filters="sRGB">
<feFlood flood-opacity="0" result="BackgroundImageFix"/>
<feColorMatrix in="SourceAlpha" type="matrix" values="0 0 0 0 0 0 0 0 0 0 0 0 0 0 0 0 0 0 127 0" result="hardAlpha"/>
<feOffset dx="-10" dy="10"/>
<feGaussianBlur stdDeviation="15"/>
<feComposite in2="hardAlpha" operator="out"/>
<feColorMatrix type="matrix" values="0 0 0 0 0.545833 0 0 0 0 0.526042 0 0 0 0 0.286563 0 0 0 1 0"/>
<feBlend mode="normal" in2="BackgroundImageFix" result="effect1_dropShadow_404_631"/>
<feBlend mode="normal" in="SourceGraphic" in2="effect1_dropShadow_404_631" result="shape"/>
</filter>
</defs>
</svg>
