<svg width="500" height="500" viewBox="0 0 500 500" fill="none" xmlns="http://www.w3.org/2000/svg">
<rect width="500" height="500" fill="#1A1A24"/>
<path d="M77 414.5C70.125 414.5 64.2417 412.054 59.35 407.163C54.4583 402.271 52.0083 396.383 52 389.5V264.5C52 257.625 54.45 251.742 59.35 246.85C64.25 241.958 70.1333 239.508 77 239.5H277C283.875 239.5 289.763 241.95 294.663 246.85C299.563 251.75 302.008 257.633 302 264.5V389.5C302 396.375 299.554 402.263 294.663 407.163C289.771 412.063 283.883 414.508 277 414.5H77ZM127 377H227V352H127V377ZM89.5 339.5H114.5V314.5H89.5V339.5ZM127 339.5H152V314.5H127V339.5ZM164.5 339.5H189.5V314.5H164.5V339.5ZM202 339.5H227V314.5H202V339.5ZM239.5 339.5H264.5V314.5H239.5V339.5ZM89.5 302H114.5V277H89.5V302ZM127 302H152V277H127V302ZM164.5 302H189.5V277H164.5V302ZM202 302H227V277H202V302ZM239.5 302H264.5V277H239.5V302Z" fill="#22222C"/>
</svg>
