<svg width="500" height="500" viewBox="0 0 500 500" fill="none" xmlns="http://www.w3.org/2000/svg">
<rect width="500" height="500" fill="#1A1A24"/>
<path d="M268.953 134.644C260.853 99.4444 240.653 70.7444 237.953 66.0444C233.553 72.6444 217.453 97.9444 209.253 126.044C200.353 157.344 199.053 185.144 202.153 212.444C205.253 239.744 216.753 267.844 216.753 267.844C222.853 282.644 232.153 298.444 238.053 306.144C246.853 294.744 267.053 260.644 273.353 216.144C276.853 191.544 276.953 169.944 268.953 134.644ZM237.953 297.444C233.953 289.944 227.853 275.744 227.253 253.844C227.053 232.644 235.553 214.544 238.053 210.744C240.253 214.544 247.653 230.344 248.553 251.944C249.053 273.244 242.053 289.844 237.953 297.444ZM266.553 194.544C266.253 207.944 264.753 222.144 262.553 230.644C263.353 216.044 261.553 195.444 258.153 179.344C254.853 163.244 245.353 136.344 237.653 123.944C230.653 135.744 222.053 159.044 217.453 179.244C212.953 199.444 212.753 223.844 212.753 231.144C211.553 224.944 208.553 202.944 209.453 180.844C210.153 162.544 214.353 143.844 216.753 135.244C225.753 106.444 235.853 88.0444 237.653 85.0444C239.553 87.9444 252.353 110.644 258.953 134.444C265.653 158.244 266.953 181.044 266.553 194.544Z" fill="#22222C"/>
<path d="M251.553 314.445H190.353V355.545C190.453 355.445 190.553 355.445 190.553 355.345C204.953 340.945 228.353 340.945 242.853 355.345C257.253 369.745 257.253 393.145 242.853 407.545C242.753 407.645 242.753 407.645 242.653 407.745C242.553 407.845 242.453 407.845 242.353 407.945C228.053 422.245 209.153 429.345 190.353 429.345C171.453 429.345 152.553 422.145 138.153 407.745C112.753 382.345 109.753 343.045 129.153 314.445C131.753 310.545 134.753 306.845 138.153 303.445C152.553 289.045 171.453 281.845 190.353 281.845V183.145C117.853 183.145 58.9526 241.945 58.9526 314.545C58.9526 387.045 117.753 445.945 190.353 445.945C228.153 445.945 262.253 429.945 286.253 404.345V314.545L251.553 314.445Z" fill="#22222C"/>
</svg>
