<svg width="500" height="500" viewBox="0 0 500 500" fill="none" xmlns="http://www.w3.org/2000/svg">
<rect width="500" height="500" fill="#1A1A24"/>
<path d="M346 261.667V411.667C346.003 420.076 342.827 428.176 337.108 434.342C331.39 440.509 323.553 444.286 315.167 444.917L312.667 445H179.333V261.667H346Z" fill="#1B1B25"/>
<path fill-rule="evenodd" clip-rule="evenodd" d="M146 261.667V445H79.3333C70.9237 445.003 62.8239 441.827 56.6575 436.108C50.4912 430.39 46.7141 422.553 46.0833 414.167L46 411.667V261.667H146Z" fill="#25252F"/>
<path d="M312.667 145C321.507 145 329.986 148.512 336.237 154.763C342.488 161.014 346 169.493 346 178.333V228.333H46V178.333C46 169.493 49.5119 161.014 55.7631 154.763C62.0143 148.512 70.4928 145 79.3333 145H312.667Z" fill="#191922"/>
</svg>
