<svg width="500" height="500" viewBox="0 0 500 500" fill="none" xmlns="http://www.w3.org/2000/svg">
<rect width="500" height="500" fill="#1A1A24"/>
<mask id="mask0_285_490" style="mask-type:luminance" maskUnits="userSpaceOnUse" x="27" y="162" width="300" height="259">
<path d="M27 162H327V420.712H27V162Z" fill="white"/>
</mask>
<g mask="url(#mask0_285_490)">
<path fill-rule="evenodd" clip-rule="evenodd" d="M236.357 420.712L141.006 353.657L41.9909 331.573L27 248.206L123.347 162L302.092 201.865L327 339.817L236.357 420.712Z" fill="#22222C"/>
</g>
<path fill-rule="evenodd" clip-rule="evenodd" d="M236.542 359.022C235.152 359.057 233.769 358.814 232.474 358.307C231.18 357.799 230 357.038 229.004 356.067C228.008 355.097 227.217 353.936 226.677 352.655C226.136 351.374 225.858 349.997 225.858 348.607C225.858 347.216 226.136 345.84 226.677 344.559C227.217 343.277 228.008 342.117 229.004 341.147C230 340.176 231.18 339.415 232.474 338.907C233.769 338.4 235.152 338.156 236.542 338.192C239.258 338.261 241.84 339.389 243.737 341.335C245.633 343.28 246.695 345.89 246.695 348.607C246.695 351.324 245.633 353.934 243.737 355.879C241.84 357.825 239.258 358.953 236.542 359.022ZM226.13 241.29C226.13 238.529 227.227 235.88 229.18 233.928C231.132 231.975 233.781 230.878 236.542 230.878C239.303 230.878 241.952 231.975 243.904 233.928C245.857 235.88 246.954 238.529 246.954 241.29C246.954 244.051 245.857 246.699 243.904 248.652C241.952 250.605 239.303 251.702 236.542 251.702C233.781 251.702 231.132 250.605 229.18 248.652C227.227 246.699 226.13 244.051 226.13 241.29ZM188.474 294.757C187.084 294.793 185.7 294.549 184.406 294.042C183.111 293.534 181.931 292.773 180.936 291.802C179.94 290.832 179.149 289.672 178.608 288.39C178.068 287.109 177.79 285.733 177.79 284.342C177.79 282.952 178.068 281.575 178.608 280.294C179.149 279.013 179.94 277.852 180.936 276.882C181.931 275.911 183.111 275.15 184.406 274.642C185.7 274.135 187.084 273.892 188.474 273.927C191.19 273.996 193.772 275.124 195.668 277.07C197.565 279.015 198.626 281.625 198.626 284.342C198.626 287.059 197.565 289.669 195.668 291.614C193.772 293.56 191.19 294.688 188.474 294.757ZM91.1517 272.945C88.3885 272.945 85.7386 271.847 83.7847 269.893C81.8309 267.939 80.7332 265.29 80.7332 262.526C80.7332 259.763 81.8309 257.113 83.7847 255.159C85.7386 253.206 88.3885 252.108 91.1517 252.108C93.9148 252.108 96.5648 253.206 98.5186 255.159C100.472 257.113 101.57 259.763 101.57 262.526C101.57 265.29 100.472 267.939 98.5186 269.893C96.5648 271.847 93.9148 272.945 91.1517 272.945ZM240.525 330.686V259.214C244.604 258.306 248.253 256.036 250.871 252.779C253.488 249.521 254.919 245.469 254.927 241.29C254.921 236.416 252.983 231.743 249.536 228.296C246.089 224.849 241.416 222.911 236.542 222.905C231.668 222.911 226.995 224.849 223.548 228.296C220.101 231.743 218.163 236.416 218.157 241.29C218.157 244.555 219.085 247.583 220.582 250.232L199.149 269.429C196.045 267.176 192.309 265.96 188.474 265.954C181.158 265.954 174.871 270.283 171.918 276.488L109.53 262.553L109.536 262.526C109.531 257.652 107.592 252.979 104.146 249.532C100.699 246.086 96.0259 244.147 91.1517 244.142C86.2762 244.145 81.6014 246.083 78.1533 249.53C74.7052 252.977 72.7656 257.651 72.7603 262.526C72.7656 267.402 74.7052 272.076 78.1533 275.523C81.6014 278.97 86.2762 280.907 91.1517 280.911C94.6382 280.902 98.0502 279.901 100.989 278.025C103.928 276.149 106.272 273.475 107.748 270.316L170.103 284.237L170.089 284.339C170.093 289.214 172.031 293.889 175.477 297.337C178.924 300.785 183.598 302.725 188.474 302.73C193.349 302.725 198.023 300.785 201.47 297.337C204.917 293.889 206.855 289.214 206.858 284.339C206.837 281.199 206.001 278.118 204.433 275.397L225.866 256.199C227.844 257.622 230.107 258.672 232.559 259.214V330.68C228.478 331.588 224.829 333.858 222.211 337.117C219.593 340.377 218.164 344.43 218.157 348.61C218.164 353.483 220.104 358.155 223.55 361.6C226.997 365.045 231.669 366.983 236.542 366.988C241.415 366.983 246.087 365.045 249.534 361.6C252.98 358.155 254.919 353.483 254.927 348.61C254.919 344.431 253.488 340.379 250.871 337.122C248.253 333.864 244.604 331.594 240.525 330.686Z" fill="#1B1B25"/>
</svg>
