<svg width="500" height="500" viewBox="0 0 500 500" fill="none" xmlns="http://www.w3.org/2000/svg">
<rect width="500" height="500" fill="#1A1A24"/>
<g opacity="0.05">
<path d="M189.547 141L322.523 217.774V371.321L189.547 448.094L56.5714 371.321V217.774L189.547 141Z" fill="black"/>
<path d="M189.548 219.742L322.523 296.516V371.321L189.547 448.094L56.5718 371.321V296.516L189.548 219.742Z" fill="#353535"/>
<path d="M189.548 243.365L322.523 320.138V369.352L189.548 450.063L56.5718 369.352V320.138L189.548 243.365Z" fill="#707070"/>
<path d="M188.661 266.987L321.637 343.761V371.321L188.661 452.031L55.6855 371.321V343.761L188.661 266.987Z" fill="#ACACAD"/>
<path d="M188.661 286.673L321.637 363.447V373.289L188.661 454L55.6855 373.289V363.447L188.661 286.673Z" fill="#DFDFDF"/>
<path d="M188.661 314.233L301.755 383.132L188.661 454L73.4023 383.132L188.661 314.233Z" fill="white"/>
</g>
</svg>
