<svg width="500" height="500" viewBox="0 0 500 500" fill="none" xmlns="http://www.w3.org/2000/svg">
<rect width="500" height="500" fill="#1A1A24"/>
<path d="M42.23 237.223C43.25 236.543 51.75 229.907 70.11 229.907C74.87 229.907 79.63 230.417 84.39 231.268C87.96 207.446 107.85 195.365 108.7 194.855L113.63 191.962L116.69 196.556C120.77 202.682 124 209.658 125.36 216.805C128.76 230.417 126.72 243.349 119.75 254.409C128.08 259.173 141.68 260.364 144.57 260.364H368.46C374.24 260.364 379 265.128 379 271.084C379 290.651 375.94 310.219 369.14 328.596C361.49 348.844 349.93 363.817 335.14 373.006C318.48 383.215 291.11 389 260 389C246.57 389 232.63 387.809 218.86 385.257C199.82 381.854 181.46 375.218 164.63 365.519C150.692 357.541 138.216 347.241 127.74 335.061C109.89 315.153 99.35 292.523 91.7 272.955H88.47C69.09 272.955 57.02 265.128 50.39 258.492C45.97 254.409 42.74 249.474 40.36 243.689L39 239.605L42.23 237.223ZM347.55 254.068H317.63C316.27 254.068 314.91 252.877 314.91 251.346V224.462C314.91 223.1 316.1 221.739 317.63 221.739H347.55C349.08 221.739 350.27 222.93 350.27 224.462V251.346C350.1 252.877 349.08 254.068 347.55 254.068ZM306.24 254.068H276.32C274.96 254.068 273.6 252.877 273.6 251.346V224.462C273.6 223.1 274.79 221.739 276.32 221.739H306.24C307.77 221.739 308.96 222.93 308.96 224.462V251.346C308.79 252.877 307.77 254.068 306.24 254.068ZM264.25 254.068H234.5C232.8 254.068 231.61 252.877 231.61 251.346V224.462C231.61 223.1 232.63 221.739 234.5 221.739H264.25C265.61 221.739 266.8 222.93 266.8 224.462V251.346C266.8 252.877 265.78 254.068 264.25 254.068ZM222.77 254.068H192.68C191.32 254.068 190.13 252.877 190.13 251.346V224.462C190.13 223.1 191.15 221.739 192.68 221.739H222.77C224.13 221.739 225.32 222.93 225.32 224.462V251.346C225.32 252.877 224.13 254.068 222.77 254.068ZM306.24 215.954H276.32C274.96 215.954 273.6 214.423 273.6 212.891V186.177C273.6 184.646 274.79 183.455 276.32 183.455H306.24C307.77 183.455 308.96 184.476 308.96 186.177V212.891C308.79 214.423 307.77 215.954 306.24 215.954ZM264.25 215.954H234.5C232.8 215.954 231.61 214.423 231.61 212.891V186.177C231.61 184.646 232.63 183.455 234.5 183.455H264.25C265.61 183.455 266.8 184.476 266.8 186.177V212.891C266.8 214.423 265.78 215.954 264.25 215.954ZM222.77 215.954H192.68C191.32 215.954 190.13 214.423 190.13 212.891V186.177C190.13 184.646 191.32 183.455 192.68 183.455H222.77C224.13 183.455 225.32 184.476 225.32 186.177V212.891C225.32 214.423 224.13 215.954 222.77 215.954ZM222.77 177.159H192.68C191.32 177.159 190.13 175.968 190.13 174.437V147.893C190.13 146.191 191.32 145 192.68 145H222.77C224.13 145 225.32 146.021 225.32 147.893V174.437C225.32 175.798 224.13 177.159 222.77 177.159ZM180.95 254.068H151.03C149.5 254.068 148.31 252.877 148.31 251.346V224.462C148.31 223.1 149.5 221.739 151.03 221.739H180.95C182.31 221.739 183.5 222.93 183.5 224.462V251.346C183.5 252.877 182.31 254.068 180.95 254.068Z" fill="#22222C"/>
</svg>
