<svg width="500" height="500" viewBox="0 0 500 500" fill="none" xmlns="http://www.w3.org/2000/svg">
<rect width="500" height="500" fill="#1A1A24"/>
<path d="M285.189 115C270.866 115.134 256.623 117.159 242.83 121.021L241.854 121.314C233.169 119.825 224.383 119.003 215.573 118.857C197.461 118.547 181.888 122.811 169.358 129.922C156.991 125.756 131.344 118.58 104.315 120.012C85.4873 121.005 64.9508 126.554 49.7356 142.143C34.553 157.732 26.5304 181.849 28.2228 214.671C28.6785 223.735 31.331 238.495 35.7572 257.631C40.1509 276.752 46.3672 299.127 54.0968 319.549C61.8264 339.972 70.3046 358.344 83.5508 370.809C90.1576 377.058 99.2542 382.314 109.978 381.874C117.512 381.581 124.331 378.376 130.205 373.64C133.069 377.302 136.129 378.896 138.911 380.377C142.41 382.232 145.827 383.502 149.359 384.348C159.137 386.855 169.322 387.359 179.301 385.829C183.646 385.129 188.218 383.762 192.775 381.809C192.937 386.724 193.133 391.54 193.344 396.422C193.963 411.882 194.369 426.153 199.154 438.667C199.919 440.717 202.018 451.245 210.333 460.537C218.632 469.845 234.905 475.638 253.424 471.798C266.491 469.08 283.122 464.182 294.155 448.951C305.058 433.882 309.989 412.272 310.965 377.204C311.209 375.316 311.502 373.705 311.811 372.192L314.415 372.42H314.708C328.654 373.038 343.788 371.118 356.432 365.423C367.627 360.378 376.089 355.301 382.257 346.269C383.803 344.04 385.495 341.339 385.951 336.668C386.406 332.031 383.672 324.74 379.1 321.388C369.938 314.651 364.194 317.206 358.026 318.459C351.951 319.761 345.789 320.482 339.54 320.623C357.327 291.593 370.068 260.739 377.342 233.434C381.638 217.324 384.063 202.466 384.258 189.481C384.454 176.495 383.363 164.99 375.341 155.031C350.264 123.95 315.001 115.358 287.727 115.065C286.881 115.043 286.035 115.038 285.189 115.049V115ZM284.473 124.552C310.265 124.308 343.234 131.338 366.895 160.678C372.216 167.268 373.795 176.902 373.616 188.781C373.421 200.644 371.159 214.834 367.025 230.391C359.003 260.528 343.836 295.645 322.47 327.181C323.229 327.707 324.048 328.139 324.911 328.467C329.37 330.257 339.524 331.787 359.816 327.751C364.91 326.693 368.653 325.994 372.526 328.858C373.452 329.627 374.189 330.6 374.677 331.701C375.165 332.802 375.393 334.001 375.341 335.204C375.126 337.021 374.435 338.75 373.339 340.216C369.434 345.928 361.688 351.347 351.761 355.805C342.99 359.776 330.395 361.843 319.232 361.973C313.634 362.022 308.475 361.598 304.098 360.28L303.805 360.183C302.113 375.984 298.223 407.211 295.701 421.45C293.667 432.939 290.119 442.068 283.334 448.902C276.564 455.737 266.996 459.854 254.107 462.539C238.144 465.858 226.509 462.278 219.007 456.144C211.521 450.041 208.088 441.921 206.021 436.942C204.605 433.524 203.873 429.082 203.157 423.142C202.37 416.031 201.843 408.893 201.578 401.744C201.111 389.208 200.959 376.663 201.123 364.121C194.451 370.028 186.152 373.966 177.25 375.447C166.673 377.188 157.202 375.479 151.555 374.112C148.787 373.43 146.11 372.419 143.582 371.102C140.945 369.751 138.456 368.221 136.796 365.195C135.818 363.467 135.505 361.441 135.917 359.499C136.45 357.526 137.631 355.79 139.269 354.569C142.329 352.16 146.348 350.826 152.418 349.589C163.483 347.392 167.34 345.879 169.683 344.073C171.685 342.527 173.947 339.402 177.95 334.797L177.901 334.195C170.767 333.986 163.773 332.161 157.446 328.858C155.152 331.201 143.37 343.292 129.001 360.053C122.964 367.066 116.292 371.085 109.246 371.378C102.2 371.671 95.8369 368.221 90.4342 363.144C79.6127 352.958 70.9881 335.432 63.47 315.628C55.9845 295.807 49.8658 273.741 45.5372 254.946C41.1761 236.151 38.605 221.001 38.247 213.695C36.6197 182.63 44.1052 161.703 56.9608 148.506C69.8164 135.308 87.4238 130.296 104.608 129.353C135.429 127.628 164.704 138.059 170.627 140.304C182.035 132.786 196.729 128.1 215.101 128.393C223.809 128.514 232.477 129.605 240.943 131.647L241.252 131.517C244.984 130.248 248.77 129.184 252.61 128.327C263.065 125.968 273.739 124.713 284.456 124.585L284.473 124.552ZM286.8 134.544H284.57C275.766 134.662 266.993 135.621 258.371 137.408C275.486 144.862 290.523 156.38 302.178 170.962C309.238 179.686 315.095 189.319 319.59 199.602C321.282 203.54 322.421 206.876 323.056 209.447C323.381 210.749 323.609 211.84 323.674 212.979C323.734 213.7 323.674 214.426 323.495 215.127L323.398 215.322C323.869 228.389 320.534 237.241 320.127 249.706C319.817 258.754 322.193 269.38 322.779 280.95C323.332 291.853 321.982 303.814 314.692 315.563C315.299 316.279 315.885 316.995 316.449 317.711C335.732 288.257 349.646 255.646 357.05 227.868C361.004 212.897 363.12 199.342 363.299 188.602C363.461 177.862 361.395 170.067 358.759 166.829C338.125 141.232 310.216 134.723 286.8 134.544ZM213.165 138.352C194.988 138.384 181.937 143.722 172.059 151.695C161.856 159.946 155.022 171.223 150.53 182.793C146.183 194.355 143.525 206.484 142.638 218.804L142.849 218.69C148.333 215.696 155.542 212.718 163.256 210.993C170.985 209.268 179.301 208.731 186.835 211.563C194.369 214.394 200.602 221.066 202.864 231.188C213.685 279.779 199.495 297.842 194.256 311.462C192.29 316.405 190.595 321.452 189.178 326.579C189.829 326.395 190.486 326.265 191.147 326.189C194.006 326.034 196.858 326.593 199.447 327.816C204.719 329.932 208.332 334.358 210.284 339.435C210.794 340.78 211.158 342.19 211.375 343.666C211.592 344.284 211.695 344.919 211.684 345.57C211.099 364.15 211.164 382.745 211.879 401.32C212.237 409.359 212.758 416.422 213.425 422.003C214.076 427.568 215.02 431.799 215.622 433.231C217.575 438.016 220.455 444.264 225.662 448.512C230.87 452.759 238.306 455.574 251.927 452.743C263.741 450.285 271.031 446.884 275.913 441.954C280.762 437.056 283.675 430.237 285.53 419.774C288.313 404.103 293.911 358.686 294.578 350.126C294.285 343.698 295.262 338.735 297.377 334.96C299.574 331.087 302.959 328.711 305.872 327.426C307.336 326.775 308.703 326.351 309.826 326.042C308.629 324.387 307.381 322.77 306.083 321.193C301.875 316.27 298.425 310.747 295.847 304.806C294.606 302.362 293.287 299.958 291.893 297.597C289.859 294.017 287.272 289.542 284.57 284.514C279.151 274.441 273.261 262.237 270.201 250.341C267.158 238.478 266.703 226.192 274.514 217.519C281.446 209.822 293.586 206.632 311.827 208.422C311.29 206.86 310.965 205.558 310.054 203.475C305.937 194.021 300.556 185.169 294.057 177.162C278.598 157.993 253.587 138.986 214.922 138.368H213.165V138.352ZM111.036 139.116C109.083 139.116 107.13 139.171 105.178 139.279C89.6532 140.142 74.975 144.519 64.4789 155.324C53.9503 166.113 47.0343 183.818 48.5315 213.141C48.8406 218.674 51.3304 234.231 55.5939 252.684C59.8574 271.17 65.9109 292.895 73.1687 312.08C80.4264 331.282 89.2463 347.994 97.6106 355.903C101.825 359.857 105.487 361.452 108.806 361.322C112.142 361.159 116.145 359.304 121.06 353.592C130.01 343.119 139.29 332.932 148.887 323.048C142.106 317.362 136.886 310.043 133.72 301.78C130.58 293.595 129.626 284.734 130.954 276.068C132.532 265.035 132.744 254.719 132.565 246.582C132.37 238.641 131.784 233.369 131.784 230.065V229.61C131.767 212.411 134.848 195.351 140.88 179.245C145.176 168.147 151.588 156.87 161.205 147.741C151.767 144.73 135.006 140.142 116.861 139.279C114.91 139.175 112.957 139.12 111.003 139.116H111.036ZM301.657 217.909C291.226 218.04 285.368 220.659 282.292 224.077C277.931 228.926 277.524 237.42 280.225 247.9C282.927 258.38 288.476 270.113 293.716 279.844C296.319 284.726 298.858 289.119 300.908 292.667C302.975 296.247 304.488 298.785 305.4 300.966C306.268 302.929 307.179 304.725 308.134 306.352C312.169 298.069 312.902 289.949 312.478 281.471C311.941 270.991 309.435 260.268 309.81 249.414C310.216 236.721 312.804 228.438 313.032 218.625C309.257 218.165 305.459 217.926 301.657 217.909ZM175.054 219.618C171.866 219.642 168.69 220.013 165.583 220.725C159.405 222.181 153.442 224.435 147.845 227.429C145.968 228.405 144.178 229.539 142.475 230.83L142.15 231.123C142.247 233.303 142.687 238.592 142.882 246.354C143.045 254.865 142.849 265.719 141.157 277.435C137.479 302.951 156.551 324.073 178.975 324.106C180.277 318.866 182.441 313.561 184.589 307.963C190.838 291.642 203.124 279.746 192.775 233.287C191.082 225.688 187.73 222.612 183.109 220.871C180.521 219.972 177.792 219.548 175.054 219.618ZM296.775 222.661H297.556C298.576 222.694 299.498 222.802 300.323 222.986C301.071 223.137 301.787 223.418 302.438 223.816C302.734 223.991 302.99 224.226 303.19 224.507C303.389 224.787 303.526 225.106 303.593 225.444V225.574C303.636 226.289 303.442 226.998 303.04 227.592C302.586 228.412 302.016 229.163 301.348 229.821C299.771 231.495 297.691 232.609 295.424 232.994C293.202 233.257 290.96 232.708 289.11 231.448C288.366 230.957 287.693 230.365 287.109 229.691C286.615 229.164 286.277 228.511 286.133 227.803C286.097 227.455 286.137 227.104 286.249 226.772C286.362 226.441 286.544 226.138 286.783 225.883C287.304 225.337 287.915 224.885 288.59 224.549C291.167 223.365 293.956 222.712 296.791 222.628L296.775 222.661ZM176.551 225.167C177.364 225.167 178.216 225.232 179.105 225.362C181.449 225.688 183.548 226.29 185.143 227.185C185.924 227.586 186.607 228.112 187.193 228.763C187.497 229.121 187.725 229.517 187.877 229.951C188.028 230.385 188.077 230.835 188.023 231.302C187.875 232.165 187.473 232.964 186.868 233.596C186.238 234.354 185.497 235.013 184.671 235.549C182.65 236.925 180.198 237.521 177.771 237.225C175.309 236.828 173.045 235.633 171.327 233.824C170.613 233.096 170 232.275 169.504 231.383C168.998 230.603 168.774 229.673 168.87 228.747C169.098 227.12 170.481 226.306 171.799 225.818C173.323 225.335 174.922 225.136 176.518 225.232L176.551 225.167ZM315.847 334.716H315.798C313.536 335.529 311.681 335.855 310.103 336.506C308.53 337.089 307.227 338.23 306.441 339.711C305.465 341.42 304.651 344.463 304.895 349.638C305.596 350.101 306.365 350.452 307.173 350.679C309.793 351.46 314.203 351.981 319.134 351.9C328.93 351.786 341.005 349.573 347.416 346.676C352.673 344.3 357.554 341.209 361.916 337.498C340.484 341.794 328.393 340.655 320.957 337.677C319.122 336.929 317.402 335.943 315.847 334.716ZM192.368 336.099H192.042C191.229 336.164 190.041 336.424 187.763 338.898C182.393 344.724 180.537 348.369 176.111 351.786C171.718 355.203 165.973 357.009 154.517 359.288C150.888 360.004 148.822 360.801 147.422 361.436C147.878 361.794 147.829 361.891 148.496 362.233C150.172 363.128 152.336 363.909 154.061 364.349C158.992 365.536 167.08 366.936 175.525 365.536C183.971 364.137 192.742 360.215 200.228 350.028C201.53 348.271 201.66 345.667 200.602 342.868C199.512 340.102 197.168 337.694 195.509 337.01C194.518 336.543 193.457 336.246 192.368 336.131V336.099Z" fill="#22222C"/>
</svg>
