<svg width="500" height="500" viewBox="0 0 500 500" fill="none" xmlns="http://www.w3.org/2000/svg">
<rect width="500" height="500" fill="#1A1A24"/>
<path d="M250 206.576C273.953 206.576 293.488 226.098 293.488 250.5C293.488 273.74 273.953 293.494 250 293.494C226.047 293.494 206.512 273.74 206.512 250.5C206.512 226.098 226.047 206.576 250 206.576ZM142.326 436.42C156.977 445.251 189.07 431.772 226.047 396.912C213.953 383.201 202.093 368.327 190.93 352.756C172.191 350.951 153.561 348.158 135.116 344.39C123.256 394.123 127.674 428.286 142.326 436.42ZM158.837 303.022L152.093 291.17C149.535 297.91 146.977 304.649 145.349 311.156C151.628 312.551 158.605 313.713 165.814 314.875L158.837 303.022ZM310.93 285.36L329.767 250.5L310.93 215.64C303.953 203.323 296.512 192.4 289.767 181.477C277.209 180.78 263.953 180.78 250 180.78C236.047 180.78 222.791 180.78 210.233 181.477C203.488 192.4 196.047 203.323 189.07 215.64L170.233 250.5L189.07 285.36C196.047 297.677 203.488 308.6 210.233 319.523C222.791 320.22 236.047 320.22 250 320.22C263.953 320.22 277.209 320.22 289.767 319.523C296.512 308.6 303.953 297.677 310.93 285.36ZM250 129.187C245.581 134.3 240.93 139.645 236.279 145.92H263.721C259.07 139.645 254.419 134.3 250 129.187ZM250 371.813C254.419 366.7 259.07 361.355 263.721 355.08H236.279C240.93 361.355 245.581 366.7 250 371.813ZM357.442 64.5799C343.023 55.7487 310.93 69.2279 273.953 104.088C286.046 117.8 297.907 132.673 309.07 148.244C328.14 150.103 346.977 152.892 364.884 156.61C376.744 106.877 372.326 72.7139 357.442 64.5799ZM341.163 197.978L347.907 209.83C350.465 203.09 353.023 196.351 354.651 189.844C348.372 188.449 341.395 187.287 334.186 186.125L341.163 197.978ZM374.884 34.1355C409.07 53.6571 412.791 105.018 398.372 164.977C457.442 182.407 500 211.224 500 250.5C500 289.776 457.442 318.593 398.372 336.023C412.791 395.983 409.07 447.343 374.884 466.865C340.93 486.386 294.651 464.076 250 421.547C205.349 464.076 159.07 486.386 124.884 466.865C90.9302 447.343 87.2093 395.983 101.628 336.023C42.5581 318.593 0 289.776 0 250.5C0 211.224 42.5581 182.407 101.628 164.977C87.2093 105.018 90.9302 53.6571 124.884 34.1355C159.07 14.6138 205.349 36.9242 250 79.4535C294.651 36.9242 340.93 14.6138 374.884 34.1355ZM368.14 250.5C376.047 267.93 383.023 285.36 388.837 303.022C437.674 288.381 465.116 267.465 465.116 250.5C465.116 233.535 437.674 212.619 388.837 197.978C383.023 215.64 376.047 233.07 368.14 250.5ZM131.86 250.5C123.953 233.07 116.977 215.64 111.163 197.978C62.3256 212.619 34.8837 233.535 34.8837 250.5C34.8837 267.465 62.3256 288.381 111.163 303.022C116.977 285.36 123.953 267.93 131.86 250.5ZM341.163 303.022L334.186 314.875C341.395 313.713 348.372 312.551 354.651 311.156C353.023 304.649 350.465 297.91 347.907 291.17L341.163 303.022ZM273.953 396.912C310.93 431.772 343.023 445.251 357.442 436.42C372.326 428.286 376.744 394.123 364.884 344.39C346.977 348.108 328.14 350.897 309.07 352.756C297.907 368.327 286.046 383.201 273.953 396.912ZM158.837 197.978L165.814 186.125C158.605 187.287 151.628 188.449 145.349 189.844C146.977 196.351 149.535 203.09 152.093 209.83L158.837 197.978ZM226.047 104.088C189.07 69.2279 156.977 55.7487 142.326 64.5799C127.674 72.7139 123.256 106.877 135.116 156.61C153.561 152.842 172.191 150.049 190.93 148.244C202.093 132.673 213.953 117.8 226.047 104.088Z" fill="#22222C"/>
</svg>
