<svg width="500" height="500" viewBox="0 0 500 500" fill="none" xmlns="http://www.w3.org/2000/svg">
<rect width="500" height="500" fill="#1A1A24"/>
<mask id="mask0_277_738" style="mask-type:alpha" maskUnits="userSpaceOnUse" x="0" y="0" width="500" height="500">
<rect width="500" height="500" fill="#1A1A24"/>
</mask>
<g mask="url(#mask0_277_738)">
<path fill-rule="evenodd" clip-rule="evenodd" d="M5.00928 201.766C5.00928 204.655 5.85992 206.562 6.33661 208.415C9.44329 220.468 16.121 230.811 24.0439 240.246C35.3282 253.692 49.1481 264.516 63.3049 274.695C75.5837 283.522 88.1132 292.152 100.441 300.913C102.558 302.417 104.559 304.147 106.856 305.992C104.879 307.061 103.236 308.002 101.526 308.869C85.2572 317.12 69.6045 326.371 55.1765 337.577C46.4811 344.333 38.0733 351.512 32.1353 360.893C22.581 375.983 19.199 392.059 26.3205 409.224C28.3998 414.237 31.5723 418.568 36.0474 421.77C37.498 422.805 39.1253 423.833 40.8225 424.235C45.1702 425.259 49.6001 425.928 54.0012 426.738L66.465 426.73C80.2478 425.501 92.7937 420.779 104.132 412.955C121.851 400.726 133.789 384.329 138.921 363.285C142.653 347.99 142.805 332.678 138.408 317.453C137.985 316.043 137.5 314.653 136.953 313.286C136.419 311.918 135.79 310.586 135.05 308.881L163.307 292.633L163.73 292.994C163.216 294.675 162.67 296.352 162.205 298.049C158.848 310.311 156.616 322.787 157.418 335.514C158.273 349.075 162.057 361.769 169.997 373.098C176.415 382.262 191.711 382.603 198.532 373.406C200.952 370.14 203.299 366.725 205.062 363.08C209.668 353.566 213.934 343.885 218.335 334.269L219.104 332.51C218.787 337.063 218.417 341.062 218.249 345.064C217.986 351.314 218.352 357.528 220.488 363.474C222.317 368.561 225.428 372.363 231.255 373.032C235.241 373.489 238.418 371.664 241.348 369.35C245.886 365.762 249.648 361.29 252.406 356.205C260.218 341.859 268.239 327.599 275.32 312.892C282.98 296.984 289.678 280.613 296.791 264.434L297.967 261.566C299.647 268.169 300.818 274.638 302.976 280.761C305.483 287.866 308.585 294.802 311.963 301.546C313.562 304.731 313.377 306.798 311.162 309.469C301.891 320.646 292.781 331.959 283.662 343.26C281.644 345.754 279.635 348.294 277.954 351.019C276.934 352.739 276.264 354.644 275.981 356.624C275.699 358.447 276.132 360.308 277.192 361.818C278.251 363.328 279.854 364.369 281.665 364.723C285.319 365.508 289.065 365.775 292.793 365.516C305.52 364.579 317.075 360.113 327.291 352.543C340.527 342.738 344.777 329.358 341.571 313.5C340.704 309.197 339.171 305.014 337.68 300.868C337.01 298.998 336.965 297.687 338.185 295.945C348.767 280.835 357.807 264.804 366.215 248.403C366.548 247.758 366.889 247.113 367.473 246.423C370.197 260.6 374.298 274.264 381.646 286.662C377.898 290.274 374.187 293.549 370.83 297.157C363.437 305.105 357.027 313.734 353.682 324.258C352.243 328.795 351.138 333.406 351.779 338.251C352.773 345.775 358.937 350.665 366.338 348.952C382.176 345.286 395.848 337.823 405.838 324.603C412.561 315.703 413.173 305.774 410.358 295.374C409.585 292.546 408.669 289.764 407.683 286.522C411.591 285.31 415.4 283.855 419.341 282.955C439.802 278.287 460.04 279.1 479.757 286.489C491.268 290.804 500.567 298.024 506.082 309.382C512.817 323.268 509.094 336.443 496.006 345.22C494.785 346.038 493.388 346.683 492.377 347.706C492.053 348.082 491.811 348.521 491.666 348.995C491.521 349.468 491.476 349.967 491.535 350.46C491.621 350.965 492.956 351.598 493.725 351.59C498.027 351.557 501.516 349.301 504.865 346.983C513.257 341.177 519.38 333.365 520.699 323.079L520.958 322.306L520.641 315.608C520.514 315.222 520.736 314.84 520.707 314.548C518.924 299.569 510.923 287.952 499.285 278.846C485.806 268.305 469.891 263.966 453.059 263.279C439.407 262.692 425.773 264.79 412.93 269.456C409.244 270.791 405.591 272.373 401.884 273.865C401.387 272.965 400.853 272.102 400.413 271.21C396.608 263.419 391.997 255.973 390.978 247.039C390.255 240.694 389.367 234.358 390.875 228.083C392.326 222.046 394.216 216.112 395.996 210.157C396.912 207.092 396.267 205.374 393.341 203.993C392.319 203.492 391.232 203.136 390.111 202.933C382.92 201.889 375.827 202.485 368.862 204.511C366.396 205.23 364.604 206.611 364.058 209.34C363.745 210.905 363.108 212.405 362.665 213.95C360.844 220.373 359.554 226.92 356.612 233.038C349.239 248.387 340.823 263.156 332.21 277.818C331.277 279.4 330.295 280.954 329.12 282.873C326.095 276.544 322.869 270.865 321.891 264.208C320.786 256.68 319.915 249.164 321.789 241.693C323.182 236.12 325.002 230.651 326.679 225.153C327.472 222.539 327.106 221.166 324.739 219.79C323.543 219.095 322.191 218.479 320.843 218.278C313.47 217.154 305.935 217.77 298.842 220.077C296.611 220.801 295.439 222.243 294.757 224.544C292.752 231.333 291.042 238.286 288.227 244.742C276.828 270.878 265.1 296.878 253.384 322.873C250.939 328.302 248.075 333.541 245.317 338.826C244.619 340.166 243.6 341.345 242.728 342.603C242.03 341.777 241.759 341.209 241.763 340.642C241.783 337.301 241.385 333.862 242.022 330.632C243.977 320.863 246.139 311.137 248.506 301.46C250.438 293.463 252.685 285.54 254.826 277.596C255.546 274.938 255.558 272.451 253.647 270.216C250.438 266.472 243.731 265.65 239.753 268.535L237.994 269.53L238.335 266.694C239.174 260.616 239.342 254.559 237.674 248.572C235.595 241.109 230.269 236.815 222.527 237.053C218.919 237.164 215.13 237.781 211.789 239.096C197.739 244.602 186.935 254.354 177.739 266.086C176.885 267.175 175.829 268.087 174.628 268.774C162.739 275.365 150.814 281.874 138.893 288.408L125.624 295.678C122.065 292.283 118.831 288.762 115.161 285.774C103.955 276.635 92.5677 267.722 81.2834 258.685C71.2812 250.676 61.5913 242.334 54.1779 231.728C48.6632 223.838 45.1086 215.204 44.7675 205.448C44.336 193.017 47.8618 181.659 54.1903 171.085C62.2857 157.557 73.3276 146.7 85.4667 136.867C98.3085 126.47 112.198 117.643 126.593 109.585C146.733 98.3125 167.449 88.335 189.66 81.7477C212.434 74.9918 235.541 71.1249 259.375 73.8207C268.745 74.8809 277.843 77.026 286.197 81.6079C292.596 85.1132 297.843 89.7034 300.284 96.8784C302.692 103.938 302.618 111.093 300.95 118.264C297.56 132.786 289.608 144.757 279.602 155.453C263.189 172.988 243.168 184.926 220.628 192.812C207.668 197.351 194.184 200.227 180.5 201.372C169.286 202.313 158.305 201.318 147.687 197.418C140.656 194.834 134.533 190.88 129.61 185.144C128.73 184.116 127.604 183.003 125.965 183.964C124.358 184.909 124.074 186.438 124.613 187.987C125.513 190.56 126.343 193.239 127.744 195.54C131.266 201.314 136.402 205.501 142.057 209.093C152.918 216.001 165.057 218.323 177.644 218.861C196.744 219.687 215.381 216.835 233.754 211.711C259.984 204.396 282.791 191.476 301.082 171.094C316.311 154.122 327.188 134.968 329.518 111.841C330.657 100.552 329.444 89.4938 324.16 79.1957C318.427 68.0388 309.313 59.742 298.415 54.0258C282.544 45.7043 265.416 40.8594 247.738 40.8594H230.026C208.616 40.8594 187.918 46.9947 167.798 54.3135C152.569 59.857 137.635 66.3991 123.137 73.6399C91.565 89.4157 62.1625 108.438 38.0117 134.594C25.9794 147.625 15.7923 162.004 9.93231 178.934C8.16669 183.99 6.64313 189.127 5.36679 194.328M119.768 342.319C118.399 360.643 110.094 375.498 96.521 387.53C88.8857 394.294 80.1287 399.111 69.9292 400.804C66.2307 401.416 62.446 401.564 58.8585 400.031C53.7424 397.845 52.5958 393.304 52.4972 388.467C52.3452 380.758 55.045 373.789 58.7476 367.156C63.5802 358.51 70.6648 351.919 78.2301 345.763C90.1473 336.06 103.075 327.85 116.316 320.1L117.314 319.689C119.361 327.25 120.335 334.717 119.768 342.319ZM223.151 262.683C222.186 268.535 220.977 274.391 219.268 280.062C213.359 299.692 205.769 318.715 197.562 337.482C196.046 340.955 193.839 344.123 191.92 347.415C191.593 347.92 191.202 348.382 190.757 348.787C188.382 351.134 186.13 351.01 184.93 347.941C183.533 344.374 182.674 340.556 181.934 336.78C181.437 334.244 181.556 331.581 181.4 328.984C181.56 310.517 187.194 293.734 196.753 278.11C200.694 271.667 204.984 265.527 211.538 261.451C213.578 260.184 215.784 259.208 218.093 258.549C221.586 257.567 223.731 259.182 223.151 262.683ZM293.685 352.547L319.035 322.947C320.092 333.94 301.406 355.884 293.685 352.547ZM374.652 332.629C372.86 333.656 370.908 334.396 369.071 335.345C367.39 336.217 366.836 335.337 366.786 333.891C366.763 332.889 366.891 331.89 367.168 330.928C370.592 318.854 376.891 308.548 386.265 300.165L386.922 299.828C391.381 312.3 386.228 325.997 374.652 332.629Z" fill="#22222C"/>
</g>
</svg>
