<svg width="350" height="350" viewBox="0 0 350 350" fill="none" xmlns="http://www.w3.org/2000/svg">
<g opacity="0.045">
<path d="M269.544 244.519C249.611 249.305 228.802 249.073 208.981 243.844C189.159 238.614 170.944 228.551 155.966 214.555C140.989 200.558 129.716 183.066 123.158 163.643C116.6 144.221 114.961 123.476 118.387 103.265C117.874 103.776 117.323 104.249 116.74 104.679C112.656 107.785 107.552 108.937 97.3437 111.242L88.0833 113.342C52.2083 121.465 34.2708 125.519 29.9979 139.242C25.7396 152.95 37.9604 167.256 62.4166 195.854L68.7458 203.248C75.6875 211.371 79.1729 215.439 80.7333 220.456C82.2937 225.487 81.7687 230.912 80.7187 241.748L79.7562 251.621C76.0666 289.785 74.2146 308.86 85.3854 317.333C96.5562 325.806 113.356 318.092 146.927 302.619L155.633 298.623C165.171 294.219 169.94 292.031 175 292.031C180.06 292.031 184.829 294.219 194.381 298.623L203.058 302.619C236.644 318.077 253.444 325.806 264.6 317.348C275.785 308.86 273.933 289.785 270.244 251.621L269.544 244.519Z" fill="#BABABD"/>
<path opacity="0.5" d="M133.481 78.8666L128.698 87.4416C123.448 96.8625 120.823 101.573 116.74 104.679C117.323 104.242 117.872 103.77 118.388 103.265C114.96 123.477 116.599 144.224 123.158 163.648C129.717 183.072 140.991 200.565 155.97 214.562C170.95 228.559 189.167 238.622 208.99 243.85C228.814 249.078 249.624 249.308 269.558 244.519L269.267 241.748C268.231 230.912 267.706 225.487 269.267 220.456C270.827 215.44 274.298 211.371 281.254 203.248L287.583 195.854C312.04 167.271 324.26 152.965 319.988 139.242C315.729 125.519 297.792 121.45 261.917 113.342L252.642 111.242C242.448 108.937 237.344 107.785 233.246 104.679C229.163 101.573 226.538 96.8625 221.288 87.4416L216.519 78.8666C198.042 45.7333 188.81 29.1666 175 29.1666C161.19 29.1666 151.958 45.7333 133.481 78.8666Z" fill="#BABABD"/>
</g>
</svg>
