<svg width="500" height="500" viewBox="0 0 500 500" fill="none" xmlns="http://www.w3.org/2000/svg">
<rect width="500" height="500" fill="#1A1A24"/>
<path d="M28.1657 197.133L28 218.585H96.1682V412.311H144.387V218.585H212.555V197.549C212.555 185.908 212.308 176.181 211.974 175.931C211.725 175.6 170.241 175.432 119.945 175.516L28.4153 175.766L28.1657 197.133ZM334.956 175.156C348.256 178.483 358.399 184.386 367.71 194.029C372.532 199.186 379.68 208.582 380.263 210.826C380.429 211.491 357.65 226.79 343.851 235.353C343.352 235.687 341.355 233.524 339.111 230.199C332.378 220.388 325.311 216.146 314.503 215.399C298.625 214.317 288.4 222.632 288.484 236.517C288.484 240.591 289.065 243.002 290.728 246.329C294.218 253.562 300.704 257.885 321.072 266.698C358.565 282.83 374.608 293.472 384.586 308.603C395.726 325.482 398.22 352.421 390.654 372.459C382.342 394.242 361.724 409.042 332.709 413.948C323.732 415.528 302.449 415.278 292.807 413.533C271.773 409.791 251.822 399.398 239.518 385.763C234.696 380.441 225.301 366.556 225.884 365.557C226.132 365.226 228.294 363.896 230.704 362.482C233.033 361.152 241.846 356.08 250.158 351.257L265.206 342.526L268.365 347.183C272.771 353.917 282.414 363.147 288.234 366.222C304.943 375.037 327.889 373.789 339.195 363.646C344.017 359.239 346.011 354.666 346.011 347.932C346.011 341.861 345.263 339.201 342.104 334.628C338.03 328.809 329.718 323.902 306.107 313.675C279.089 302.035 267.45 294.802 256.81 283.327C250.658 276.677 244.837 266.033 242.427 257.136C240.432 249.738 239.933 231.195 241.513 223.713C247.081 197.606 266.785 179.397 295.217 173.992C304.446 172.246 325.892 172.911 334.956 175.156Z" fill="#22222C"/>
</svg>
