<svg width="260" height="90" viewBox="0 0 260 90" fill="none" xmlns="http://www.w3.org/2000/svg">
<g filter="url(#filter0_i_160_417)">
<rect width="260" height="90" rx="30" fill="#26262F"/>
</g>
<path d="M45.2537 46.9375C44.7277 46.9375 44.2928 47.1068 43.9491 47.4453C43.6105 47.7839 43.4204 48.2318 43.3787 48.7891H47.0506C47.0246 48.2161 46.8501 47.7656 46.5272 47.4375C46.2095 47.1042 45.785 46.9375 45.2537 46.9375ZM47.0975 51.5469H49.2147C49.0428 52.3646 48.6053 53.0104 47.9022 53.4844C47.2043 53.9531 46.3293 54.1875 45.2772 54.1875C43.9647 54.1875 42.9412 53.7969 42.2069 53.0156C41.4725 52.2292 41.1053 51.1354 41.1053 49.7344C41.1053 48.3333 41.4751 47.2266 42.2147 46.4141C42.9543 45.6016 43.9647 45.1953 45.2459 45.1953C46.5168 45.1953 47.5064 45.5781 48.2147 46.3438C48.9282 47.1094 49.285 48.1771 49.285 49.5469V50.2422H43.3709V50.3594C43.3866 51 43.5689 51.5078 43.9178 51.8828C44.272 52.2526 44.7459 52.4375 45.3397 52.4375C45.7876 52.4375 46.1626 52.362 46.4647 52.2109C46.7668 52.0547 46.9777 51.8333 47.0975 51.5469ZM56.3769 50.5156H51.2441V48.3828H56.3769V50.5156ZM66.3672 48.4219H64.2422C64.1641 48 63.9766 47.6693 63.6797 47.4297C63.388 47.1849 63.0052 47.0625 62.5312 47.0625C61.9167 47.0625 61.4427 47.2865 61.1094 47.7344C60.7812 48.1823 60.6172 48.8281 60.6172 49.6719C60.6172 50.526 60.7812 51.1823 61.1094 51.6406C61.4427 52.0938 61.9167 52.3203 62.5312 52.3203C63 52.3203 63.3802 52.2083 63.6719 51.9844C63.9688 51.7604 64.1589 51.4375 64.2422 51.0156H66.3672C66.2734 51.9896 65.888 52.763 65.2109 53.3359C64.5339 53.9036 63.6406 54.1875 62.5312 54.1875C61.1875 54.1875 60.1484 53.7969 59.4141 53.0156C58.6849 52.2292 58.3203 51.1146 58.3203 49.6719C58.3203 48.2396 58.6849 47.1354 59.4141 46.3594C60.1432 45.5833 61.1823 45.1953 62.5312 45.1953C63.6562 45.1953 64.5521 45.4844 65.2188 46.0625C65.8906 46.6406 66.2734 47.4271 66.3672 48.4219ZM74.9981 52.9922C74.2481 53.7891 73.2117 54.1875 71.8888 54.1875C70.5658 54.1875 69.5268 53.7891 68.7716 52.9922C68.0216 52.1953 67.6466 51.0938 67.6466 49.6875C67.6466 48.2917 68.0242 47.1953 68.7794 46.3984C69.5398 45.5964 70.5763 45.1953 71.8888 45.1953C73.2013 45.1953 74.2351 45.5964 74.9903 46.3984C75.7507 47.1953 76.1309 48.2917 76.1309 49.6875C76.1309 51.0938 75.7533 52.1953 74.9981 52.9922ZM71.8888 52.3281C72.4929 52.3281 72.9617 52.099 73.295 51.6406C73.6283 51.1771 73.795 50.526 73.795 49.6875C73.795 48.8594 73.6257 48.2135 73.2872 47.75C72.9539 47.2865 72.4877 47.0547 71.8888 47.0547C71.2846 47.0547 70.8158 47.2865 70.4825 47.75C70.1492 48.2135 69.9825 48.8594 69.9825 49.6875C69.9825 50.526 70.1466 51.1771 70.4747 51.6406C70.808 52.099 71.2794 52.3281 71.8888 52.3281ZM77.9103 54V45.3828H80.1134V46.7891H80.2541C80.4311 46.2943 80.7306 45.9062 81.1525 45.625C81.5796 45.3385 82.0744 45.1953 82.6369 45.1953C83.2358 45.1953 83.7384 45.3359 84.1447 45.6172C84.5561 45.8932 84.8478 46.2839 85.0197 46.7891H85.1603C85.3634 46.3047 85.6968 45.9193 86.1603 45.6328C86.6239 45.3411 87.1551 45.1953 87.7541 45.1953C88.6134 45.1953 89.2931 45.4557 89.7931 45.9766C90.2931 46.4974 90.5431 47.2005 90.5431 48.0859V54H88.2697V48.6875C88.2697 47.6667 87.7905 47.1562 86.8322 47.1562C86.3739 47.1562 86.0067 47.3021 85.7306 47.5938C85.4546 47.8854 85.3166 48.263 85.3166 48.7266V54H83.1291V48.5938C83.1291 48.1406 83.0041 47.7891 82.7541 47.5391C82.5041 47.2839 82.1551 47.1562 81.7072 47.1562C81.2645 47.1562 80.8999 47.3125 80.6134 47.625C80.327 47.9375 80.1838 48.3333 80.1838 48.8125V54H77.9103Z" fill="white"/>
<path d="M111.059 46.5605H100.636V43.2344H111.059V46.5605ZM112.544 54H100.636C100.179 54 99.6794 53.9196 99.1377 53.7588C98.596 53.598 98.0924 53.3356 97.627 52.9717C97.1699 52.5993 96.7848 52.1211 96.4717 51.5371C96.167 50.9447 96.0146 50.221 96.0146 49.3662V37.458C96.0146 37.2295 96.057 37.0137 96.1416 36.8105C96.2262 36.6074 96.3405 36.4297 96.4844 36.2773C96.6367 36.125 96.8145 36.0065 97.0176 35.9219C97.2207 35.8372 97.4408 35.7949 97.6777 35.7949H112.544V39.0957H99.3154V49.3662C99.3154 49.7979 99.4297 50.1279 99.6582 50.3564C99.8867 50.585 100.221 50.6992 100.661 50.6992H112.544V54Z" fill="#F1FFFF"/>
<path d="M161.624 43.4121C161.624 44.1654 161.531 44.8382 161.345 45.4307C161.159 46.0231 160.905 46.5479 160.583 47.0049C160.27 47.4535 159.906 47.8385 159.491 48.1602C159.076 48.4818 158.641 48.7441 158.184 48.9473C157.735 49.1504 157.278 49.2985 156.812 49.3916C156.355 49.4847 155.924 49.5312 155.518 49.5312H148.053V46.2305H155.518C155.941 46.1966 156.322 46.112 156.66 45.9766C157.007 45.8327 157.303 45.6423 157.549 45.4053C157.794 45.1683 157.985 44.8848 158.12 44.5547C158.256 44.2161 158.323 43.8353 158.323 43.4121V41.9141C158.281 41.4993 158.192 41.1185 158.057 40.7715C157.921 40.4245 157.735 40.1283 157.498 39.8828C157.27 39.6374 156.99 39.4469 156.66 39.3115C156.33 39.1676 155.949 39.0957 155.518 39.0957H148.078C147.638 39.0957 147.304 39.21 147.075 39.4385C146.847 39.667 146.732 39.9971 146.732 40.4287V54H143.432V40.4287C143.432 39.5824 143.584 38.863 143.889 38.2705C144.202 37.6781 144.587 37.1999 145.044 36.8359C145.509 36.472 146.013 36.2096 146.555 36.0488C147.096 35.8796 147.596 35.7949 148.053 35.7949H155.518C156.262 35.7949 156.931 35.8923 157.523 36.0869C158.116 36.2731 158.636 36.527 159.085 36.8486C159.542 37.1618 159.927 37.5257 160.24 37.9404C160.562 38.3551 160.824 38.791 161.027 39.248C161.239 39.6966 161.391 40.1536 161.484 40.6191C161.577 41.0762 161.624 41.5078 161.624 41.9141V43.4121ZM179.423 46.5605H169V43.2344H179.423V46.5605ZM180.908 54H169C168.543 54 168.044 53.9196 167.502 53.7588C166.96 53.598 166.457 53.3356 165.991 52.9717C165.534 52.5993 165.149 52.1211 164.836 51.5371C164.531 50.9447 164.379 50.221 164.379 49.3662V37.458C164.379 37.2295 164.421 37.0137 164.506 36.8105C164.59 36.6074 164.705 36.4297 164.849 36.2773C165.001 36.125 165.179 36.0065 165.382 35.9219C165.585 35.8372 165.805 35.7949 166.042 35.7949H180.908V39.0957H167.68V49.3662C167.68 49.7979 167.794 50.1279 168.022 50.3564C168.251 50.585 168.585 50.6992 169.025 50.6992H180.908V54ZM202.3 41.9141C202.3 42.6673 202.207 43.3402 202.021 43.9326C201.834 44.5251 201.58 45.0498 201.259 45.5068C200.946 45.9554 200.582 46.3405 200.167 46.6621C199.752 46.9837 199.316 47.2503 198.859 47.4619C198.411 47.665 197.954 47.8132 197.488 47.9062C197.031 47.9993 196.6 48.0459 196.193 48.0459L203.087 54H197.983L191.103 48.0459H188.729V44.7451H196.193C196.608 44.7113 196.985 44.6266 197.323 44.4912C197.67 44.3473 197.966 44.1569 198.212 43.9199C198.466 43.6829 198.66 43.3994 198.796 43.0693C198.931 42.7308 198.999 42.3457 198.999 41.9141V39.832C198.999 39.6458 198.974 39.5062 198.923 39.4131C198.881 39.3115 198.821 39.2396 198.745 39.1973C198.677 39.1465 198.601 39.1169 198.517 39.1084C198.44 39.0999 198.368 39.0957 198.301 39.0957H187.408V54H184.107V37.458C184.107 37.2295 184.15 37.0137 184.234 36.8105C184.319 36.6074 184.433 36.4297 184.577 36.2773C184.729 36.125 184.907 36.0065 185.11 35.9219C185.313 35.8372 185.534 35.7949 185.771 35.7949H198.301C199.037 35.7949 199.659 35.9303 200.167 36.2012C200.675 36.4635 201.085 36.7979 201.398 37.2041C201.72 37.6019 201.949 38.0335 202.084 38.499C202.228 38.9645 202.3 39.4004 202.3 39.8066V41.9141ZM221.914 39.0957H214.64V54H211.339V39.0957H204.052V35.7949H221.914V39.0957Z" fill="#F1FFFF"/>
<path d="M125.909 44.4999L117.727 54.5379L117.727 34.4618L125.909 44.4999Z" fill="#FB6868"/>
<path d="M130.455 44.4999L138.637 54.5379L138.637 34.4618L130.455 44.4999Z" fill="#FB6868"/>
<path d="M128.182 42L134.087 34.5H122.277L128.182 42Z" fill="#FB6868"/>
<path d="M128.182 47L134.087 54.5H122.277L128.182 47Z" fill="#FB6868"/>
<defs>
<filter id="filter0_i_160_417" x="0" y="0" width="260" height="90" filterUnits="userSpaceOnUse" color-interpolation-filters="sRGB">
<feFlood flood-opacity="0" result="BackgroundImageFix"/>
<feBlend mode="normal" in="SourceGraphic" in2="BackgroundImageFix" result="shape"/>
<feColorMatrix in="SourceAlpha" type="matrix" values="0 0 0 0 0 0 0 0 0 0 0 0 0 0 0 0 0 0 127 0" result="hardAlpha"/>
<feMorphology radius="1" operator="erode" in="SourceAlpha" result="effect1_innerShadow_160_417"/>
<feOffset/>
<feGaussianBlur stdDeviation="5"/>
<feComposite in2="hardAlpha" operator="arithmetic" k2="-1" k3="1"/>
<feColorMatrix type="matrix" values="0 0 0 0 0.984314 0 0 0 0 0.407843 0 0 0 0 0.407843 0 0 0 1 0"/>
<feBlend mode="normal" in2="shape" result="effect1_innerShadow_160_417"/>
</filter>
</defs>
</svg>
