<svg width="260" height="90" viewBox="0 0 260 90" fill="none" xmlns="http://www.w3.org/2000/svg">
<g filter="url(#filter0_i_89_2528)">
<rect width="260" height="90" rx="30" fill="#26262F"/>
</g>
<rect x="1.5" y="1.5" width="257" height="87" rx="28.5" stroke="#CDDFED" stroke-width="3" stroke-dasharray="10 10"/>
<path d="M69.3906 25.7139H67.7646V23.1738H66.2178V31.3652H68.0371V33H62.5879V31.3652H64.3984V23.1738H62.834V25.7139H61.2168V21.5303H69.3906V25.7139ZM79.1641 24.8086L75.6309 34.5996C75.3672 35.3086 74.9834 35.7979 74.4795 36.0674C73.9756 36.3369 73.375 36.4717 72.6777 36.4717C72.4375 36.4717 72.1797 36.4482 71.9043 36.4014C71.6289 36.3545 71.3418 36.2754 71.043 36.1641L71.4209 34.4941C71.6729 34.5879 71.9043 34.6523 72.1152 34.6875C72.3262 34.7285 72.5137 34.749 72.6777 34.749C73.2227 34.749 73.5947 34.5029 73.7939 34.0107L74.1191 33.2197L70.9902 24.8086H72.8799L75.1299 31.0049L77.2129 24.8086H79.1641ZM89.043 28.9834H87.417V26.4521H85.8701V31.3652H87.6895V33H82.2402V31.3652H84.0508V26.4521H82.4863V28.9834H80.8691V24.8086H89.043V28.9834ZM108.282 33H106.463V27.4541L105.312 30.4072H103.905L102.771 27.4541V33H100.952V24.8086H103.114L104.608 28.5176L106.103 24.8086H108.282V33ZM118.75 28.9131C118.75 29.5518 118.647 30.1318 118.442 30.6533C118.243 31.1748 117.953 31.626 117.572 32.0068C117.197 32.3818 116.746 32.6748 116.219 32.8857C115.691 33.0967 115.103 33.2021 114.452 33.2021C113.813 33.2021 113.23 33.0967 112.703 32.8857C112.176 32.6748 111.722 32.3818 111.341 32.0068C110.966 31.626 110.676 31.1748 110.471 30.6533C110.271 30.1318 110.172 29.5518 110.172 28.9131C110.172 28.292 110.271 27.7178 110.471 27.1904C110.676 26.6572 110.966 26.2002 111.341 25.8193C111.722 25.4326 112.176 25.1367 112.703 24.9316C113.23 24.7207 113.813 24.6152 114.452 24.6152C115.103 24.6152 115.691 24.7207 116.219 24.9316C116.746 25.1367 117.197 25.4326 117.572 25.8193C117.953 26.2002 118.243 26.6572 118.442 27.1904C118.647 27.7178 118.75 28.292 118.75 28.9131ZM116.939 28.9131C116.939 28.5439 116.881 28.1953 116.764 27.8672C116.652 27.5332 116.488 27.249 116.271 27.0146C116.055 26.7803 115.791 26.5957 115.48 26.4609C115.176 26.3203 114.833 26.25 114.452 26.25C114.065 26.25 113.72 26.3203 113.415 26.4609C113.11 26.5957 112.853 26.7803 112.642 27.0146C112.431 27.249 112.267 27.5332 112.149 27.8672C112.038 28.1953 111.982 28.5439 111.982 28.9131C111.982 29.2998 112.038 29.6514 112.149 29.9678C112.267 30.2842 112.431 30.5625 112.642 30.8027C112.853 31.043 113.11 31.2305 113.415 31.3652C113.72 31.4941 114.065 31.5586 114.452 31.5586C114.833 31.5586 115.176 31.4941 115.48 31.3652C115.791 31.2305 116.055 31.043 116.271 30.8027C116.488 30.5625 116.652 30.2842 116.764 29.9678C116.881 29.6514 116.939 29.2998 116.939 28.9131ZM123.355 33V29.9941L123.057 29.6162L121.167 33H119.216L121.94 28.3945L119.216 24.8086H121.22L123.355 27.8672V24.8086H125.175V27.8672L127.407 24.8086H129.314L126.599 28.3945L129.314 33H127.46L125.482 29.6162L125.175 29.9941V33H123.355ZM131.67 29.5986C131.758 30.1611 132.024 30.6299 132.47 31.0049C132.921 31.374 133.524 31.5586 134.28 31.5586C134.872 31.5586 135.385 31.4678 135.818 31.2861C136.258 31.0986 136.636 30.8525 136.952 30.5479L137.884 31.8311C137.356 32.3584 136.797 32.7188 136.205 32.9121C135.619 33.1055 134.978 33.2021 134.28 33.2021C133.647 33.2021 133.059 33.0967 132.514 32.8857C131.969 32.6748 131.497 32.3818 131.099 32.0068C130.7 31.626 130.387 31.1748 130.158 30.6533C129.936 30.1318 129.824 29.5518 129.824 28.9131C129.824 28.292 129.927 27.7207 130.132 27.1992C130.343 26.6719 130.636 26.2178 131.011 25.8369C131.392 25.4502 131.846 25.1514 132.373 24.9404C132.9 24.7236 133.483 24.6152 134.122 24.6152C134.784 24.6152 135.385 24.7295 135.924 24.958C136.463 25.1807 136.923 25.5059 137.304 25.9336C137.69 26.3613 137.992 26.8857 138.209 27.5068C138.426 28.1221 138.534 28.8193 138.534 29.5986H131.67ZM136.478 27.999C136.384 27.4717 136.111 27.0498 135.66 26.7334C135.209 26.4111 134.696 26.25 134.122 26.25C133.548 26.25 133.032 26.4111 132.575 26.7334C132.118 27.0498 131.843 27.4717 131.749 27.999H136.478ZM148 28.9834H146.374V26.4521H144.827V31.3652H146.646V33H141.197V31.3652H143.008V26.4521H141.443V28.9834H139.826V24.8086H148V28.9834ZM161.403 29.0977C161.403 29.8418 161.6 30.4395 161.992 30.8906C162.391 31.3359 162.933 31.5586 163.618 31.5586C164.269 31.5586 164.802 31.3359 165.218 30.8906C165.64 30.4395 165.851 29.8418 165.851 29.0977C165.851 28.3418 165.651 27.7412 165.253 27.2959C164.86 26.8506 164.315 26.6279 163.618 26.6279C162.874 26.6279 162.317 26.8506 161.948 27.2959C161.585 27.7412 161.403 28.3418 161.403 29.0977ZM159.479 27.2783C159.479 26.3994 159.569 25.5967 159.751 24.8701C159.938 24.1436 160.199 23.5195 160.533 22.998C160.873 22.4766 161.274 22.0693 161.737 21.7764C162.2 21.4834 162.713 21.3369 163.275 21.3369C163.551 21.3369 163.779 21.3633 163.961 21.416C164.143 21.4688 164.304 21.5332 164.444 21.6094C164.591 21.6797 164.726 21.7412 164.849 21.7939C164.978 21.8467 165.133 21.873 165.314 21.873C165.555 21.873 165.757 21.832 165.921 21.75C166.091 21.668 166.296 21.5303 166.536 21.3369L167.362 22.541C167.146 22.8047 166.853 23.0332 166.483 23.2266C166.12 23.4199 165.73 23.5166 165.314 23.5166C165.033 23.5166 164.808 23.4902 164.638 23.4375C164.474 23.3789 164.321 23.3145 164.181 23.2441C164.046 23.1738 163.911 23.1123 163.776 23.0596C163.647 23.001 163.48 22.9717 163.275 22.9717C163 22.9717 162.745 23.042 162.511 23.1826C162.276 23.3174 162.068 23.5342 161.887 23.833C161.711 24.126 161.57 24.5039 161.465 24.9668C161.365 25.4238 161.315 25.9834 161.315 26.6455C161.544 26.1064 161.863 25.6963 162.273 25.415C162.689 25.1338 163.144 24.9932 163.636 24.9932C164.21 24.9932 164.743 25.0811 165.235 25.2568C165.728 25.4268 166.152 25.6846 166.51 26.0303C166.873 26.3701 167.157 26.7949 167.362 27.3047C167.567 27.8145 167.67 28.4121 167.67 29.0977C167.67 29.6719 167.567 30.2109 167.362 30.7148C167.157 31.2188 166.873 31.6553 166.51 32.0244C166.152 32.3877 165.728 32.6748 165.235 32.8857C164.743 33.0967 164.21 33.2021 163.636 33.2021C162.259 33.2021 161.222 32.7217 160.524 31.7607C159.827 30.7998 159.479 29.3057 159.479 27.2783ZM174.868 30.4775C174.868 31.3096 174.604 31.9395 174.077 32.3672C173.55 32.7891 172.812 33 171.862 33H169.129V24.8086H170.939V27.9814H171.88C172.817 27.9814 173.55 28.1895 174.077 28.6055C174.604 29.0156 174.868 29.6396 174.868 30.4775ZM173.049 30.4951C173.049 30.1963 172.943 29.9766 172.732 29.8359C172.521 29.6895 172.237 29.6162 171.88 29.6162H170.939V31.3652H171.88C172.237 31.3652 172.521 31.292 172.732 31.1455C172.943 30.999 173.049 30.7822 173.049 30.4951ZM175.853 24.8086H177.672V33H175.853V24.8086ZM187.305 28.9834H185.679V26.4521H184.132V31.3652H185.951V33H180.502V31.3652H182.312V26.4521H180.748V28.9834H179.131V24.8086H187.305V28.9834ZM197.148 30.4775C197.148 31.3096 196.885 31.9395 196.357 32.3672C195.83 32.7891 195.092 33 194.143 33H189.388V24.8086H191.207V27.9814H194.16C195.098 27.9814 195.83 28.1895 196.357 28.6055C196.885 29.0156 197.148 29.6396 197.148 30.4775ZM195.329 30.4951C195.329 30.1963 195.224 29.9766 195.013 29.8359C194.802 29.6895 194.518 29.6162 194.16 29.6162H191.207V31.3652H194.16C194.518 31.3652 194.802 31.292 195.013 31.1455C195.224 30.999 195.329 30.7822 195.329 30.4951ZM73.8906 42.8086V51H72.0713V44.4521H68.9775V48.5742C68.9775 49.0488 68.9072 49.4561 68.7666 49.7959C68.626 50.1299 68.4385 50.3994 68.2041 50.6045C67.9756 50.8096 67.7031 50.959 67.3867 51.0527C67.0762 51.1523 66.7422 51.2021 66.3848 51.2021C65.8926 51.2021 65.5322 51.1289 65.3037 50.9824L65.5322 49.418C65.6201 49.4648 65.7168 49.5 65.8223 49.5234C65.9219 49.5469 66.0537 49.5586 66.2178 49.5586C66.8447 49.5586 67.1582 49.2305 67.1582 48.5742V42.8086H73.8906ZM84.3584 46.9131C84.3584 47.5518 84.2559 48.1318 84.0508 48.6533C83.8516 49.1748 83.5615 49.626 83.1807 50.0068C82.8057 50.3818 82.3545 50.6748 81.8271 50.8857C81.2998 51.0967 80.7109 51.2021 80.0605 51.2021C79.4219 51.2021 78.8389 51.0967 78.3115 50.8857C77.7842 50.6748 77.3301 50.3818 76.9492 50.0068C76.5742 49.626 76.2842 49.1748 76.0791 48.6533C75.8799 48.1318 75.7803 47.5518 75.7803 46.9131C75.7803 46.292 75.8799 45.7178 76.0791 45.1904C76.2842 44.6572 76.5742 44.2002 76.9492 43.8193C77.3301 43.4326 77.7842 43.1367 78.3115 42.9316C78.8389 42.7207 79.4219 42.6152 80.0605 42.6152C80.7109 42.6152 81.2998 42.7207 81.8271 42.9316C82.3545 43.1367 82.8057 43.4326 83.1807 43.8193C83.5615 44.2002 83.8516 44.6572 84.0508 45.1904C84.2559 45.7178 84.3584 46.292 84.3584 46.9131ZM82.5479 46.9131C82.5479 46.5439 82.4893 46.1953 82.3721 45.8672C82.2607 45.5332 82.0967 45.249 81.8799 45.0146C81.6631 44.7803 81.3994 44.5957 81.0889 44.4609C80.7842 44.3203 80.4414 44.25 80.0605 44.25C79.6738 44.25 79.3281 44.3203 79.0234 44.4609C78.7188 44.5957 78.4609 44.7803 78.25 45.0146C78.0391 45.249 77.875 45.5332 77.7578 45.8672C77.6465 46.1953 77.5908 46.5439 77.5908 46.9131C77.5908 47.2998 77.6465 47.6514 77.7578 47.9678C77.875 48.2842 78.0391 48.5625 78.25 48.8027C78.4609 49.043 78.7188 49.2305 79.0234 49.3652C79.3281 49.4941 79.6738 49.5586 80.0605 49.5586C80.4414 49.5586 80.7842 49.4941 81.0889 49.3652C81.3994 49.2305 81.6631 49.043 81.8799 48.8027C82.0967 48.5625 82.2607 48.2842 82.3721 47.9678C82.4893 47.6514 82.5479 47.2998 82.5479 46.9131ZM86.2129 42.8086H93.9736V44.3379H88.0322V51H86.2129V42.8086ZM104.011 46.9131C104.011 47.5518 103.908 48.1318 103.703 48.6533C103.504 49.1748 103.214 49.626 102.833 50.0068C102.458 50.3818 102.007 50.6748 101.479 50.8857C100.952 51.0967 100.363 51.2021 99.7129 51.2021C99.0742 51.2021 98.4912 51.0967 97.9639 50.8857C97.4365 50.6748 96.9824 50.3818 96.6016 50.0068C96.2266 49.626 95.9365 49.1748 95.7314 48.6533C95.5322 48.1318 95.4326 47.5518 95.4326 46.9131C95.4326 46.292 95.5322 45.7178 95.7314 45.1904C95.9365 44.6572 96.2266 44.2002 96.6016 43.8193C96.9824 43.4326 97.4365 43.1367 97.9639 42.9316C98.4912 42.7207 99.0742 42.6152 99.7129 42.6152C100.363 42.6152 100.952 42.7207 101.479 42.9316C102.007 43.1367 102.458 43.4326 102.833 43.8193C103.214 44.2002 103.504 44.6572 103.703 45.1904C103.908 45.7178 104.011 46.292 104.011 46.9131ZM102.2 46.9131C102.2 46.5439 102.142 46.1953 102.024 45.8672C101.913 45.5332 101.749 45.249 101.532 45.0146C101.315 44.7803 101.052 44.5957 100.741 44.4609C100.437 44.3203 100.094 44.25 99.7129 44.25C99.3262 44.25 98.9805 44.3203 98.6758 44.4609C98.3711 44.5957 98.1133 44.7803 97.9023 45.0146C97.6914 45.249 97.5273 45.5332 97.4102 45.8672C97.2988 46.1953 97.2432 46.5439 97.2432 46.9131C97.2432 47.2998 97.2988 47.6514 97.4102 47.9678C97.5273 48.2842 97.6914 48.5625 97.9023 48.8027C98.1133 49.043 98.3711 49.2305 98.6758 49.3652C98.9805 49.4941 99.3262 49.5586 99.7129 49.5586C100.094 49.5586 100.437 49.4941 100.741 49.3652C101.052 49.2305 101.315 49.043 101.532 48.8027C101.749 48.5625 101.913 48.2842 102.024 47.9678C102.142 47.6514 102.2 47.2998 102.2 46.9131ZM113.608 46.9834H111.982V44.4521H110.436V49.3652H112.255V51H106.806V49.3652H108.616V44.4521H107.052V46.9834H105.435V42.8086H113.608V46.9834ZM115.691 42.8086H117.511V48.4424L120.736 42.8086H123.021V51H121.202V45.041L117.801 51H115.691V42.8086ZM132.848 51H131.028V44.4521H127.337V51H125.518V42.8086H132.848V51ZM152.913 48.75C152.913 49.4941 152.638 50.0566 152.087 50.4375C151.542 50.8125 150.76 51 149.74 51H145.17V42.8086H149.415C149.79 42.8086 150.162 42.8379 150.531 42.8965C150.906 42.9492 151.24 43.0547 151.533 43.2129C151.826 43.3652 152.063 43.582 152.245 43.8633C152.427 44.1445 152.518 44.5078 152.518 44.9531C152.518 45.3633 152.389 45.7324 152.131 46.0605C151.873 46.3887 151.475 46.6318 150.936 46.79C151.604 46.8838 152.099 47.1006 152.421 47.4404C152.749 47.7744 152.913 48.2109 152.913 48.75ZM150.716 45.1641C150.716 44.9883 150.678 44.8477 150.602 44.7422C150.531 44.6309 150.435 44.5459 150.312 44.4873C150.194 44.4229 150.057 44.3818 149.898 44.3643C149.746 44.3467 149.594 44.3379 149.441 44.3379H146.989V45.9814H149.441C149.594 45.9814 149.746 45.9727 149.898 45.9551C150.057 45.9316 150.194 45.8906 150.312 45.832C150.435 45.7734 150.531 45.6914 150.602 45.5859C150.678 45.4746 150.716 45.334 150.716 45.1641ZM151.111 48.4775C151.111 48.1904 150.991 47.9766 150.751 47.8359C150.511 47.6895 150.174 47.6162 149.74 47.6162H146.989V49.3652H149.74C150.174 49.3652 150.511 49.292 150.751 49.1455C150.991 48.999 151.111 48.7764 151.111 48.4775ZM154.53 48.6445C154.53 48.1641 154.659 47.7451 154.917 47.3877C155.175 47.0244 155.512 46.7227 155.928 46.4824C156.35 46.2422 156.83 46.0635 157.369 45.9463C157.914 45.8232 158.468 45.7617 159.03 45.7617C159.341 45.7617 159.607 45.7676 159.83 45.7793C160.053 45.791 160.278 45.8086 160.507 45.832V45.5068C160.507 45.0791 160.34 44.7598 160.006 44.5488C159.678 44.3379 159.244 44.2324 158.705 44.2324C158.213 44.2324 157.712 44.3027 157.202 44.4434C156.692 44.5781 156.209 44.7773 155.752 45.041L155.014 43.6172C155.553 43.3066 156.13 43.0635 156.745 42.8877C157.366 42.7061 158.02 42.6152 158.705 42.6152C159.15 42.6152 159.587 42.665 160.015 42.7646C160.448 42.8643 160.835 43.0283 161.175 43.2568C161.521 43.4854 161.796 43.7842 162.001 44.1533C162.206 44.5166 162.309 44.9678 162.309 45.5068V51H160.507V49.7959C160.22 50.2412 159.795 50.5869 159.232 50.833C158.676 51.0791 158.075 51.2021 157.431 51.2021C157.032 51.2021 156.654 51.1465 156.297 51.0352C155.945 50.9297 155.641 50.7686 155.383 50.5518C155.125 50.335 154.917 50.0684 154.759 49.752C154.606 49.4297 154.53 49.0605 154.53 48.6445ZM157.896 49.5762C158.254 49.5762 158.588 49.5322 158.898 49.4443C159.215 49.3506 159.493 49.2246 159.733 49.0664C159.974 48.9023 160.161 48.7061 160.296 48.4775C160.437 48.249 160.507 47.9971 160.507 47.7217V47.4141C160.22 47.3672 159.95 47.3408 159.698 47.335C159.446 47.3291 159.224 47.3262 159.03 47.3262C158.14 47.3262 157.466 47.4434 157.009 47.6777C156.558 47.9121 156.332 48.2021 156.332 48.5479C156.332 49.2334 156.854 49.5762 157.896 49.5762ZM167.573 42.8086H169.393V49.3652H170.764V42.8086H172.583V51H164.392V42.8086H166.211V49.3652H167.573V42.8086ZM175.888 47.5986C175.976 48.1611 176.242 48.6299 176.688 49.0049C177.139 49.374 177.742 49.5586 178.498 49.5586C179.09 49.5586 179.603 49.4678 180.036 49.2861C180.476 49.0986 180.854 48.8525 181.17 48.5479L182.102 49.8311C181.574 50.3584 181.015 50.7188 180.423 50.9121C179.837 51.1055 179.195 51.2021 178.498 51.2021C177.865 51.2021 177.276 51.0967 176.731 50.8857C176.187 50.6748 175.715 50.3818 175.316 50.0068C174.918 49.626 174.604 49.1748 174.376 48.6533C174.153 48.1318 174.042 47.5518 174.042 46.9131C174.042 46.292 174.145 45.7207 174.35 45.1992C174.561 44.6719 174.854 44.2178 175.229 43.8369C175.609 43.4502 176.063 43.1514 176.591 42.9404C177.118 42.7236 177.701 42.6152 178.34 42.6152C179.002 42.6152 179.603 42.7295 180.142 42.958C180.681 43.1807 181.141 43.5059 181.521 43.9336C181.908 44.3613 182.21 44.8857 182.427 45.5068C182.644 46.1221 182.752 46.8193 182.752 47.5986H175.888ZM180.695 45.999C180.602 45.4717 180.329 45.0498 179.878 44.7334C179.427 44.4111 178.914 44.25 178.34 44.25C177.766 44.25 177.25 44.4111 176.793 44.7334C176.336 45.0498 176.061 45.4717 175.967 45.999H180.695ZM184.475 42.8086H186.294V48.4424L189.52 42.8086H191.805V51H189.985V45.041L186.584 51H184.475V42.8086ZM191.031 40.7432C190.234 41.5342 189.273 41.9297 188.148 41.9297C187.018 41.9297 186.057 41.5342 185.266 40.7432L186.329 39.6973C186.88 40.248 187.486 40.5234 188.148 40.5234C188.811 40.5234 189.417 40.248 189.968 39.6973L191.031 40.7432ZM98.8691 69H96.5137L93.7715 65.6865L92.9453 66.5303V69H91.126V60.8086H92.9453V64.2803L96.2236 60.8086H98.7197L94.9404 64.5703L98.8691 69ZM108.924 64.9131C108.924 65.5518 108.821 66.1318 108.616 66.6533C108.417 67.1748 108.127 67.626 107.746 68.0068C107.371 68.3818 106.92 68.6748 106.393 68.8857C105.865 69.0967 105.276 69.2021 104.626 69.2021C103.987 69.2021 103.404 69.0967 102.877 68.8857C102.35 68.6748 101.896 68.3818 101.515 68.0068C101.14 67.626 100.85 67.1748 100.645 66.6533C100.445 66.1318 100.346 65.5518 100.346 64.9131C100.346 64.292 100.445 63.7178 100.645 63.1904C100.85 62.6572 101.14 62.2002 101.515 61.8193C101.896 61.4326 102.35 61.1367 102.877 60.9316C103.404 60.7207 103.987 60.6152 104.626 60.6152C105.276 60.6152 105.865 60.7207 106.393 60.9316C106.92 61.1367 107.371 61.4326 107.746 61.8193C108.127 62.2002 108.417 62.6572 108.616 63.1904C108.821 63.7178 108.924 64.292 108.924 64.9131ZM107.113 64.9131C107.113 64.5439 107.055 64.1953 106.938 63.8672C106.826 63.5332 106.662 63.249 106.445 63.0146C106.229 62.7803 105.965 62.5957 105.654 62.4609C105.35 62.3203 105.007 62.25 104.626 62.25C104.239 62.25 103.894 62.3203 103.589 62.4609C103.284 62.5957 103.026 62.7803 102.815 63.0146C102.604 63.249 102.44 63.5332 102.323 63.8672C102.212 64.1953 102.156 64.5439 102.156 64.9131C102.156 65.2998 102.212 65.6514 102.323 65.9678C102.44 66.2842 102.604 66.5625 102.815 66.8027C103.026 67.043 103.284 67.2305 103.589 67.3652C103.894 67.4941 104.239 67.5586 104.626 67.5586C105.007 67.5586 105.35 67.4941 105.654 67.3652C105.965 67.2305 106.229 67.043 106.445 66.8027C106.662 66.5625 106.826 66.2842 106.938 65.9678C107.055 65.6514 107.113 65.2998 107.113 64.9131ZM118.108 69H116.289V63.4541L115.138 66.4072H113.731L112.598 63.4541V69H110.778V60.8086H112.94L114.435 64.5176L115.929 60.8086H118.108V69ZM127.935 69H126.115V62.4521H122.424V69H120.604V60.8086H127.935V69ZM129.965 66.6445C129.965 66.1641 130.094 65.7451 130.352 65.3877C130.609 65.0244 130.946 64.7227 131.362 64.4824C131.784 64.2422 132.265 64.0635 132.804 63.9463C133.349 63.8232 133.902 63.7617 134.465 63.7617C134.775 63.7617 135.042 63.7676 135.265 63.7793C135.487 63.791 135.713 63.8086 135.941 63.832V63.5068C135.941 63.0791 135.774 62.7598 135.44 62.5488C135.112 62.3379 134.679 62.2324 134.14 62.2324C133.647 62.2324 133.146 62.3027 132.637 62.4434C132.127 62.5781 131.644 62.7773 131.187 63.041L130.448 61.6172C130.987 61.3066 131.564 61.0635 132.18 60.8877C132.801 60.7061 133.454 60.6152 134.14 60.6152C134.585 60.6152 135.021 60.665 135.449 60.7646C135.883 60.8643 136.27 61.0283 136.609 61.2568C136.955 61.4854 137.23 61.7842 137.436 62.1533C137.641 62.5166 137.743 62.9678 137.743 63.5068V69H135.941V67.7959C135.654 68.2412 135.229 68.5869 134.667 68.833C134.11 69.0791 133.51 69.2021 132.865 69.2021C132.467 69.2021 132.089 69.1465 131.731 69.0352C131.38 68.9297 131.075 68.7686 130.817 68.5518C130.56 68.335 130.352 68.0684 130.193 67.752C130.041 67.4297 129.965 67.0605 129.965 66.6445ZM133.331 67.5762C133.688 67.5762 134.022 67.5322 134.333 67.4443C134.649 67.3506 134.928 67.2246 135.168 67.0664C135.408 66.9023 135.596 66.7061 135.73 66.4775C135.871 66.249 135.941 65.9971 135.941 65.7217V65.4141C135.654 65.3672 135.385 65.3408 135.133 65.335C134.881 65.3291 134.658 65.3262 134.465 65.3262C133.574 65.3262 132.9 65.4434 132.443 65.6777C131.992 65.9121 131.767 66.2021 131.767 66.5479C131.767 67.2334 132.288 67.5762 133.331 67.5762ZM147.587 69H145.768V65.6162H142.076V69H140.257V60.8086H142.076V63.9814H145.768V60.8086H147.587V69ZM150.083 60.8086H151.902V66.4424L155.128 60.8086H157.413V69H155.594V63.041L152.192 69H150.083V60.8086ZM159.909 60.8086H161.729V66.4424L164.954 60.8086H167.239V69H165.42V63.041L162.019 69H159.909V60.8086Z" fill="white"/>
<defs>
<filter id="filter0_i_89_2528" x="0" y="0" width="260" height="90" filterUnits="userSpaceOnUse" color-interpolation-filters="sRGB">
<feFlood flood-opacity="0" result="BackgroundImageFix"/>
<feBlend mode="normal" in="SourceGraphic" in2="BackgroundImageFix" result="shape"/>
<feColorMatrix in="SourceAlpha" type="matrix" values="0 0 0 0 0 0 0 0 0 0 0 0 0 0 0 0 0 0 127 0" result="hardAlpha"/>
<feMorphology radius="1" operator="erode" in="SourceAlpha" result="effect1_innerShadow_89_2528"/>
<feOffset/>
<feGaussianBlur stdDeviation="5"/>
<feComposite in2="hardAlpha" operator="arithmetic" k2="-1" k3="1"/>
<feColorMatrix type="matrix" values="0 0 0 0 1 0 0 0 0 1 0 0 0 0 1 0 0 0 0.3 0"/>
<feBlend mode="normal" in2="shape" result="effect1_innerShadow_89_2528"/>
</filter>
</defs>
</svg>
