<svg width="192" height="67" viewBox="0 0 192 67" fill="none" xmlns="http://www.w3.org/2000/svg">
<path d="M131.851 5.5614L157.329 54.5965L182.596 5.5614H167.015L157.329 24.4211L147.432 5.5614H131.851Z" fill="#35495E"/>
<path d="M134.702 1L157.89 46.614L180.886 1H166.705H157.89H148.883H134.702Z" fill="#7011F5"/>
<g filter="url(#filter0_d_198_422)">
<path d="M129 7.84216L158.079 66.0001L187.158 7.84216H175.526L158.079 42.7369L140.486 7.84216H129Z" fill="#41B883"/>
</g>
<path d="M161.345 15.8245C165.973 12.8596 163.273 10.4079 161.345 9.55261H153.518V15.8245M161.345 15.8245C156.989 15.8245 154.312 15.8245 153.518 15.8245M161.345 15.8245C163.613 16.9649 166.789 20.0438 161.345 23.2368C156.716 23.2368 154.198 23.2368 153.518 23.2368V15.8245" stroke="#DFDFDF" stroke-width="3"/>
<path d="M101.309 37.1133V45.1016H96.3281V37.1133H88.2812V32.0742H96.3281V24.1055H101.309V32.0742H109.375V37.1133H101.309Z" fill="white"/>
<path d="M38.4701 55.7399H63.961C64.7707 55.7399 65.566 55.5334 66.2672 55.1407C66.9639 54.7524 67.5461 54.1875 67.9553 53.5028C68.359 52.8264 68.5723 52.0534 68.5724 51.2656C68.5724 50.4803 68.3584 49.7091 67.9531 49.029L50.8344 20.2679C50.4251 19.5835 49.8431 19.0188 49.1466 18.6304C48.442 18.2365 47.6481 18.0301 46.8409 18.031C46.0312 18.031 45.2362 18.2378 44.5349 18.6304C43.8385 19.0187 43.2565 19.5834 42.8474 20.2679L38.4701 27.6267L29.912 13.2363C29.5023 12.5522 28.92 11.9876 28.2235 11.5992C27.5185 11.2057 26.7245 10.9994 25.9172 11C25.1078 11 24.3122 11.2068 23.611 11.5992C22.9146 11.9877 22.3324 12.5522 21.9227 13.2363L0.619727 49.029C0.215495 49.7051 0.00169238 50.4779 0.000976562 51.2656C0.000976562 52.051 0.213387 52.8227 0.618119 53.5028C1.02725 54.1875 1.60944 54.7524 2.30615 55.1407C3.01091 55.5346 3.80503 55.741 4.6124 55.7399H20.6134C26.9533 55.7399 31.6285 53.0388 34.8457 47.769L42.6562 34.6486L46.8395 27.6267L59.3951 48.7183H42.6562L38.4701 55.7399ZM20.3522 48.7113L9.1858 48.7087L25.9247 20.5882L34.2768 34.6486L28.6847 44.0461C26.5483 47.4653 24.1212 48.7111 20.3525 48.7111" fill="#00DC82"/>
<defs>
<filter id="filter0_d_198_422" x="125" y="0.842163" width="66.1577" height="66.1578" filterUnits="userSpaceOnUse" color-interpolation-filters="sRGB">
<feFlood flood-opacity="0" result="BackgroundImageFix"/>
<feColorMatrix in="SourceAlpha" type="matrix" values="0 0 0 0 0 0 0 0 0 0 0 0 0 0 0 0 0 0 127 0" result="hardAlpha"/>
<feOffset dy="-3"/>
<feGaussianBlur stdDeviation="2"/>
<feComposite in2="hardAlpha" operator="out"/>
<feColorMatrix type="matrix" values="0 0 0 0 0 0 0 0 0 0 0 0 0 0 0 0 0 0 0.5 0"/>
<feBlend mode="normal" in2="BackgroundImageFix" result="effect1_dropShadow_198_422"/>
<feBlend mode="normal" in="SourceGraphic" in2="effect1_dropShadow_198_422" result="shape"/>
</filter>
</defs>
</svg>
