<svg width="260" height="90" viewBox="0 0 260 90" fill="none" xmlns="http://www.w3.org/2000/svg">
<g filter="url(#filter0_i_158_416)">
<rect width="260" height="90" rx="30" fill="#26262F"/>
</g>
<rect x="45" y="29" width="8" height="24" fill="#03C763"/>
<rect x="55" y="37" width="7" height="23" fill="#03C763"/>
<rect x="64" y="37" width="7" height="16" fill="#03C763"/>
<path d="M91.8055 51H90.619V39.416H83.3505V51H82.1376V38.3174H91.8055V51ZM96.9187 46.9307C96.8659 47.5869 96.7898 48.1494 96.6902 48.6182C96.5964 49.0869 96.4558 49.5176 96.2683 49.9102C96.0808 50.2969 95.8318 50.5898 95.5212 50.7891C95.2107 50.9824 94.8357 51.0791 94.3962 51.0791C94.2029 51.0791 94.0271 51.0498 93.8689 50.9912V49.9277C94.0095 49.9746 94.1677 49.998 94.3435 49.998C94.5837 49.998 94.7917 49.9248 94.9675 49.7783C95.1491 49.6318 95.2956 49.415 95.407 49.1279C95.5183 48.8408 95.6062 48.5186 95.6706 48.1611C95.7351 47.8037 95.7849 47.3789 95.82 46.8867C95.8435 46.6348 95.905 45.7529 96.0046 44.2412C96.1101 42.7236 96.1716 41.8213 96.1892 41.5342H102.245V51H101.093V42.5098H97.2351C97.1355 44.3145 97.03 45.7881 96.9187 46.9307ZM108.131 50.1387C108.981 50.1387 109.69 49.8838 110.258 49.374C110.833 48.8584 111.12 48.2256 111.12 47.4756V46.3682L108.316 46.5703C106.728 46.6816 105.934 47.2793 105.934 48.3633C105.934 48.9023 106.139 49.333 106.549 49.6553C106.96 49.9775 107.487 50.1387 108.131 50.1387ZM107.938 51.1582C107.001 51.1582 106.233 50.9062 105.635 50.4023C105.044 49.8926 104.748 49.2188 104.748 48.3809C104.748 47.5605 105.041 46.916 105.627 46.4473C106.212 45.9727 107.056 45.6973 108.158 45.6211L111.12 45.4277V44.5137C111.12 43.834 110.918 43.3125 110.513 42.9492C110.115 42.5859 109.532 42.4043 108.764 42.4043C108.114 42.4043 107.566 42.5361 107.121 42.7998C106.681 43.0576 106.406 43.415 106.294 43.8721H105.126C105.237 43.1221 105.627 42.5186 106.294 42.0615C106.968 41.6045 107.803 41.376 108.799 41.376C109.907 41.376 110.762 41.6514 111.366 42.2021C111.975 42.7471 112.28 43.5146 112.28 44.5049V51H111.172V49.374H111.067C110.78 49.9365 110.361 50.376 109.81 50.6924C109.259 51.0029 108.635 51.1582 107.938 51.1582ZM122.06 41.5342V42.5098H118.826V51H117.674V42.5098H114.44V41.5342H122.06ZM128.632 50.1299V42.4219C127.472 42.4512 126.549 42.8115 125.864 43.5029C125.178 44.1885 124.835 45.1143 124.835 46.2803C124.835 47.4463 125.178 48.3721 125.864 49.0576C126.549 49.7373 127.472 50.0947 128.632 50.1299ZM132.517 49.0576C133.202 48.3662 133.545 47.4375 133.545 46.2715C133.545 45.1055 133.202 44.1797 132.517 43.4941C131.831 42.8086 130.911 42.4512 129.757 42.4219V50.1299C130.911 50.1006 131.831 49.7432 132.517 49.0576ZM128.632 51.1318C127.126 51.1025 125.922 50.6514 125.02 49.7783C124.117 48.9053 123.666 47.7393 123.666 46.2803C123.666 44.8154 124.117 43.6465 125.02 42.7734C125.922 41.9004 127.126 41.4492 128.632 41.4199V38.2295H129.757V41.4199C131.257 41.4492 132.458 41.9004 133.361 42.7734C134.263 43.6465 134.714 44.8125 134.714 46.2715C134.714 47.7363 134.26 48.9053 133.352 49.7783C132.449 50.6514 131.251 51.1025 129.757 51.1318V54.1377H128.632V51.1318ZM144.257 49.8486C143.483 50.7217 142.435 51.1582 141.11 51.1582C139.786 51.1582 138.737 50.7217 137.964 49.8486C137.196 48.9697 136.813 47.7744 136.813 46.2627C136.813 44.751 137.196 43.5586 137.964 42.6855C138.737 41.8125 139.786 41.376 141.11 41.376C142.435 41.376 143.483 41.8125 144.257 42.6855C145.03 43.5586 145.417 44.751 145.417 46.2627C145.417 47.7744 145.03 48.9697 144.257 49.8486ZM138.825 49.0928C139.376 49.7725 140.138 50.1123 141.11 50.1123C142.083 50.1123 142.845 49.7725 143.396 49.0928C143.946 48.4072 144.222 47.4639 144.222 46.2627C144.222 45.0615 143.946 44.1211 143.396 43.4414C142.845 42.7559 142.083 42.4131 141.11 42.4131C140.138 42.4131 139.376 42.7559 138.825 43.4414C138.274 44.1211 137.999 45.0615 137.999 46.2627C137.999 47.4639 138.274 48.4072 138.825 49.0928ZM152.429 41.376C153.63 41.376 154.594 41.8242 155.32 42.7207C156.047 43.6113 156.41 44.792 156.41 46.2627C156.41 47.7334 156.044 48.917 155.311 49.8135C154.585 50.71 153.624 51.1582 152.429 51.1582C151.696 51.1582 151.046 50.9854 150.477 50.6396C149.915 50.2881 149.502 49.8076 149.238 49.1982H149.133V54.1377H147.981V41.5342H149.08V43.4678H149.185C149.478 42.8174 149.912 42.3076 150.486 41.9385C151.06 41.5635 151.708 41.376 152.429 41.376ZM152.174 50.1123C153.111 50.1123 153.852 49.7666 154.397 49.0752C154.948 48.3838 155.224 47.4492 155.224 46.2715C155.224 45.0879 154.948 44.1504 154.397 43.459C153.852 42.7617 153.114 42.4131 152.183 42.4131C151.257 42.4131 150.51 42.7646 149.941 43.4678C149.379 44.1709 149.098 45.1025 149.098 46.2627C149.098 47.4229 149.379 48.3545 149.941 49.0576C150.504 49.7607 151.248 50.1123 152.174 50.1123ZM160.135 51H158.983V41.5342H160.372L164.09 49.4004H164.195L167.895 41.5342H169.231V51H168.08V43.6436H167.948L164.573 50.8154H163.668L160.258 43.6436H160.135V51ZM175.109 50.1387C175.959 50.1387 176.668 49.8838 177.236 49.374C177.81 48.8584 178.097 48.2256 178.097 47.4756V46.3682L175.294 46.5703C173.706 46.6816 172.912 47.2793 172.912 48.3633C172.912 48.9023 173.117 49.333 173.527 49.6553C173.937 49.9775 174.464 50.1387 175.109 50.1387ZM174.916 51.1582C173.978 51.1582 173.211 50.9062 172.613 50.4023C172.021 49.8926 171.725 49.2188 171.725 48.3809C171.725 47.5605 172.018 46.916 172.604 46.4473C173.19 45.9727 174.034 45.6973 175.135 45.6211L178.097 45.4277V44.5137C178.097 43.834 177.895 43.3125 177.491 42.9492C177.092 42.5859 176.509 42.4043 175.742 42.4043C175.091 42.4043 174.544 42.5361 174.098 42.7998C173.659 43.0576 173.383 43.415 173.272 43.8721H172.103C172.214 43.1221 172.604 42.5186 173.272 42.0615C173.946 41.6045 174.781 41.376 175.777 41.376C176.884 41.376 177.74 41.6514 178.343 42.2021C178.953 42.7471 179.257 43.5146 179.257 44.5049V51H178.15V49.374H178.045C177.757 49.9365 177.338 50.376 176.788 50.6924C176.237 51.0029 175.613 51.1582 174.916 51.1582ZM194.643 49.9102V51H187.093V38.3174H188.297V49.9102H194.643ZM197.023 38.3174H201.531C202.744 38.3174 203.723 38.6836 204.467 39.416C205.217 40.1484 205.592 41.1064 205.592 42.29C205.592 43.4561 205.214 44.4023 204.458 45.1289C203.702 45.8555 202.721 46.2188 201.514 46.2188H198.227V51H197.023V38.3174ZM198.227 39.3896V45.1465H201.241C202.22 45.1465 202.984 44.8945 203.535 44.3906C204.092 43.8809 204.37 43.1807 204.37 42.29C204.37 41.376 204.095 40.6641 203.544 40.1543C202.999 39.6445 202.232 39.3896 201.241 39.3896H198.227Z" fill="white"/>
<defs>
<filter id="filter0_i_158_416" x="0" y="0" width="260" height="90" filterUnits="userSpaceOnUse" color-interpolation-filters="sRGB">
<feFlood flood-opacity="0" result="BackgroundImageFix"/>
<feBlend mode="normal" in="SourceGraphic" in2="BackgroundImageFix" result="shape"/>
<feColorMatrix in="SourceAlpha" type="matrix" values="0 0 0 0 0 0 0 0 0 0 0 0 0 0 0 0 0 0 127 0" result="hardAlpha"/>
<feMorphology radius="1" operator="erode" in="SourceAlpha" result="effect1_innerShadow_158_416"/>
<feOffset/>
<feGaussianBlur stdDeviation="5"/>
<feComposite in2="hardAlpha" operator="arithmetic" k2="-1" k3="1"/>
<feColorMatrix type="matrix" values="0 0 0 0 0.0117647 0 0 0 0 0.780392 0 0 0 0 0.388235 0 0 0 1 0"/>
<feBlend mode="normal" in2="shape" result="effect1_innerShadow_158_416"/>
</filter>
</defs>
</svg>
