<svg width="351" height="300" viewBox="0 0 351 300" fill="none" xmlns="http://www.w3.org/2000/svg">
<path d="M282.116 187.271C297.034 197.042 307.125 209.292 307.125 224.021V252.167H351V230.292C351 204.917 310.343 190.625 282.116 187.271Z" fill="#C4C4C7"/>
<path fill-rule="evenodd" clip-rule="evenodd" d="M175.5 179.25C141.277 179.25 73.125 196.312 73.125 230.292V252.167H277.875V230.292C277.875 196.312 209.722 179.25 175.5 179.25ZM237.364 223C222.885 215.708 197.876 208.417 175.5 208.417C153.124 208.417 128.115 215.708 113.636 223H237.364Z" fill="#C4C4C7"/>
<path d="M68.8837 187.271C40.6575 190.625 0 204.917 0 230.292V252.167H43.875V224.021C43.875 209.292 53.9662 197.042 68.8837 187.271Z" fill="#C4C4C7"/>
<path d="M80.4375 91.75C70.7405 91.75 61.4407 95.5911 54.5839 102.428C47.7271 109.266 43.875 118.539 43.875 128.208C43.875 141.917 51.6262 153.729 62.7412 160C68.0062 162.917 74.0025 164.667 80.4375 164.667C86.8725 164.667 92.8687 162.917 98.1337 160C103.545 156.937 108.079 152.562 111.442 147.312C100.788 133.467 95.0285 116.494 95.0625 99.0417V94.9583C90.675 92.9167 85.7025 91.75 80.4375 91.75Z" fill="#C4C4C7"/>
<path fill-rule="evenodd" clip-rule="evenodd" d="M175.5 48C161.924 48 148.904 53.3776 139.305 62.9498C129.705 72.5219 124.312 85.5046 124.312 99.0417C124.312 112.579 129.705 125.561 139.305 135.134C148.904 144.706 161.924 150.083 175.5 150.083C189.076 150.083 202.095 144.706 211.695 135.134C221.295 125.561 226.687 112.579 226.687 99.0417C226.687 85.5046 221.295 72.5219 211.695 62.9498C202.095 53.3776 189.076 48 175.5 48ZM191.012 83.5737C186.898 79.4713 181.318 77.1667 175.5 77.1667C169.682 77.1667 164.102 79.4713 159.988 83.5737C155.874 87.6761 153.562 93.2401 153.562 99.0417C153.562 104.843 155.874 110.407 159.988 114.51C164.102 118.612 169.682 120.917 175.5 120.917C181.318 120.917 186.898 118.612 191.012 114.51C195.126 110.407 197.437 104.843 197.437 99.0417C197.437 93.2401 195.126 87.6761 191.012 83.5737Z" fill="#C4C4C7"/>
<path d="M270.562 91.75C265.297 91.75 260.325 92.9167 255.937 94.9583V99.0417C255.937 116.542 250.234 133.458 239.557 147.312C241.312 150.083 243.214 152.271 245.408 154.458C252.15 160.981 261.168 164.641 270.562 164.667C276.997 164.667 282.994 162.917 288.259 160C299.374 153.729 307.125 141.917 307.125 128.208C307.125 118.539 303.273 109.266 296.416 102.428C289.559 95.5911 280.259 91.75 270.562 91.75Z" fill="#C4C4C7"/>
<path d="M175.5 77.1667C181.318 77.1667 186.898 79.4713 191.012 83.5737C195.126 87.6761 197.437 93.2401 197.437 99.0417C197.437 104.843 195.126 110.407 191.012 114.51C186.898 118.612 181.318 120.917 175.5 120.917C169.682 120.917 164.102 118.612 159.988 114.51C155.874 110.407 153.562 104.843 153.562 99.0417C153.562 93.2401 155.874 87.6761 159.988 83.5737C164.102 79.4713 169.682 77.1667 175.5 77.1667Z" fill="#3B3B43"/>
</svg>
