<svg width="300" height="280" viewBox="0 0 300 280" fill="none" xmlns="http://www.w3.org/2000/svg">
<path fill-rule="evenodd" clip-rule="evenodd" d="M195 70C195 94.8535 174.854 115 150 115C125.146 115 105 94.8535 105 70C105 45.1465 125.146 25 150 25C174.854 25 195 45.1465 195 70ZM186 70C186 79.5478 182.207 88.7045 175.456 95.4558C168.705 102.207 159.548 106 150 106C140.452 106 131.295 102.207 124.544 95.4558C117.793 88.7045 114 79.5478 114 70C114 60.4522 117.793 51.2955 124.544 44.5442C131.295 37.7928 140.452 34 150 34C159.548 34 168.705 37.7928 175.456 44.5442C182.207 51.2955 186 60.4522 186 70Z" fill="#C4C4C7"/>
<path d="M186 70C186 79.5478 182.207 88.7045 175.456 95.4558C168.705 102.207 159.548 106 150 106C140.452 106 131.295 102.207 124.544 95.4558C117.793 88.7045 114 79.5478 114 70C114 60.4522 117.793 51.2955 124.544 44.5442C131.295 37.7928 140.452 34 150 34C159.548 34 168.705 37.7928 175.456 44.5442C182.207 51.2955 186 60.4522 186 70Z" fill="#3B3B43"/>
<path d="M150 127.5C181.757 127.5 207.5 101.757 207.5 70C207.5 38.2429 181.757 12.5 150 12.5C118.243 12.5 92.5 38.2429 92.5 70C92.5 101.757 118.243 127.5 150 127.5Z" stroke="#C4C4C7" stroke-width="25"/>
<rect x="100" y="243" width="103" height="29" fill="#C4C4C7"/>
<rect x="108.45" y="169.92" width="82.1" height="24" fill="#C4C4C7"/>
<line x1="107" y1="272.125" x2="207" y2="272.125" stroke="#C4C4C7" stroke-width="0.3"/>
<path fill-rule="evenodd" clip-rule="evenodd" d="M99.282 164.091C107.721 164.091 117.897 165.482 129.191 168.109L108.466 193.918L99.282 193.455C62.4236 193.455 23.5795 216.018 23.5795 225.909V242.909H100.523L124.103 272.273H0V225.909C0 184.8 66.1467 164.091 99.282 164.091Z" fill="#C4C4C7"/>
<path fill-rule="evenodd" clip-rule="evenodd" d="M199.718 164.091C191.279 164.091 181.103 165.482 169.809 168.109L190.534 193.918L199.718 193.455C236.576 193.455 275.421 216.018 275.421 225.909V242.909H198.477L174.897 272.273H299V225.909C299 184.8 232.853 164.091 199.718 164.091Z" fill="#C4C4C7"/>
<path d="M164 272L167.647 230.884L162.574 197.818C164.193 197.5 165.684 196.764 166.876 195.694C168.068 194.624 168.913 193.263 169.315 191.766L173.726 175.32C174.052 174.108 174.077 172.843 173.8 171.621C173.523 170.398 172.95 169.251 172.126 168.266C171.302 167.28 170.248 166.483 169.044 165.934C167.84 165.386 166.517 165.1 165.176 165.098H134.841C133.501 165.099 132.178 165.384 130.974 165.931C129.769 166.479 128.715 167.276 127.89 168.26C127.065 169.244 126.491 170.391 126.213 171.613C125.934 172.835 125.958 174.1 126.282 175.312L130.694 191.758C131.094 193.256 131.938 194.619 133.131 195.691C134.323 196.762 135.815 197.5 137.435 197.818L132.353 230.884L136.5 272H164Z" fill="#B2B2B2"/>
</svg>
