<svg width="25" height="25" viewBox="0 0 25 25" fill="none" xmlns="http://www.w3.org/2000/svg">
<path d="M12.5 2.08333C11.1321 2.08333 9.77756 2.35277 8.51375 2.87625C7.24995 3.39974 6.10162 4.16703 5.13435 5.1343C3.18084 7.08781 2.08337 9.73733 2.08337 12.5C2.08337 17.1042 5.07296 21.0104 9.20837 22.3958C9.72921 22.4792 9.89587 22.1562 9.89587 21.875V20.1146C7.01046 20.7396 6.39587 18.7187 6.39587 18.7187C5.91671 17.5104 5.23962 17.1875 5.23962 17.1875C4.29171 16.5417 5.31254 16.5625 5.31254 16.5625C6.35421 16.6354 6.90629 17.6354 6.90629 17.6354C7.81254 19.2187 9.34379 18.75 9.93754 18.5C10.0313 17.8229 10.3021 17.3646 10.5938 17.1042C8.28129 16.8437 5.85421 15.9479 5.85421 11.9792C5.85421 10.8229 6.25004 9.89583 6.92712 9.15625C6.82296 8.89583 6.45837 7.8125 7.03129 6.40625C7.03129 6.40625 7.90629 6.125 9.89587 7.46875C10.7188 7.23958 11.6146 7.125 12.5 7.125C13.3855 7.125 14.2813 7.23958 15.1042 7.46875C17.0938 6.125 17.9688 6.40625 17.9688 6.40625C18.5417 7.8125 18.1771 8.89583 18.073 9.15625C18.75 9.89583 19.1459 10.8229 19.1459 11.9792C19.1459 15.9583 16.7084 16.8333 14.3855 17.0937C14.7605 17.4167 15.1042 18.0521 15.1042 19.0208V21.875C15.1042 22.1562 15.2709 22.4896 15.8021 22.3958C19.9375 21 22.9167 17.1042 22.9167 12.5C22.9167 11.1321 22.6473 9.77752 22.1238 8.51371C21.6003 7.2499 20.833 6.10158 19.8657 5.1343C18.8985 4.16703 17.7501 3.39974 16.4863 2.87625C15.2225 2.35277 13.868 2.08333 12.5 2.08333Z" fill="currentColor"/>
</svg>
