<svg width="25" height="26" viewBox="0 0 25 26" fill="none" xmlns="http://www.w3.org/2000/svg">
<path fill-rule="evenodd" clip-rule="evenodd" d="M14.4046 6.126C13.6232 5.3446 12.5634 4.90561 11.4583 4.90561C10.3533 4.90561 9.29346 5.3446 8.51205 6.126C7.73065 6.9074 7.29167 7.96721 7.29167 9.07228C7.29167 10.1773 7.73065 11.2372 8.51205 12.0186C9.29346 12.8 10.3533 13.2389 11.4583 13.2389C12.5634 13.2389 13.6232 12.8 14.4046 12.0186C15.186 11.2372 15.625 10.1773 15.625 9.07228C15.625 7.96721 15.186 6.9074 14.4046 6.126ZM9.98519 7.59914C10.3759 7.20844 10.9058 6.98894 11.4583 6.98894C12.0109 6.98894 12.5408 7.20844 12.9315 7.59914C13.3222 7.98984 13.5417 8.51974 13.5417 9.07228C13.5417 9.62481 13.3222 10.1547 12.9315 10.5454C12.5408 10.9361 12.0109 11.1556 11.4583 11.1556C10.9058 11.1556 10.3759 10.9361 9.98519 10.5454C9.59449 10.1547 9.375 9.62481 9.375 9.07228C9.375 8.51974 9.59449 7.98984 9.98519 7.59914ZM13.9687 14.5514C13.0208 14.3744 12.1667 14.2806 11.4583 14.2806C8.67708 14.2806 3.125 15.6764 3.125 18.4473V21.5723H13.5417L11.5625 19.5931H5.10417V18.4473C5.10417 17.7806 8.36458 16.2598 11.4583 16.2598L12.2292 16.291L13.9687 14.5514Z" fill="#C4C4C7"/>
<path d="M21.9792 13.7598L23.4375 15.2285L16.6354 22.0931L13.0208 18.4473L14.4792 16.9785L16.6354 19.1452L21.9792 13.7598Z" fill="#B2B2B2"/>
<path d="M11.4583 6.98894C10.9058 6.98894 10.3759 7.20844 9.98519 7.59914C9.59449 7.98984 9.375 8.51974 9.375 9.07228C9.375 9.62481 9.59449 10.1547 9.98519 10.5454C10.3759 10.9361 10.9058 11.1556 11.4583 11.1556C12.0109 11.1556 12.5408 10.9361 12.9315 10.5454C13.3222 10.1547 13.5417 9.62481 13.5417 9.07228C13.5417 8.51974 13.3222 7.98984 12.9315 7.59914C12.5408 7.20844 12.0109 6.98894 11.4583 6.98894Z" fill="#3B3B43"/>
</svg>
