<svg width="21" height="21" viewBox="0 0 21 21" fill="none" xmlns="http://www.w3.org/2000/svg">
<g clip-path="url(#clip0_89_1157)">
<path d="M10.5 20.5C16.0229 20.5 20.5 16.0229 20.5 10.5C20.5 4.97708 16.0229 0.5 10.5 0.5C4.97708 0.5 0.5 4.97708 0.5 10.5C0.5 16.0229 4.97708 20.5 10.5 20.5Z" fill="currentColor"/>
<path d="M6.18749 5.98708V9.38875C6.7054 8.77125 7.32624 8.46042 8.04624 8.46042C8.41707 8.46042 8.74915 8.53125 9.04707 8.67167C9.34582 8.81125 9.56915 8.99042 9.71999 9.20792C9.87165 9.4275 9.97415 9.66792 10.0296 9.93292C10.0846 10.1967 10.1121 10.6071 10.1121 11.1637V14.8008H8.5029V11.525C8.5029 10.875 8.47374 10.4633 8.41249 10.2883C8.3551 10.1169 8.24126 9.97001 8.08957 9.87167C7.93457 9.76708 7.74165 9.71542 7.50874 9.71542C7.24207 9.71542 7.0029 9.78208 6.79499 9.91458C6.58249 10.0479 6.42999 10.2471 6.33332 10.5133C6.23499 10.78 6.18582 11.1737 6.18749 11.695L6.18582 14.8008H4.57874V5.98708H6.1879M12.5237 5.98708V9.38875C13.0421 8.77125 13.6625 8.46042 14.3821 8.46042C14.7517 8.46042 15.0862 8.53125 15.3846 8.67167C15.6821 8.81125 15.9054 8.99042 16.0554 9.20792C16.2068 9.42604 16.3121 9.67273 16.365 9.93292C16.4204 10.1967 16.4479 10.6071 16.4479 11.1637V14.8008H14.8404V11.525C14.8404 10.875 14.81 10.4633 14.7487 10.2883C14.6913 10.1167 14.5771 9.9697 14.425 9.87167C14.2717 9.76708 14.0771 9.71542 13.8442 9.71542C13.5779 9.71542 13.3387 9.78208 13.1304 9.91458C12.9208 10.0479 12.7675 10.2471 12.6696 10.5133C12.5729 10.78 12.5237 11.1737 12.5237 11.695V14.8008H10.9167V5.98708H12.5237Z" fill="#28252F"/>
</g>
<defs>
<clipPath id="clip0_89_1157">
<rect width="20" height="20" fill="currentColor" transform="translate(0.5 0.5)"/>
</clipPath>
</defs>
</svg>
