<svg width="276" height="276" viewBox="0 0 276 276" fill="none" xmlns="http://www.w3.org/2000/svg">
<path d="M21.1359 80.438C15.9266 85.9538 13 93.4348 13 101.235V233.588C13 241.389 15.9266 248.87 21.1359 254.385C26.3453 259.901 33.4107 263 40.7778 263H235.222C242.589 263 249.655 259.901 254.864 254.385C260.073 248.87 263 241.389 263 233.588V101.235C263 93.4348 260.073 85.9538 254.864 80.438C249.655 74.9223 242.589 71.8235 235.222 71.8235H193.556H82.4445H40.7778C33.4107 71.8235 26.3453 74.9223 21.1359 80.438Z" fill="#3D4044"/>
<path d="M40.7778 71.8235C33.4107 71.8235 26.3453 74.9223 21.1359 80.438C15.9266 85.9538 13 93.4348 13 101.235V233.588C13 241.389 15.9266 248.87 21.1359 254.385C26.3453 259.901 33.4107 263 40.7778 263H235.222C242.589 263 249.655 259.901 254.864 254.385C260.073 248.87 263 241.389 263 233.588V101.235C263 93.4348 260.073 85.9538 254.864 80.438C249.655 74.9223 242.589 71.8235 235.222 71.8235M40.7778 71.8235H235.222M40.7778 71.8235H82.4445M235.222 71.8235H193.556M82.4445 71.8235V42.4118C82.4445 34.6113 85.371 27.1303 90.5804 21.6145C95.7897 16.0987 102.855 13 110.222 13H165.778C173.145 13 180.21 16.0987 185.42 21.6145C190.629 27.1303 193.556 34.6113 193.556 42.4118V71.8235M82.4445 71.8235H193.556M131.636 145.5H144.818" stroke="#BABABD" stroke-width="25" stroke-linecap="round" stroke-linejoin="round"/>
<path d="M13 160.059C51.772 180.745 94.5838 191.521 138 191.521C181.416 191.521 224.228 180.745 263 160.059" stroke="#BABABD" stroke-width="25" stroke-linecap="round" stroke-linejoin="round"/>
</svg>
