<svg width="5" height="5" viewBox="0 0 5 5" fill="none" xmlns="http://www.w3.org/2000/svg">
<path fill-rule="evenodd" clip-rule="evenodd" d="M4.58326 1.72767C4.58326 2.45183 3.99368 3.03892 3.2666 3.03892C3.1341 3.03892 2.83201 3.0085 2.68514 2.88642L2.50139 3.06933C2.39326 3.17704 2.42243 3.20871 2.47056 3.26079C2.49056 3.28267 2.51389 3.30788 2.53201 3.34392C2.53201 3.34392 2.68514 3.55725 2.53201 3.77079C2.44014 3.89267 2.18285 4.06329 1.8891 3.77079L1.82785 3.83163C1.82785 3.83163 2.01139 4.04517 1.85847 4.25871C1.7666 4.38058 1.5216 4.50246 1.30722 4.28913L1.09306 4.50246C0.945972 4.64892 0.766388 4.5635 0.695138 4.50246L0.51118 4.31954C0.339722 4.14871 0.439722 3.96371 0.51118 3.89246L2.10326 2.30704C2.10326 2.30704 1.95014 2.06329 1.95014 1.72788C1.95014 1.00371 2.53972 0.416626 3.2668 0.416626C3.99389 0.416626 4.58326 1.00371 4.58326 1.72767ZM3.2668 2.18517C3.38833 2.18539 3.50496 2.13734 3.59107 2.05159C3.67717 1.96584 3.7257 1.8494 3.72597 1.72788C3.72586 1.66769 3.7139 1.60811 3.69076 1.55254C3.66763 1.49698 3.63378 1.44651 3.59114 1.40403C3.5485 1.36155 3.49791 1.32788 3.44227 1.30495C3.38662 1.28201 3.32699 1.27027 3.2668 1.27038C3.20662 1.27027 3.14699 1.28201 3.09134 1.30495C3.0357 1.32788 2.98511 1.36155 2.94247 1.40403C2.89983 1.44651 2.86598 1.49698 2.84285 1.55254C2.81971 1.60811 2.80775 1.66769 2.80764 1.72788C2.80791 1.8494 2.85644 1.96584 2.94254 2.05159C3.02865 2.13734 3.14528 2.18539 3.2668 2.18517Z" fill="#191923"/>
</svg>
