<svg width="300" height="300" viewBox="0 0 300 300" fill="none" xmlns="http://www.w3.org/2000/svg">
<path d="M218.108 118.221L258.975 159.086C265.606 165.629 270.878 173.419 274.486 182.007C278.095 190.596 279.968 199.813 280 209.129C280.031 218.445 278.219 227.674 274.668 236.287C271.118 244.899 265.898 252.725 259.311 259.312C252.723 265.899 244.898 271.118 236.285 274.668C227.672 278.219 218.442 280.031 209.126 280C199.809 279.968 190.592 278.095 182.003 274.487C173.414 270.878 165.623 265.607 159.08 258.976L145.466 245.363C143.626 243.587 142.157 241.462 141.146 239.112C140.135 236.762 139.603 234.234 139.579 231.677C139.556 229.119 140.042 226.582 141.01 224.214C141.977 221.846 143.407 219.695 145.215 217.885C147.023 216.075 149.173 214.644 151.54 213.674C153.907 212.705 156.444 212.216 159.002 212.237C161.56 212.258 164.088 212.788 166.439 213.797C168.79 214.805 170.916 216.272 172.694 218.111L186.334 231.737C192.365 237.713 200.518 241.058 209.009 241.038C217.501 241.018 225.638 237.636 231.642 231.631C237.645 225.626 241.025 217.488 241.043 208.997C241.06 200.507 237.713 192.355 231.734 186.325L190.867 145.46C186.45 141.041 180.84 138.007 174.723 136.73C168.607 135.452 162.251 135.987 156.434 138.268C154.362 139.09 152.419 139.929 150.604 140.785L144.644 143.572C136.682 147.168 130.555 148.709 122.76 140.927C111.56 129.728 114.463 119.39 128.115 109.976C141.715 100.618 158.163 96.3193 174.602 97.8255C191.042 99.3317 206.435 106.548 218.108 118.221Z" fill="#6A6C6F"/>
<path d="M140.92 41.0369L154.534 54.6501C158.045 58.2816 159.989 63.1468 159.947 68.1978C159.906 73.2488 157.882 78.0814 154.312 81.6548C150.742 85.2282 145.911 87.2564 140.86 87.3027C135.808 87.3489 130.941 85.4095 127.306 81.9021L113.679 68.2889C110.718 65.2216 107.176 62.7747 103.259 61.0909C99.3424 59.4071 95.1294 58.5202 90.8661 58.482C86.6029 58.4438 82.3747 59.2549 78.4282 60.8681C74.4818 62.4814 70.8962 64.8644 67.8807 67.8781C64.8651 70.8918 62.48 74.4758 60.8644 78.4212C59.2489 82.3665 58.4353 86.594 58.4711 90.8571C58.507 95.1202 59.3915 99.3334 61.0731 103.251C62.7548 107.169 65.1998 110.712 68.2656 113.675L109.133 154.54C113.55 158.959 119.161 161.993 125.277 163.27C131.393 164.548 137.749 164.013 143.566 161.732C145.638 160.91 147.581 160.071 149.396 159.215L155.356 156.428C163.318 152.832 169.458 151.291 177.241 159.073C188.44 170.272 185.537 180.61 171.885 190.024C158.285 199.382 141.837 203.681 125.398 202.175C108.958 200.668 93.5651 193.452 81.8923 181.779L41.0251 140.914C34.3936 134.371 29.122 126.581 25.5136 117.992C21.9053 109.404 20.0316 100.187 20.0004 90.871C19.9692 81.5554 21.7811 72.3256 25.3318 63.7131C28.8825 55.1006 34.1019 47.2755 40.6893 40.6883C47.2768 34.1011 55.1023 28.8821 63.7153 25.3315C72.3282 21.781 81.5584 19.9692 90.8745 20.0004C100.191 20.0316 109.408 21.9052 117.997 25.5134C126.586 29.1215 134.377 34.4058 140.92 41.0369Z" fill="#BABABD"/>
</svg>
