<svg width="22" height="22" viewBox="0 0 22 22" fill="none" xmlns="http://www.w3.org/2000/svg">
<path d="M2 5C2 3.34315 3.34315 2 5 2H8.94766C9.62887 2 10.2898 2.23184 10.8217 2.65739L11.6783 3.34261C12.2102 3.76816 12.8711 4 13.5523 4H17C18.6569 4 20 5.34315 20 7V11C20 12.6569 18.6569 14 17 14H5C3.34315 14 2 12.6569 2 11V5Z" fill="white" fill-opacity="0.15"/>
<path d="M2.75 5C2.75 3.75736 3.75736 2.75 5 2.75H8.94766C9.45857 2.75 9.95427 2.92388 10.3532 3.24305L11.2097 3.92826C11.8747 4.4602 12.7008 4.75 13.5523 4.75H17C18.2426 4.75 19.25 5.75736 19.25 7V11C19.25 12.2426 18.2426 13.25 17 13.25H5C3.75736 13.25 2.75 12.2426 2.75 11V5Z" stroke="white" stroke-opacity="0.7" stroke-width="1.5"/>
<rect x="2" y="7" width="18" height="13" rx="3" fill="black"/>
<rect x="2.75" y="7.75" width="16.5" height="11.5" rx="2.25" stroke="white" stroke-opacity="0.7" stroke-width="1.5"/>
</svg>
