<svg width="300" height="300" viewBox="0 0 300 300" fill="none" xmlns="http://www.w3.org/2000/svg">
<path d="M231.037 209.588C213.952 213.69 196.116 213.491 179.126 209.009C162.136 204.527 146.524 195.901 133.686 183.904C120.848 171.907 111.185 156.913 105.564 140.266C99.9426 123.618 98.5377 105.836 101.475 88.5125C101.035 88.9512 100.563 89.3565 100.063 89.725C96.5625 92.3875 92.1875 93.375 83.4375 95.35L75.5 97.15C44.75 104.113 29.375 107.588 25.7125 119.35C22.0625 131.1 32.5375 143.363 53.5 167.875L58.925 174.213C64.875 181.175 67.8625 184.662 69.2 188.962C70.5375 193.275 70.0875 197.925 69.1875 207.212L68.3625 215.675C65.2 248.387 63.6125 264.737 73.1875 272C82.7625 279.262 97.1625 272.65 125.937 259.387L133.4 255.962C141.575 252.187 145.662 250.312 150 250.312C154.337 250.312 158.425 252.187 166.612 255.962L174.05 259.387C202.837 272.637 217.237 279.262 226.8 272.012C236.387 264.737 234.8 248.387 231.637 215.675L231.037 209.588Z" fill="#BABABD"/>
<path opacity="0.5" d="M114.412 67.6L110.312 74.95C105.812 83.025 103.562 87.0625 100.062 89.725C100.562 89.35 101.033 88.9458 101.475 88.5125C98.5368 105.838 99.9417 123.621 105.564 140.27C111.186 156.919 120.849 171.913 133.689 183.911C146.528 195.908 162.143 204.533 179.135 209.015C196.126 213.496 213.964 213.693 231.05 209.588L230.8 207.212C229.912 197.925 229.462 193.275 230.8 188.962C232.137 184.662 235.112 181.175 241.075 174.213L246.5 167.875C267.462 143.375 277.937 131.113 274.275 119.35C270.625 107.588 255.25 104.1 224.5 97.15L216.55 95.35C207.812 93.375 203.437 92.3875 199.925 89.725C196.425 87.0625 194.175 83.025 189.675 74.95L185.587 67.6C169.75 39.2 161.837 25 150 25C138.162 25 130.25 39.2 114.412 67.6Z" fill="#BABABD"/>
</svg>
