<svg width="33" height="32" viewBox="0 0 33 32" fill="none" xmlns="http://www.w3.org/2000/svg">
<path d="M15.6359 1.48359C16.0216 0.821321 16.9784 0.821321 17.3641 1.48359L21.9356 9.33243C22.0769 9.57503 22.3137 9.74706 22.5881 9.80647L31.4655 11.7288C32.2145 11.891 32.5102 12.801 31.9995 13.3725L25.9475 20.1457C25.7605 20.355 25.67 20.6334 25.6983 20.9127L26.6133 29.9496C26.6905 30.7122 25.9165 31.2745 25.2151 30.9655L16.9032 27.3027C16.6463 27.1895 16.3537 27.1895 16.0968 27.3027L7.78487 30.9655C7.08353 31.2745 6.3095 30.7122 6.38671 29.9496L7.30169 20.9127C7.32997 20.6334 7.23953 20.355 7.05247 20.1457L1.00046 13.3725C0.489806 12.801 0.785459 11.891 1.53451 11.7288L10.4119 9.80647C10.6863 9.74706 10.9231 9.57503 11.0644 9.33243L15.6359 1.48359Z" fill="currentColor"/>
</svg>
