<svg width="25" height="25" viewBox="0 0 25 25" fill="none" xmlns="http://www.w3.org/2000/svg">
<path d="M12.4999 2.08333C6.74992 2.08333 2.08325 6.75 2.08325 12.5C2.08325 18.25 6.74992 22.9167 12.4999 22.9167C18.2499 22.9167 22.9166 18.25 22.9166 12.5C22.9166 6.75 18.2499 2.08333 12.4999 2.08333ZM17.3333 9.16667C17.177 10.8125 16.4999 14.8125 16.1562 16.6562C16.0103 17.4375 15.7187 17.6979 15.4478 17.7292C14.8437 17.7812 14.3853 17.3333 13.802 16.9479C12.8853 16.3437 12.3645 15.9687 11.4791 15.3854C10.4478 14.7083 11.1145 14.3333 11.7083 13.7292C11.8645 13.5729 14.5312 11.1458 14.5833 10.9271C14.5905 10.8939 14.5895 10.8596 14.5804 10.8269C14.5714 10.7942 14.5545 10.7642 14.5312 10.7396C14.4687 10.6875 14.3853 10.7083 14.3124 10.7187C14.2187 10.7396 12.7603 11.7083 9.91659 13.625C9.49992 13.9062 9.12492 14.0521 8.79158 14.0417C8.41658 14.0312 7.70825 13.8333 7.177 13.6562C6.52075 13.4479 6.01033 13.3333 6.052 12.9687C6.07283 12.7812 6.33325 12.5937 6.82284 12.3958C9.8645 11.0729 11.8853 10.1979 12.8958 9.78125C15.7916 8.57292 16.3853 8.36458 16.7812 8.36458C16.8645 8.36458 17.0624 8.38541 17.1874 8.48958C17.2916 8.57291 17.3228 8.6875 17.3333 8.77083C17.3228 8.83333 17.3437 9.02083 17.3333 9.16667Z" fill="currentColor"/>
</svg>
