<svg width="20" height="20" viewBox="0 0 20 20" fill="none" xmlns="http://www.w3.org/2000/svg">
<path d="M20 7.77773V17.7777C20.0002 18.3383 19.7884 18.8783 19.4072 19.2894C19.026 19.7005 18.5035 19.9523 17.9444 19.9943L17.7778 19.9999H8.88889V7.77773H20Z" fill="#49A2E2"/>
<path fill-rule="evenodd" clip-rule="evenodd" d="M6.66667 7.77773V19.9999H2.22222C1.66158 20 1.12159 19.7883 0.710502 19.4071C0.299412 19.0259 0.0476037 18.5034 0.00555568 17.9443L0 17.7777V7.77773H6.66667Z" fill="#14AE5C"/>
<path d="M17.7778 0C18.3671 0 18.9324 0.234125 19.3491 0.650869C19.7659 1.06761 20 1.63284 20 2.22221V5.55552H0V2.22221C0 1.63284 0.234126 1.06761 0.650874 0.650869C1.06762 0.234125 1.63285 0 2.22222 0H17.7778Z" fill="#AE2B14"/>
</svg>
