<svg width="28" height="26" viewBox="0 0 28 26" fill="none" xmlns="http://www.w3.org/2000/svg">
<rect x="4" y="1" width="20" height="20" rx="5" fill="#F9EF76"/>
<g filter="url(#filter0_d_133_312)">
<mask id="mask0_133_312" style="mask-type:luminance" maskUnits="userSpaceOnUse" x="5" y="3" width="18" height="16">
<path d="M5 3.10876H22.5051V18.2047H5V3.10876Z" fill="white"/>
</mask>
<g mask="url(#mask0_133_312)">
<path fill-rule="evenodd" clip-rule="evenodd" d="M17.216 18.2047L11.6523 14.292L5.87472 13.0034L5 8.1389L10.6218 3.10876L21.0517 5.4349L22.5051 13.4845L17.216 18.2047Z" fill="#F9EF76"/>
</g>
<path fill-rule="evenodd" clip-rule="evenodd" d="M17.2266 14.605C17.1455 14.6071 17.0648 14.5929 16.9893 14.5633C16.9137 14.5337 16.8449 14.4893 16.7868 14.4326C16.7287 14.376 16.6825 14.3083 16.651 14.2335C16.6195 14.1588 16.6032 14.0785 16.6032 13.9973C16.6032 13.9162 16.6195 13.8359 16.651 13.7611C16.6825 13.6863 16.7287 13.6187 16.7868 13.562C16.8449 13.5054 16.9137 13.4609 16.9893 13.4313C17.0648 13.4017 17.1455 13.3875 17.2266 13.3896C17.3851 13.3936 17.5358 13.4595 17.6464 13.573C17.7571 13.6865 17.819 13.8388 17.819 13.9973C17.819 14.1559 17.7571 14.3081 17.6464 14.4217C17.5358 14.5352 17.3851 14.601 17.2266 14.605ZM16.6191 7.73535C16.6191 7.57422 16.6831 7.4197 16.797 7.30576C16.911 7.19183 17.0655 7.12782 17.2266 7.12782C17.3878 7.12782 17.5423 7.19183 17.6562 7.30576C17.7701 7.4197 17.8342 7.57422 17.8342 7.73535C17.8342 7.89647 17.7701 8.051 17.6562 8.16493C17.5423 8.27886 17.3878 8.34287 17.2266 8.34287C17.0655 8.34287 16.911 8.27886 16.797 8.16493C16.6831 8.051 16.6191 7.89647 16.6191 7.73535ZM14.4218 10.8552C14.3407 10.8572 14.26 10.843 14.1845 10.8134C14.1089 10.7838 14.0401 10.7394 13.982 10.6828C13.9239 10.6261 13.8777 10.5584 13.8462 10.4837C13.8147 10.4089 13.7984 10.3286 13.7984 10.2475C13.7984 10.1663 13.8147 10.086 13.8462 10.0112C13.8777 9.93647 13.9239 9.86878 13.982 9.81214C14.0401 9.75551 14.1089 9.71107 14.1845 9.68146C14.26 9.65185 14.3407 9.63766 14.4218 9.63973C14.5803 9.64377 14.731 9.70957 14.8416 9.8231C14.9523 9.93663 15.0142 10.0889 15.0142 10.2475C15.0142 10.406 14.9523 10.5583 14.8416 10.6718C14.731 10.7853 14.5803 10.8511 14.4218 10.8552ZM8.74307 9.58242C8.58184 9.58242 8.42721 9.51837 8.3132 9.40436C8.1992 9.29036 8.13515 9.13573 8.13515 8.9745C8.13515 8.81327 8.1992 8.65864 8.3132 8.54464C8.42721 8.43063 8.58184 8.36658 8.74307 8.36658C8.90429 8.36658 9.05892 8.43063 9.17293 8.54464C9.28693 8.65864 9.35098 8.81327 9.35098 8.9745C9.35098 9.13573 9.28693 9.29036 9.17293 9.40436C9.05892 9.51837 8.90429 9.58242 8.74307 9.58242ZM17.459 12.9517V8.78122C17.6971 8.72824 17.91 8.59581 18.0627 8.40572C18.2154 8.21563 18.2989 7.9792 18.2994 7.73535C18.2991 7.45093 18.1859 7.17826 17.9848 6.97715C17.7837 6.77603 17.511 6.66291 17.2266 6.6626C16.9422 6.66291 16.6695 6.77603 16.4684 6.97715C16.2673 7.17826 16.1542 7.45093 16.1539 7.73535C16.1539 7.92586 16.208 8.10255 16.2954 8.2571L15.0448 9.37728C14.8636 9.24581 14.6456 9.17485 14.4218 9.1745C13.9949 9.1745 13.6281 9.42708 13.4558 9.78914L9.81542 8.97608L9.81581 8.9745C9.8155 8.69009 9.70238 8.41741 9.50127 8.2163C9.30016 8.01519 9.02748 7.90207 8.74307 7.90175C8.45858 7.90196 8.18581 8.01504 7.98461 8.21616C7.78341 8.41728 7.67024 8.69002 7.66992 8.9745C7.67024 9.25898 7.78341 9.53172 7.98461 9.73284C8.18581 9.93396 8.45858 10.047 8.74307 10.0472C8.94651 10.0467 9.1456 9.98831 9.31708 9.87884C9.48856 9.76938 9.62535 9.61337 9.71146 9.42905L13.3499 10.2413L13.3491 10.2473C13.3493 10.5317 13.4624 10.8045 13.6635 11.0057C13.8646 11.2069 14.1374 11.3201 14.4218 11.3204C14.7063 11.3201 14.9791 11.2069 15.1802 11.0057C15.3813 10.8045 15.4944 10.5317 15.4946 10.2473C15.4933 10.064 15.4446 9.88425 15.3531 9.7255L16.6037 8.60532C16.7191 8.68833 16.8511 8.7496 16.9942 8.78122V12.9513C16.7561 13.0042 16.5432 13.1367 16.3904 13.3269C16.2377 13.5171 16.1543 13.7536 16.1539 13.9975C16.1543 14.2819 16.2675 14.5544 16.4686 14.7555C16.6697 14.9565 16.9423 15.0696 17.2266 15.0699C17.511 15.0696 17.7836 14.9565 17.9847 14.7555C18.1858 14.5544 18.299 14.2819 18.2994 13.9975C18.2989 13.7537 18.2154 13.5172 18.0627 13.3271C17.91 13.1371 17.6971 13.0046 17.459 12.9517Z" fill="#020303"/>
</g>
<defs>
<filter id="filter0_d_133_312" x="0" y="0.108765" width="27.5051" height="25.0959" filterUnits="userSpaceOnUse" color-interpolation-filters="sRGB">
<feFlood flood-opacity="0" result="BackgroundImageFix"/>
<feColorMatrix in="SourceAlpha" type="matrix" values="0 0 0 0 0 0 0 0 0 0 0 0 0 0 0 0 0 0 127 0" result="hardAlpha"/>
<feOffset dy="2"/>
<feGaussianBlur stdDeviation="2.5"/>
<feComposite in2="hardAlpha" operator="out"/>
<feColorMatrix type="matrix" values="0 0 0 0 0 0 0 0 0 0 0 0 0 0 0 0 0 0 0.7 0"/>
<feBlend mode="normal" in2="BackgroundImageFix" result="effect1_dropShadow_133_312"/>
<feBlend mode="normal" in="SourceGraphic" in2="effect1_dropShadow_133_312" result="shape"/>
</filter>
</defs>
</svg>
