<svg width="500" height="500" viewBox="0 0 500 500" fill="none" xmlns="http://www.w3.org/2000/svg">
<g filter="url(#filter0_i_343_807)">
<rect width="500" height="500" rx="140" fill="#1B1F23"/>
</g>
<path d="M314.5 99.5H357.5V142.5H314.5V99.5ZM314.5 185.5V315.897C314.472 326.922 310.079 337.488 302.284 345.284C294.488 353.079 283.922 357.472 272.897 357.5H271.5V400.5H272.897C284.009 400.506 295.013 398.321 305.28 394.072C315.547 389.822 324.876 383.59 332.733 375.733C340.59 367.876 346.822 358.547 351.072 348.28C355.321 338.013 357.506 327.009 357.5 315.897V185.5H314.5ZM228.5 99.5H271.5V314.5H228.5V99.5Z" fill="#43A047"/>
<path d="M205.259 207C211.42 207.009 217.327 209.46 221.683 213.817C226.04 218.173 228.491 224.08 228.5 230.242V283.508L220.222 286.271C210.462 289.526 199.975 289.928 189.994 287.432C182.565 285.579 175.97 281.293 171.259 275.258C166.549 269.222 163.993 261.784 164 254.128V248.248C164.009 237.309 168.359 226.821 176.094 219.087C183.83 211.353 194.32 207.006 205.259 207ZM205.259 164C182.915 164.006 161.489 172.883 145.689 188.681C129.889 204.479 121.009 225.905 121 248.248V254.128C120.995 271.373 126.757 288.124 137.369 301.717C147.981 315.31 162.835 324.963 179.566 329.141C197.481 333.621 216.303 332.898 233.821 327.056L271.5 314.5V230.242C271.503 221.542 269.791 212.927 266.463 204.889C263.135 196.851 258.256 189.547 252.105 183.395C245.953 177.244 238.649 172.365 230.611 169.037C222.573 165.709 213.958 163.997 205.259 164Z" fill="#43A047"/>
<defs>
<filter id="filter0_i_343_807" x="0" y="0" width="500" height="500" filterUnits="userSpaceOnUse" color-interpolation-filters="sRGB">
<feFlood flood-opacity="0" result="BackgroundImageFix"/>
<feBlend mode="normal" in="SourceGraphic" in2="BackgroundImageFix" result="shape"/>
<feColorMatrix in="SourceAlpha" type="matrix" values="0 0 0 0 0 0 0 0 0 0 0 0 0 0 0 0 0 0 127 0" result="hardAlpha"/>
<feMorphology radius="20" operator="erode" in="SourceAlpha" result="effect1_innerShadow_343_807"/>
<feOffset/>
<feGaussianBlur stdDeviation="25"/>
<feComposite in2="hardAlpha" operator="arithmetic" k2="-1" k3="1"/>
<feColorMatrix type="matrix" values="0 0 0 0 0.262745 0 0 0 0 0.627451 0 0 0 0 0.278431 0 0 0 1 0"/>
<feBlend mode="normal" in2="shape" result="effect1_innerShadow_343_807"/>
</filter>
</defs>
</svg>
