<svg width="500" height="500" viewBox="0 0 500 500" fill="none" xmlns="http://www.w3.org/2000/svg">
<g filter="url(#filter0_i_275_570)">
<rect width="500" height="500" rx="130" fill="#1B1F23"/>
</g>
<path d="M180.716 213.082L247.052 174.692C247.885 174.274 248.803 174.057 249.735 174.057C250.666 174.057 251.585 174.274 252.417 174.692L319.035 213.082C320.73 213.93 321.859 215.904 321.859 217.597V294.378C321.859 296.355 320.73 298.047 319.035 299.177L252.699 337.567C251.866 337.984 250.948 338.202 250.016 338.202C249.085 338.202 248.167 337.984 247.334 337.567L180.716 299.177C179.021 298.329 177.892 296.355 177.892 294.378V217.597C177.892 215.901 179.021 213.927 180.716 213.082Z" fill="#8080F2"/>
<path d="M422.635 248.082L343.311 109.764C340.489 104.683 335.127 101.014 329.198 101.014H170.553C164.909 101.014 159.544 104.683 156.441 109.764L77.1165 247.803C75.7294 250.308 75.0017 253.125 75.0017 255.988C75.0017 258.852 75.7294 261.669 77.1165 264.174L156.441 401.366C159.263 406.446 164.625 408.986 170.553 408.986H329.48C335.127 408.986 340.489 406.446 343.595 401.647L422.919 264.455C425.741 258.812 425.741 252.881 422.635 248.082ZM356.859 314.418C356.859 316.395 355.73 318.369 353.753 319.217L252.696 377.65C251.858 378.201 250.876 378.495 249.873 378.495C248.87 378.495 247.888 378.201 247.05 377.65L145.714 319.501C144.018 318.372 142.607 316.679 142.607 314.702V197.554C142.607 195.579 143.737 193.602 145.714 192.757L247.052 134.324C247.891 133.773 248.872 133.479 249.876 133.479C250.879 133.479 251.86 133.773 252.699 134.324L354.04 192.757C355.733 193.884 357.144 195.579 357.144 197.554V314.421L356.859 314.418Z" fill="#4B32C3"/>
<defs>
<filter id="filter0_i_275_570" x="0" y="0" width="500" height="500" filterUnits="userSpaceOnUse" color-interpolation-filters="sRGB">
<feFlood flood-opacity="0" result="BackgroundImageFix"/>
<feBlend mode="normal" in="SourceGraphic" in2="BackgroundImageFix" result="shape"/>
<feColorMatrix in="SourceAlpha" type="matrix" values="0 0 0 0 0 0 0 0 0 0 0 0 0 0 0 0 0 0 127 0" result="hardAlpha"/>
<feMorphology radius="20" operator="erode" in="SourceAlpha" result="effect1_innerShadow_275_570"/>
<feOffset/>
<feGaussianBlur stdDeviation="25"/>
<feComposite in2="hardAlpha" operator="arithmetic" k2="-1" k3="1"/>
<feColorMatrix type="matrix" values="0 0 0 0 0.294118 0 0 0 0 0.196078 0 0 0 0 0.764706 0 0 0 1 0"/>
<feBlend mode="normal" in2="shape" result="effect1_innerShadow_275_570"/>
</filter>
</defs>
</svg>
