<svg width="500" height="500" viewBox="0 0 500 500" fill="none" xmlns="http://www.w3.org/2000/svg">
<g filter="url(#filter0_i_343_818)">
<rect width="500" height="500" rx="140" fill="#1B1F23"/>
</g>
<path d="M216.076 92.0441L199.383 108.737L222.289 131.641L246.273 155.625C251.736 152.922 257.798 151.659 263.886 151.954C269.973 152.249 275.885 154.093 281.06 157.311C286.236 160.53 290.505 165.015 293.462 170.344C296.42 175.673 297.968 181.668 297.961 187.763C297.831 193.201 296.565 198.552 294.243 203.472L318.947 227.455C325.426 223.712 333.008 222.347 340.386 223.595C347.763 224.843 354.474 228.625 359.362 234.291C362.777 237.566 365.478 241.511 367.294 245.88C369.11 250.249 370.002 254.947 369.915 259.677C369.923 269.124 366.239 278.199 359.65 284.968C356.334 288.431 352.339 291.17 347.914 293.015C343.49 294.86 338.731 295.77 333.938 295.689C329.196 295.763 324.489 294.877 320.099 293.084C315.709 291.291 311.727 288.628 308.394 285.256C302.746 280.328 298.988 273.589 297.763 266.195C296.537 258.8 297.922 251.21 301.678 244.724L277.693 220.021C276.482 220.569 275.241 221.049 273.976 221.46V297.967C280.938 300.447 286.968 305.011 291.245 311.038C295.61 317.029 297.962 324.251 297.961 331.664C298.055 336.413 297.168 341.13 295.357 345.521C293.545 349.912 290.847 353.882 287.431 357.183C280.901 363.705 272.099 367.448 262.871 367.627C256.202 367.836 249.608 366.174 243.835 362.83C238.062 359.486 233.34 354.593 230.203 348.705C227.066 342.817 225.639 336.169 226.084 329.512C226.53 322.855 228.829 316.456 232.722 311.038C236.999 305.011 243.029 300.447 249.991 297.967V221.46C243.013 219.008 236.976 214.438 232.722 208.388C228.341 202.405 225.988 195.178 226.006 187.763C225.996 182.307 227.27 176.926 229.724 172.053L182.953 125.285L92.0629 216.087C87.6056 220.541 84.0695 225.829 81.6566 231.649C79.2436 237.47 78.0011 243.709 78 250.01C77.9989 256.31 79.2392 262.55 81.6501 268.371C84.061 274.192 87.5952 279.482 92.0509 283.937L216.076 407.956C225.072 416.948 237.271 422 249.991 422C262.711 422 274.91 416.948 283.906 407.956L407.955 283.913C416.948 274.918 422 262.719 422 250C422 237.281 416.948 225.082 407.955 216.087L283.906 92.0441C274.91 83.0517 262.711 78 249.991 78C237.271 78 225.072 83.0517 216.076 92.0441Z" fill="#E64A19"/>
<defs>
<filter id="filter0_i_343_818" x="0" y="0" width="500" height="500" filterUnits="userSpaceOnUse" color-interpolation-filters="sRGB">
<feFlood flood-opacity="0" result="BackgroundImageFix"/>
<feBlend mode="normal" in="SourceGraphic" in2="BackgroundImageFix" result="shape"/>
<feColorMatrix in="SourceAlpha" type="matrix" values="0 0 0 0 0 0 0 0 0 0 0 0 0 0 0 0 0 0 127 0" result="hardAlpha"/>
<feMorphology radius="20" operator="erode" in="SourceAlpha" result="effect1_innerShadow_343_818"/>
<feOffset/>
<feGaussianBlur stdDeviation="25"/>
<feComposite in2="hardAlpha" operator="arithmetic" k2="-1" k3="1"/>
<feColorMatrix type="matrix" values="0 0 0 0 0.901961 0 0 0 0 0.290196 0 0 0 0 0.0980392 0 0 0 1 0"/>
<feBlend mode="normal" in2="shape" result="effect1_innerShadow_343_818"/>
</filter>
</defs>
</svg>
