<svg width="500" height="500" viewBox="0 0 500 500" fill="none" xmlns="http://www.w3.org/2000/svg">
<g filter="url(#filter0_i_275_656)">
<rect width="500" height="500" rx="140" fill="#1B1F23"/>
</g>
<path d="M416.127 215.498L415.643 214.262L368.863 92.1773C367.911 89.7841 366.225 87.7539 364.048 86.3777C361.87 85.0247 359.329 84.3728 356.769 84.5102C354.208 84.6476 351.752 85.5677 349.731 87.146C347.735 88.7719 346.287 90.9708 345.58 93.446L313.995 190.084H186.095L154.508 93.446C153.821 90.9573 152.369 88.7475 150.357 87.1296C148.336 85.5513 145.879 84.6312 143.319 84.4938C140.759 84.3564 138.218 85.0083 136.04 86.3613C133.867 87.7431 132.183 89.7715 131.224 92.1609L84.3571 214.191L83.8923 215.427C70.0591 251.572 81.806 292.514 112.704 315.822L112.866 315.948L113.295 316.251L184.556 369.615L219.81 396.297L241.286 412.512C243.797 414.42 246.865 415.453 250.019 415.453C253.174 415.453 256.241 414.42 258.753 412.512L280.229 396.297L315.483 369.615L387.173 315.928L387.351 315.786C418.175 292.473 429.903 251.605 416.127 215.498Z" fill="#E24329"/>
<path d="M416.127 215.498L415.643 214.262C392.849 218.941 371.37 228.597 352.739 242.538L250 320.224C284.986 346.693 315.445 369.689 315.445 369.689L387.134 316.002L387.312 315.86C418.186 292.544 429.93 251.635 416.127 215.498Z" fill="#FC6D26"/>
<path d="M184.555 369.686L219.81 396.368L241.285 412.583C243.797 414.491 246.865 415.524 250.019 415.524C253.173 415.524 256.241 414.491 258.753 412.583L280.228 396.368L315.483 369.686C315.483 369.686 284.989 346.619 250.003 320.221C228.173 336.692 206.358 353.18 184.555 369.686Z" fill="#FCA326"/>
<path d="M147.242 242.538C128.628 228.566 107.153 218.886 84.3571 214.191L83.8923 215.427C70.0591 251.572 81.806 292.514 112.704 315.822L112.866 315.948L113.295 316.251L184.556 369.615L250 320.15L147.242 242.538Z" fill="#FC6D26"/>
<defs>
<filter id="filter0_i_275_656" x="0" y="0" width="500" height="500" filterUnits="userSpaceOnUse" color-interpolation-filters="sRGB">
<feFlood flood-opacity="0" result="BackgroundImageFix"/>
<feBlend mode="normal" in="SourceGraphic" in2="BackgroundImageFix" result="shape"/>
<feColorMatrix in="SourceAlpha" type="matrix" values="0 0 0 0 0 0 0 0 0 0 0 0 0 0 0 0 0 0 127 0" result="hardAlpha"/>
<feMorphology radius="20" operator="erode" in="SourceAlpha" result="effect1_innerShadow_275_656"/>
<feOffset/>
<feGaussianBlur stdDeviation="25"/>
<feComposite in2="hardAlpha" operator="arithmetic" k2="-1" k3="1"/>
<feColorMatrix type="matrix" values="0 0 0 0 0.886275 0 0 0 0 0.262745 0 0 0 0 0.160784 0 0 0 1 0"/>
<feBlend mode="normal" in2="shape" result="effect1_innerShadow_275_656"/>
</filter>
</defs>
</svg>
