<svg width="500" height="500" viewBox="0 0 500 500" fill="none" xmlns="http://www.w3.org/2000/svg">
<g filter="url(#filter0_i_275_721)">
<rect width="500" height="500" rx="140" fill="#1B1F23"/>
</g>
<path d="M339.544 75.4541H156.298C111.649 75.4541 75.4541 111.649 75.4541 156.298V339.544C75.4541 384.193 111.649 420.388 156.298 420.388H339.544C384.193 420.388 420.388 384.193 420.388 339.544V156.298C420.388 111.649 384.193 75.4541 339.544 75.4541Z" fill="#E14E1D"/>
<path d="M140.129 126.655L151.73 256.804H300.901L295.895 312.627L247.866 325.613L199.927 312.646L196.721 276.802H153.522L159.7 345.898L247.856 370.383L336.124 345.898L347.958 213.771H191.093L187.155 169.698H351.858L355.713 126.655H140.129Z" fill="white"/>
<path d="M247.921 126.655H140.129L151.73 256.804H247.921V213.771H191.093L187.155 169.698H247.921V126.655ZM247.921 325.594L247.866 325.613L199.927 312.646L196.721 276.802H153.522L159.7 345.898L247.856 370.383L247.922 370.364L247.921 325.594Z" fill="#EBEBEB"/>
<defs>
<filter id="filter0_i_275_721" x="0" y="0" width="500" height="500" filterUnits="userSpaceOnUse" color-interpolation-filters="sRGB">
<feFlood flood-opacity="0" result="BackgroundImageFix"/>
<feBlend mode="normal" in="SourceGraphic" in2="BackgroundImageFix" result="shape"/>
<feColorMatrix in="SourceAlpha" type="matrix" values="0 0 0 0 0 0 0 0 0 0 0 0 0 0 0 0 0 0 127 0" result="hardAlpha"/>
<feMorphology radius="20" operator="erode" in="SourceAlpha" result="effect1_innerShadow_275_721"/>
<feOffset/>
<feGaussianBlur stdDeviation="25"/>
<feComposite in2="hardAlpha" operator="arithmetic" k2="-1" k3="1"/>
<feColorMatrix type="matrix" values="0 0 0 0 0.882353 0 0 0 0 0.305882 0 0 0 0 0.113725 0 0 0 1 0"/>
<feBlend mode="normal" in2="shape" result="effect1_innerShadow_275_721"/>
</filter>
</defs>
</svg>
