<svg width="500" height="500" viewBox="0 0 500 500" fill="none" xmlns="http://www.w3.org/2000/svg">
<g filter="url(#filter0_i_275_624)">
<rect width="500" height="500" rx="140" fill="#1B1F23"/>
</g>
<path d="M203.297 346.005C203.297 346.005 189.932 353.777 212.809 356.406C240.523 359.568 254.687 359.115 285.229 353.334C285.229 353.334 293.259 358.369 304.472 362.73C236.007 392.073 149.52 361.03 203.297 346.005ZM194.931 307.713C194.931 307.713 179.94 318.809 202.834 321.177C232.44 324.231 255.819 324.481 296.276 316.691C296.276 316.691 301.872 322.364 310.671 325.466C227.891 349.672 135.689 327.375 194.931 307.713Z" fill="#5382A1"/>
<path d="M265.461 242.758C282.331 262.181 261.028 279.659 261.028 279.659C261.028 279.659 303.864 257.546 284.191 229.854C265.818 204.032 251.727 191.2 328.006 146.962C328.006 146.962 208.274 176.866 265.461 242.758Z" fill="#E76F00"/>
<path d="M356.012 374.327C356.012 374.327 365.903 382.476 345.119 388.78C305.6 400.753 180.635 404.368 145.92 389.257C133.441 383.83 156.843 376.296 164.204 374.714C171.881 373.049 176.269 373.36 176.269 373.36C162.39 363.583 86.5664 392.556 137.754 400.853C277.349 423.491 392.221 390.66 356.012 374.327ZM209.723 268.039C209.723 268.039 146.159 283.137 187.214 288.619C204.548 290.94 239.105 290.415 271.293 287.717C297.6 285.5 324.014 280.781 324.014 280.781C324.014 280.781 314.738 284.753 308.028 289.336C243.478 306.312 118.78 298.415 154.679 281.049C185.039 266.374 209.723 268.039 209.723 268.039ZM323.752 331.776C389.371 297.679 359.031 264.912 337.855 269.327C332.664 270.406 330.35 271.342 330.35 271.342C330.35 271.342 332.277 268.324 335.957 267.018C377.85 252.289 410.069 310.457 322.433 333.495C322.433 333.496 323.449 332.588 323.752 331.776Z" fill="#5382A1"/>
<path d="M284.191 75.5279C284.191 75.5279 320.532 111.881 249.724 167.78C192.945 212.621 236.777 238.188 249.701 267.4C216.558 237.497 192.234 211.172 208.553 186.673C232.502 150.707 298.853 133.271 284.191 75.5279Z" fill="#E76F00"/>
<path d="M216.172 424.172C279.156 428.204 375.876 421.935 378.167 392.132C378.167 392.132 373.764 403.431 326.113 412.403C272.355 422.519 206.051 421.338 166.726 414.855C166.727 414.855 174.775 421.518 216.172 424.172Z" fill="#5382A1"/>
<defs>
<filter id="filter0_i_275_624" x="0" y="0" width="500" height="500" filterUnits="userSpaceOnUse" color-interpolation-filters="sRGB">
<feFlood flood-opacity="0" result="BackgroundImageFix"/>
<feBlend mode="normal" in="SourceGraphic" in2="BackgroundImageFix" result="shape"/>
<feColorMatrix in="SourceAlpha" type="matrix" values="0 0 0 0 0 0 0 0 0 0 0 0 0 0 0 0 0 0 127 0" result="hardAlpha"/>
<feMorphology radius="20" operator="erode" in="SourceAlpha" result="effect1_innerShadow_275_624"/>
<feOffset/>
<feGaussianBlur stdDeviation="25"/>
<feComposite in2="hardAlpha" operator="arithmetic" k2="-1" k3="1"/>
<feColorMatrix type="matrix" values="0 0 0 0 0.32549 0 0 0 0 0.509804 0 0 0 0 0.631373 0 0 0 1 0"/>
<feBlend mode="normal" in2="shape" result="effect1_innerShadow_275_624"/>
</filter>
</defs>
</svg>
