<svg width="500" height="500" viewBox="0 0 500 500" fill="none" xmlns="http://www.w3.org/2000/svg">
<g filter="url(#filter0_i_275_566)">
<rect width="500" height="500" rx="130" fill="#1B1F23"/>
</g>
<path d="M351.585 60.1626H152.539C104.04 60.1626 64.7246 99.4785 64.7246 147.977V347.023C64.7246 395.522 104.04 434.837 152.539 434.837H351.585C400.084 434.837 439.399 395.522 439.399 347.023V147.977C439.399 99.4785 400.084 60.1626 351.585 60.1626Z" fill="#99424F"/>
<path d="M376.982 245.297C376.982 227.669 364.864 212.838 348.593 208.601L385.034 101.143H204.439L240.965 208.941C225.201 213.517 213.592 228.093 213.592 245.381C213.592 258.093 219.947 269.364 229.608 276.313C225.795 281.737 221.388 286.738 216.387 291.483C206.981 300.297 196.557 307.076 185.286 311.568C175.116 304.704 170.709 292.585 174.693 281.737C190.201 276.992 201.472 262.5 201.472 245.466C201.472 224.534 184.439 207.584 163.59 207.584C142.658 207.584 125.625 224.618 125.625 245.55C125.625 255.889 129.862 265.382 136.642 272.161C136.049 273.348 135.456 274.534 134.862 275.805C129.183 287.501 122.744 300.721 120.285 315.552C115.37 345.212 123.421 369.026 142.828 382.501C153.761 390.043 165.795 393.857 178.76 393.857C201.049 393.857 223.676 382.671 245.54 371.823C261.135 364.112 277.236 356.06 293.083 352.162C298.932 350.721 305.033 349.874 311.474 348.942C324.525 347.077 338 345.128 350.119 338.094C364.271 329.874 373.932 316.144 376.729 300.382C378.847 288.263 376.729 276.06 371.305 265.382C374.95 259.533 376.982 252.669 376.982 245.297ZM360.457 245.297C360.457 257.076 350.881 266.652 339.101 266.652C327.32 266.652 317.746 257.076 317.746 245.297C317.746 241.483 318.761 237.839 320.541 234.704C321.235 233.508 322.029 232.374 322.915 231.313C323.763 230.297 324.78 229.365 325.88 228.517L325.965 228.432C326.643 227.923 327.407 227.415 328.169 226.906C328.169 226.906 328.254 226.906 328.254 226.821C328.592 226.653 328.932 226.398 329.27 226.228C329.355 226.228 329.44 226.143 329.525 226.143C329.864 225.974 330.287 225.805 330.712 225.636C331.135 225.466 331.559 225.296 331.897 225.126C331.982 225.126 332.067 225.041 332.152 225.041C332.491 224.958 332.829 224.788 333.169 224.703C333.254 224.703 333.424 224.618 333.508 224.618C333.931 224.534 334.271 224.449 334.694 224.364H334.779L336.051 224.111C336.136 224.111 336.304 224.111 336.389 224.026C336.728 224.026 337.068 223.941 337.406 223.941H337.83C338.253 223.941 338.678 223.856 339.186 223.856H340.288C340.627 223.856 340.88 223.856 341.22 223.941H341.39C342.067 224.026 342.745 224.111 343.423 224.279C353.084 226.313 360.457 234.957 360.457 245.297ZM228.083 118.092H361.39L330.796 208.346C329.525 208.601 328.254 209.026 326.982 209.448L294.779 143.771L262.49 209.026C261.22 208.601 259.863 208.346 258.508 208.093L228.083 118.092ZM288.676 237.924C287.066 229.958 282.999 222.839 277.236 217.584L294.779 182.16L312.49 218.347C307.236 223.601 303.423 230.297 301.897 237.924H288.676ZM246.219 224.534C246.642 224.449 246.982 224.364 247.405 224.279H247.66C247.999 224.194 248.337 224.194 248.677 224.111H249.015C249.354 224.111 249.609 224.026 249.947 224.026H253.253C253.591 224.026 253.846 224.111 254.101 224.111C254.271 224.111 254.354 224.111 254.524 224.194C254.863 224.279 255.118 224.279 255.456 224.364C255.541 224.364 255.626 224.364 255.796 224.449C256.219 224.534 256.643 224.618 256.981 224.703H257.066C257.406 224.788 257.745 224.873 258.083 225.041C258.168 225.041 258.253 225.126 258.423 225.126C258.677 225.211 259.015 225.296 259.27 225.466C259.355 225.466 259.44 225.551 259.525 225.551C259.863 225.72 260.202 225.805 260.541 225.974H260.625C261.05 226.143 261.388 226.313 261.727 226.568H261.812C262.152 226.738 262.49 226.991 262.83 227.161C262.914 227.161 262.914 227.246 262.999 227.246C263.337 227.415 263.592 227.669 263.932 227.838L264.015 227.923C265.032 228.686 265.965 229.533 266.897 230.381L266.982 230.465C267.829 231.398 268.677 232.415 269.354 233.517C271.628 236.993 272.836 241.058 272.829 245.212C272.829 256.991 263.253 266.567 251.474 266.567C239.693 266.567 230.117 256.991 230.117 245.212C230.032 235.297 236.896 226.906 246.219 224.534ZM162.828 223.941C174.608 223.941 184.184 233.517 184.184 245.297C184.184 257.078 174.608 266.652 162.828 266.652C151.048 266.652 141.471 257.076 141.471 245.297C141.471 233.517 151.049 223.941 162.828 223.941ZM359.949 297.415C358.085 308.263 351.389 317.754 341.558 323.433C332.321 328.772 320.966 330.467 309.016 332.162C302.491 333.094 295.627 334.111 289.016 335.721C271.389 340.043 254.439 348.517 237.999 356.653C216.982 367.077 197.15 376.908 178.76 376.908C169.184 376.908 160.625 374.196 152.489 368.518C133.845 355.636 134.777 331.484 136.981 318.264C139.016 305.891 144.693 294.28 150.117 283.179C150.455 282.5 150.71 281.907 151.049 281.229C152.947 281.916 154.904 282.426 156.896 282.754C153.676 300.721 162.828 319.281 180.625 328.433L183.845 330.127L187.319 328.857C202.151 323.603 215.88 315.042 227.998 303.602C234.864 297.162 240.711 290.213 245.625 282.67C247.575 283.009 249.524 283.094 251.474 283.094C269.101 283.094 283.931 270.974 288.168 254.704H302.406C306.643 271.059 321.473 283.094 339.101 283.094C346.135 283.094 352.661 281.145 358.255 277.84C360.457 284.195 361.135 290.806 359.949 297.415Z" fill="white"/>
<defs>
<filter id="filter0_i_275_566" x="0" y="0" width="500" height="500" filterUnits="userSpaceOnUse" color-interpolation-filters="sRGB">
<feFlood flood-opacity="0" result="BackgroundImageFix"/>
<feBlend mode="normal" in="SourceGraphic" in2="BackgroundImageFix" result="shape"/>
<feColorMatrix in="SourceAlpha" type="matrix" values="0 0 0 0 0 0 0 0 0 0 0 0 0 0 0 0 0 0 127 0" result="hardAlpha"/>
<feMorphology radius="20" operator="erode" in="SourceAlpha" result="effect1_innerShadow_275_566"/>
<feOffset/>
<feGaussianBlur stdDeviation="25"/>
<feComposite in2="hardAlpha" operator="arithmetic" k2="-1" k3="1"/>
<feColorMatrix type="matrix" values="0 0 0 0 0.6 0 0 0 0 0.258824 0 0 0 0 0.309804 0 0 0 1 0"/>
<feBlend mode="normal" in2="shape" result="effect1_innerShadow_275_566"/>
</filter>
</defs>
</svg>
