<svg width="500" height="500" viewBox="0 0 500 500" fill="none" xmlns="http://www.w3.org/2000/svg">
<g filter="url(#filter0_i_243_710)">
<rect width="500" height="500" rx="140" fill="#1B1F23"/>
</g>
<path d="M401 378.79V122.21C401 111.676 393.993 102.799 384.382 99.9517L373.481 106.48L252.44 235.539L248.641 247.401L246.43 258.785L284.174 399.846L290.01 402H377.79C390.606 402 401 391.608 401 378.79Z" fill="#EA6618"/>
<path d="M98 122.21V378.79C97.9976 382.554 98.9124 386.263 100.665 389.595C102.418 392.927 104.957 395.781 108.061 397.912L115.505 394.354L243.618 257.175L248.641 247.401L248.835 237.942L213.966 105.278L208.683 99H121.21C108.392 99 98 109.392 98 122.21Z" fill="#D65813"/>
<path d="M248.641 247.401L384.382 99.9516C382.242 99.3189 380.022 98.9984 377.79 99H208.685L248.641 247.401Z" fill="#E05E11"/>
<path d="M121.21 402H290.01L248.641 247.401L108.061 397.912C111.925 400.582 116.513 402.009 121.21 402Z" fill="#DE5C16"/>
<path d="M210.347 213.846H227.178C233.891 239.154 241.53 261.365 250.045 281.413C259.691 258.859 266.764 236.631 272.746 213.846H288.661C281.531 242.158 269.879 270.706 256.547 300.164H242.47C229.663 272.247 218.762 243.545 210.347 213.846ZM154.813 169.987H192.245V330.523H154.647V318.149H177.689V182.027H154.813V169.987ZM344.382 182.027H321.505V318.149H344.547V330.523H306.952V169.987H344.382V182.027Z" fill="white"/>
<defs>
<filter id="filter0_i_243_710" x="0" y="0" width="500" height="500" filterUnits="userSpaceOnUse" color-interpolation-filters="sRGB">
<feFlood flood-opacity="0" result="BackgroundImageFix"/>
<feBlend mode="normal" in="SourceGraphic" in2="BackgroundImageFix" result="shape"/>
<feColorMatrix in="SourceAlpha" type="matrix" values="0 0 0 0 0 0 0 0 0 0 0 0 0 0 0 0 0 0 127 0" result="hardAlpha"/>
<feMorphology radius="20" operator="erode" in="SourceAlpha" result="effect1_innerShadow_243_710"/>
<feOffset/>
<feGaussianBlur stdDeviation="25"/>
<feComposite in2="hardAlpha" operator="arithmetic" k2="-1" k3="1"/>
<feColorMatrix type="matrix" values="0 0 0 0 0.839216 0 0 0 0 0.345098 0 0 0 0 0.0745098 0 0 0 1 0"/>
<feBlend mode="normal" in2="shape" result="effect1_innerShadow_243_710"/>
</filter>
</defs>
</svg>
