<svg width="500" height="500" viewBox="0 0 500 500" fill="none" xmlns="http://www.w3.org/2000/svg">
<g filter="url(#filter0_i_243_710)">
<rect width="500" height="500" rx="140" fill="#1B1F23"/>
</g>
<path d="M424.415 398.061V101.939C424.415 89.7816 416.328 79.5366 405.236 76.25L392.656 83.7849L252.96 232.734L248.575 246.424L246.023 259.562L289.585 422.362L296.32 424.848H397.628C412.419 424.848 424.415 412.855 424.415 398.061Z" fill="#EA6618"/>
<path d="M74.7185 101.939V398.061C74.7157 402.406 75.7715 406.686 77.7946 410.532C79.8177 414.377 82.7471 417.671 86.3295 420.13L94.9217 416.024L242.778 257.704L248.575 246.424L248.799 235.507L208.557 82.397L202.459 75.1517H101.506C86.712 75.1517 74.7185 87.1452 74.7185 101.939Z" fill="#D65813"/>
<path d="M248.575 246.424L405.236 76.25C402.766 75.5198 400.204 75.1499 397.628 75.1517H202.462L248.575 246.424Z" fill="#E05E11"/>
<path d="M101.506 424.848H296.32L248.575 246.424L86.3296 420.13C90.7896 423.212 96.0846 424.858 101.506 424.848Z" fill="#DE5C16"/>
<path d="M204.38 207.698H223.804C231.552 236.906 240.368 262.54 250.195 285.677C261.328 259.647 269.491 233.993 276.395 207.698H294.762C286.534 240.372 273.087 273.32 257.7 307.317H241.453C226.673 275.099 214.092 241.973 204.38 207.698ZM140.287 157.079H183.488V342.355H140.095V328.075H166.689V170.974H140.287V157.079ZM359.071 170.974H332.669V328.075H359.262V342.355H315.873V157.079H359.071V170.974Z" fill="white"/>
<defs>
<filter id="filter0_i_243_710" x="0" y="0" width="500" height="500" filterUnits="userSpaceOnUse" color-interpolation-filters="sRGB">
<feFlood flood-opacity="0" result="BackgroundImageFix"/>
<feBlend mode="normal" in="SourceGraphic" in2="BackgroundImageFix" result="shape"/>
<feColorMatrix in="SourceAlpha" type="matrix" values="0 0 0 0 0 0 0 0 0 0 0 0 0 0 0 0 0 0 127 0" result="hardAlpha"/>
<feMorphology radius="20" operator="erode" in="SourceAlpha" result="effect1_innerShadow_243_710"/>
<feOffset/>
<feGaussianBlur stdDeviation="25"/>
<feComposite in2="hardAlpha" operator="arithmetic" k2="-1" k3="1"/>
<feColorMatrix type="matrix" values="0 0 0 0 0.839216 0 0 0 0 0.345098 0 0 0 0 0.0745098 0 0 0 1 0"/>
<feBlend mode="normal" in2="shape" result="effect1_innerShadow_243_710"/>
</filter>
</defs>
</svg>
