<svg width="101" height="100" viewBox="0 0 101 100" fill="none" xmlns="http://www.w3.org/2000/svg">
<g filter="url(#filter0_i_95_269)">
<rect width="100.174" height="100" rx="20" fill="#1B1F23"/>
</g>
<path d="M84.9999 79.6379V20.3621C84.9999 17.9285 83.3812 15.8777 81.1609 15.2198L78.6425 16.7281L50.6792 46.5438L49.8014 49.2841L49.2906 51.9141L58.0106 84.5023L59.3586 85H79.6378C82.5986 85 84.9999 82.5992 84.9999 79.6379Z" fill="#EA6618"/>
<path d="M15 20.3621V79.6379C14.9994 80.5076 15.2108 81.3644 15.6158 82.1342C16.0207 82.9039 16.6071 83.5634 17.3242 84.0555L19.0441 83.2336L48.641 51.5422L49.8015 49.2841L49.8463 47.0988L41.7909 16.4503L40.5702 15H20.3621C17.4008 15 15 17.4008 15 20.3621Z" fill="#D65813"/>
<path d="M49.8015 49.2841L81.161 15.2198C80.6665 15.0737 80.1535 14.9996 79.6379 15H40.5708L49.8015 49.2841Z" fill="#E05E11"/>
<path d="M20.3621 85H59.3587L49.8015 49.2842L17.3242 84.0556C18.217 84.6725 19.2769 85.002 20.3621 85Z" fill="#DE5C16"/>
<path d="M40.9546 41.5322H44.8429C46.3939 47.3788 48.1586 52.5101 50.1257 57.1416C52.3542 51.931 53.9883 46.7958 55.3703 41.5322H59.0469C57.3997 48.0728 54.708 54.6681 51.628 61.4734H48.3757C45.4171 55.0241 42.8988 48.3933 40.9546 41.5322ZM28.125 31.3997H36.7727V68.4871H28.0867V65.6286H33.41V34.1811H28.125V31.3997ZM71.9198 34.1811H66.6348V65.6286H71.9581V68.4871H63.2726V31.3997H71.9198V34.1811Z" fill="white"/>
<defs>
<filter id="filter0_i_95_269" x="0" y="0" width="100.174" height="100" filterUnits="userSpaceOnUse" color-interpolation-filters="sRGB">
<feFlood flood-opacity="0" result="BackgroundImageFix"/>
<feBlend mode="normal" in="SourceGraphic" in2="BackgroundImageFix" result="shape"/>
<feColorMatrix in="SourceAlpha" type="matrix" values="0 0 0 0 0 0 0 0 0 0 0 0 0 0 0 0 0 0 127 0" result="hardAlpha"/>
<feMorphology radius="4" operator="erode" in="SourceAlpha" result="effect1_innerShadow_95_269"/>
<feOffset/>
<feGaussianBlur stdDeviation="5"/>
<feComposite in2="hardAlpha" operator="arithmetic" k2="-1" k3="1"/>
<feColorMatrix type="matrix" values="0 0 0 0 0.839216 0 0 0 0 0.345098 0 0 0 0 0.0745098 0 0 0 1 0"/>
<feBlend mode="normal" in2="shape" result="effect1_innerShadow_95_269"/>
</filter>
</defs>
</svg>
