<svg width="100" height="100" viewBox="0 0 100 100" fill="none" xmlns="http://www.w3.org/2000/svg">
<g filter="url(#filter0_i_95_205)">
<rect width="100" height="100" rx="20" fill="#1B1F23"/>
</g>
<path d="M48.2021 16.8308C48.0566 16.844 47.5931 16.8904 47.176 16.9233C37.5594 17.7903 28.5515 22.9794 22.8461 30.9548C19.6695 35.3894 17.6373 40.4194 16.8698 45.7477C16.5986 47.6077 16.5654 48.1571 16.5654 50.6786C16.5654 53.2004 16.5986 53.7498 16.8701 55.6094C18.7098 68.3237 27.7576 79.0064 40.0284 82.9643C42.2259 83.6725 44.5422 84.1556 47.1764 84.4468C48.2025 84.5592 52.6367 84.5592 53.6628 84.4468C58.2098 83.9437 62.0617 82.8187 65.8608 80.8792C66.4431 80.5816 66.5558 80.5021 66.4763 80.4361C66.4235 80.3961 63.9413 77.0669 60.9631 73.043L55.5492 65.7295L48.7648 55.689C45.032 50.1691 41.9611 45.655 41.9344 45.655C41.908 45.6485 41.8816 50.1095 41.8684 55.5566C41.8484 65.094 41.842 65.4779 41.7228 65.7027C41.5508 66.027 41.4184 66.1594 41.1402 66.3053C40.9286 66.4109 40.7431 66.4309 39.7437 66.4309H38.5987L38.294 66.239C38.1054 66.1208 37.9522 65.9539 37.8506 65.7559L37.7118 65.458L37.7253 52.1878L37.7449 38.9109L37.9501 38.6526C38.0561 38.5138 38.2812 38.335 38.44 38.249C38.7111 38.1167 38.8171 38.1034 39.962 38.1034C41.3125 38.1034 41.5373 38.1563 41.8883 38.5402C41.9875 38.6461 45.6607 44.1793 50.0557 50.8441C54.505 57.5902 58.9571 64.3345 63.4118 71.0771L68.773 79.1983L69.0445 79.0196C71.4468 77.4576 73.9885 75.2337 76.0005 72.917C80.2827 67.9994 83.0428 62.0031 83.9694 55.6094C84.2406 53.7498 84.2738 53.2004 84.2738 50.6786C84.2738 48.1568 84.2406 47.6077 83.9694 45.7477C82.1294 33.0335 73.0816 22.3511 60.8108 18.3932C58.6465 17.6914 56.3434 17.2083 53.762 16.9172C53.1266 16.8508 48.7516 16.7784 48.2025 16.8312M62.0617 37.3092C62.3793 37.468 62.6376 37.7724 62.7303 38.0899C62.7831 38.2622 62.7963 41.9422 62.7831 50.2351L62.7632 62.1355L60.6652 58.9187L58.5605 55.7022V47.0518C58.5605 41.4591 58.5869 38.315 58.6265 38.1627C58.7325 37.7923 58.964 37.5012 59.2819 37.3289C59.5531 37.1901 59.6526 37.1765 60.6916 37.1765C61.6714 37.1765 61.8433 37.1901 62.0617 37.3092Z" fill="white"/>
<defs>
<filter id="filter0_i_95_205" x="0" y="0" width="100" height="100" filterUnits="userSpaceOnUse" color-interpolation-filters="sRGB">
<feFlood flood-opacity="0" result="BackgroundImageFix"/>
<feBlend mode="normal" in="SourceGraphic" in2="BackgroundImageFix" result="shape"/>
<feColorMatrix in="SourceAlpha" type="matrix" values="0 0 0 0 0 0 0 0 0 0 0 0 0 0 0 0 0 0 127 0" result="hardAlpha"/>
<feMorphology radius="4" operator="erode" in="SourceAlpha" result="effect1_innerShadow_95_205"/>
<feOffset/>
<feGaussianBlur stdDeviation="5"/>
<feComposite in2="hardAlpha" operator="arithmetic" k2="-1" k3="1"/>
<feColorMatrix type="matrix" values="0 0 0 0 1 0 0 0 0 1 0 0 0 0 1 0 0 0 1 0"/>
<feBlend mode="normal" in2="shape" result="effect1_innerShadow_95_205"/>
</filter>
</defs>
</svg>
