<svg width="500" height="500" viewBox="0 0 500 500" fill="none" xmlns="http://www.w3.org/2000/svg">
<g filter="url(#filter0_i_243_703)">
<rect width="500" height="500" rx="140" fill="#1B1F23"/>
</g>
<path d="M241.011 84.1536C240.283 84.2196 237.966 84.4515 235.881 84.6157C187.798 88.9508 142.758 114.897 114.231 154.773C98.3481 176.946 88.1868 202.096 84.3494 228.738C82.9935 238.038 82.8276 240.785 82.8276 253.392C82.8276 266.001 82.9935 268.749 84.3511 278.047C93.5493 341.618 138.789 395.031 200.142 414.821C211.13 418.362 222.711 420.778 235.882 422.233C241.013 422.795 263.184 422.795 268.315 422.233C291.049 419.718 310.309 414.093 329.305 404.395C332.216 402.908 332.78 402.51 332.382 402.18C332.118 401.98 319.707 385.334 304.816 365.214L277.746 328.647L243.825 278.444C225.161 250.845 209.806 228.274 209.672 228.274C209.54 228.242 209.408 250.547 209.342 277.783C209.242 325.47 209.21 327.389 208.614 328.513C207.755 330.135 207.093 330.796 205.701 331.526C204.643 332.054 203.716 332.154 198.719 332.154H192.994L191.471 331.194C190.528 330.604 189.761 329.769 189.253 328.779L188.559 327.289L188.627 260.938L188.725 194.554L189.751 193.262C190.281 192.568 191.406 191.674 192.2 191.245C193.556 190.583 194.086 190.517 199.811 190.517C206.563 190.517 207.687 190.781 209.442 192.7C209.938 193.23 228.304 220.896 250.279 254.22C272.525 287.951 294.786 321.672 317.06 355.385L343.865 395.991L345.223 395.097C357.234 387.287 369.943 376.168 380.003 364.585C401.414 339.996 415.215 310.015 419.848 278.047C421.203 268.749 421.369 266.001 421.369 253.392C421.369 240.783 421.203 238.038 419.848 228.738C410.648 165.167 365.408 111.755 304.054 91.9655C293.233 88.4565 281.717 86.041 268.811 84.5853C265.633 84.2535 243.758 83.8913 241.013 84.1553M310.309 186.546C311.897 187.339 313.188 188.861 313.652 190.449C313.916 191.311 313.982 209.71 313.916 251.175L313.816 310.677L303.327 294.593L292.803 278.51V235.258C292.803 207.295 292.935 191.575 293.133 190.813C293.663 188.961 294.821 187.505 296.41 186.644C297.766 185.95 298.264 185.882 303.459 185.882C308.357 185.882 309.217 185.95 310.309 186.546Z" fill="white"/>
<defs>
<filter id="filter0_i_243_703" x="0" y="0" width="500" height="500" filterUnits="userSpaceOnUse" color-interpolation-filters="sRGB">
<feFlood flood-opacity="0" result="BackgroundImageFix"/>
<feBlend mode="normal" in="SourceGraphic" in2="BackgroundImageFix" result="shape"/>
<feColorMatrix in="SourceAlpha" type="matrix" values="0 0 0 0 0 0 0 0 0 0 0 0 0 0 0 0 0 0 127 0" result="hardAlpha"/>
<feMorphology radius="20" operator="erode" in="SourceAlpha" result="effect1_innerShadow_243_703"/>
<feOffset/>
<feGaussianBlur stdDeviation="25"/>
<feComposite in2="hardAlpha" operator="arithmetic" k2="-1" k3="1"/>
<feColorMatrix type="matrix" values="0 0 0 0 1 0 0 0 0 1 0 0 0 0 1 0 0 0 1 0"/>
<feBlend mode="normal" in2="shape" result="effect1_innerShadow_243_703"/>
</filter>
</defs>
</svg>
