<svg width="500" height="500" viewBox="0 0 500 500" fill="none" xmlns="http://www.w3.org/2000/svg">
<g filter="url(#filter0_i_275_653)">
<rect width="500" height="500" rx="140" fill="#1B1F23"/>
</g>
<path d="M97.5084 337.424C99.1066 340.247 101.416 342.365 104.258 343.953L241.03 422.296C246.714 425.648 253.641 425.648 259.148 422.296L395.92 343.953C401.604 340.777 404.979 334.777 404.979 328.248V171.561C404.979 165.033 401.604 159.034 395.92 155.858L259.148 77.5137C253.464 74.1605 246.536 74.1605 241.03 77.5137L104.26 155.858C98.3959 159.034 95.0215 165.033 95.0215 171.561V328.424C95.0215 331.602 95.7322 334.601 97.5084 337.424Z" fill="#009639"/>
<path d="M206.215 309.721C206.225 312.018 205.776 314.294 204.896 316.418C204.016 318.542 202.721 320.471 201.086 322.095C199.451 323.719 197.509 325.006 195.371 325.88C193.233 326.755 190.942 327.2 188.63 327.19C186.318 327.2 184.027 326.754 181.889 325.88C179.751 325.005 177.809 323.719 176.174 322.095C174.539 320.471 173.244 318.541 172.364 316.418C171.484 314.294 171.036 312.018 171.046 309.721V189.913C171.046 180.561 179.394 172.974 190.939 172.974C199.288 172.974 209.058 176.326 214.919 183.56L220.246 189.913L293.785 277.254V190.266C293.775 187.969 294.223 185.693 295.104 183.569C295.984 181.445 297.279 179.516 298.914 177.892C300.549 176.268 302.491 174.981 304.629 174.107C306.767 173.232 309.058 172.787 311.37 172.797C313.682 172.787 315.973 173.233 318.111 174.107C320.249 174.982 322.191 176.268 323.826 177.892C325.461 179.516 326.756 181.446 327.636 183.569C328.516 185.693 328.964 187.969 328.954 190.266V310.075C328.954 319.426 320.606 327.013 309.061 327.013C300.712 327.013 290.942 323.661 285.081 316.427L206.215 222.908V309.721Z" fill="white"/>
<defs>
<filter id="filter0_i_275_653" x="0" y="0" width="500" height="500" filterUnits="userSpaceOnUse" color-interpolation-filters="sRGB">
<feFlood flood-opacity="0" result="BackgroundImageFix"/>
<feBlend mode="normal" in="SourceGraphic" in2="BackgroundImageFix" result="shape"/>
<feColorMatrix in="SourceAlpha" type="matrix" values="0 0 0 0 0 0 0 0 0 0 0 0 0 0 0 0 0 0 127 0" result="hardAlpha"/>
<feMorphology radius="20" operator="erode" in="SourceAlpha" result="effect1_innerShadow_275_653"/>
<feOffset/>
<feGaussianBlur stdDeviation="25"/>
<feComposite in2="hardAlpha" operator="arithmetic" k2="-1" k3="1"/>
<feColorMatrix type="matrix" values="0 0 0 0 0 0 0 0 0 0.588235 0 0 0 0 0.223529 0 0 0 1 0"/>
<feBlend mode="normal" in2="shape" result="effect1_innerShadow_275_653"/>
</filter>
</defs>
</svg>
