<svg width="500" height="500" viewBox="0 0 500 500" fill="none" xmlns="http://www.w3.org/2000/svg">
<g filter="url(#filter0_i_275_612)">
<rect width="500" height="500" rx="140" fill="#1B1F23"/>
</g>
<path d="M342.969 75H157.031C111.727 75 75 111.727 75 157.031V342.969C75 388.273 111.727 425 157.031 425H342.969C388.273 425 425 388.273 425 342.969V157.031C425 111.727 388.273 75 342.969 75Z" fill="#242938"/>
<path d="M264.748 333.854H358.772C361.758 333.855 364.692 333.076 367.279 331.595C369.859 330.119 372.007 327.99 373.505 325.422C374.996 322.863 375.781 319.953 375.779 316.991C375.778 314.029 374.99 311.12 373.497 308.562L310.353 200.163C308.855 197.596 306.708 195.468 304.128 193.992C301.538 192.51 298.607 191.731 295.623 191.731C292.639 191.731 289.708 192.51 287.118 193.992C284.538 195.468 282.391 197.596 280.893 200.163L264.748 227.899L233.179 173.663C231.68 171.096 229.533 168.968 226.952 167.493C224.361 166.012 221.429 165.234 218.445 165.234C215.461 165.234 212.529 166.012 209.939 167.493C207.358 168.968 205.21 171.096 203.711 173.663L125.135 308.562C123.641 311.12 122.854 314.029 122.853 316.991C122.852 319.953 123.637 322.863 125.128 325.422C126.626 327.99 128.773 330.119 131.354 331.595C133.944 333.078 136.877 333.856 139.861 333.854H198.882C222.267 333.854 239.512 323.674 251.378 303.812L280.187 254.363L295.619 227.899L341.93 307.39H280.187L264.748 333.854ZM197.92 307.363L156.73 307.353L218.473 201.372L249.279 254.363L228.653 289.781C220.772 302.668 211.821 307.363 197.92 307.363Z" fill="#00DC82"/>
<defs>
<filter id="filter0_i_275_612" x="0" y="0" width="500" height="500" filterUnits="userSpaceOnUse" color-interpolation-filters="sRGB">
<feFlood flood-opacity="0" result="BackgroundImageFix"/>
<feBlend mode="normal" in="SourceGraphic" in2="BackgroundImageFix" result="shape"/>
<feColorMatrix in="SourceAlpha" type="matrix" values="0 0 0 0 0 0 0 0 0 0 0 0 0 0 0 0 0 0 127 0" result="hardAlpha"/>
<feMorphology radius="20" operator="erode" in="SourceAlpha" result="effect1_innerShadow_275_612"/>
<feOffset/>
<feGaussianBlur stdDeviation="25"/>
<feComposite in2="hardAlpha" operator="arithmetic" k2="-1" k3="1"/>
<feColorMatrix type="matrix" values="0 0 0 0 0 0 0 0 0 0.862745 0 0 0 0 0.509804 0 0 0 1 0"/>
<feBlend mode="normal" in2="shape" result="effect1_innerShadow_275_612"/>
</filter>
</defs>
</svg>
