<svg width="500" height="500" viewBox="0 0 500 500" fill="none" xmlns="http://www.w3.org/2000/svg">
<g filter="url(#filter0_i_343_795)">
<rect width="500" height="500" rx="140" fill="#1B1F23"/>
</g>
<path d="M382.002 148.053C325.701 75.1461 220.951 61.6871 148.042 117.998C75.1431 174.309 61.6976 279.06 118.009 351.959C174.331 424.854 279.089 438.292 351.977 381.97C424.846 325.659 438.294 220.94 382.002 148.053Z" fill="#F37036"/>
<path d="M322.772 142.941C317.03 143.4 311.586 145.685 307.236 149.461C302.145 153.882 298.896 160.051 298.13 166.75C297.364 173.448 299.136 180.191 303.097 185.648C307.055 191.105 312.914 194.882 319.518 196.233C326.123 197.583 332.994 196.41 338.776 192.944H338.782L339.201 193.364C341.106 192.273 342.878 190.965 344.482 189.467C349.432 184.231 352.155 177.278 352.077 170.074C351.998 162.869 349.125 155.977 344.063 150.85V150.845L320.294 174.465L319.875 174.049L343.643 150.417C340.892 147.765 337.609 145.727 334.011 144.439C330.413 143.151 326.582 142.642 322.772 142.946V142.941ZM291.479 181.606C280.084 181.587 261.479 194.503 216.049 239.933L216.275 240.164C216.028 240.078 215.778 240.07 215.778 240.07L198.674 257.022C198.235 257.44 197.944 257.99 197.846 258.588C197.748 259.186 197.848 259.8 198.131 260.336C198.414 260.872 198.865 261.301 199.414 261.558C199.963 261.815 200.581 261.885 201.174 261.758L230.505 255.501C230.636 255.381 230.723 255.22 230.752 255.044L231.403 255.716L221.405 265.633H220.921L161.565 325.457L180.609 343.796C181.141 344.278 181.813 344.577 182.526 344.649C183.24 344.721 183.958 344.562 184.576 344.197C185.198 343.835 185.697 343.293 186.006 342.643C186.315 341.993 186.421 341.264 186.309 340.553L183.528 328.459C183.353 328.216 183.259 327.925 183.259 327.626C183.259 327.327 183.353 327.035 183.528 326.793C209.527 314.398 233.704 298.499 255.386 279.538L243.198 267.345L243.429 267.308L236.2 260.081L236.662 259.613L237.151 260.113L236.899 260.358L256.079 279.958V279.95C292.844 245.136 318.94 217.151 312.154 198.317C311.845 196.064 310.799 193.978 309.179 192.383V192.393C308.766 192.089 308.333 191.814 307.881 191.571C307.658 191.335 307.462 191.093 307.225 190.862L307.048 191.039C306.548 190.737 306.025 190.477 305.484 190.26L306.26 189.475C301.434 185.175 297.445 181.617 291.479 181.6V181.606ZM161.151 325.814L147.254 339.714V339.725C146.756 340.034 146.368 340.493 146.147 341.036C145.927 341.58 145.884 342.179 146.026 342.748C146.163 343.317 146.476 343.828 146.921 344.209C147.365 344.59 147.918 344.821 148.501 344.869L182.557 347.22L161.151 325.814Z" fill="white"/>
<path d="M325.116 140.646C317.316 140.637 309.826 143.697 304.263 149.165C300.307 153.215 297.597 158.318 296.459 163.864C295.32 169.411 295.799 175.168 297.84 180.45C285.099 174.994 267.861 184.508 214.243 238.116C214.206 238.198 214.172 238.283 214.143 238.368C214.033 238.417 213.926 238.472 213.824 238.535L196.868 255.638C196.056 256.436 195.522 257.474 195.346 258.6C195.17 259.725 195.362 260.876 195.893 261.884C196.366 262.682 197.037 263.344 197.84 263.807C198.644 264.27 199.553 264.519 200.48 264.529L201.321 263.983L223.961 259.154L213.13 270.084C213.069 270.228 213.02 270.377 212.985 270.53L159.907 323.74C159.695 323.918 159.52 324.135 159.391 324.379L145.722 338.059C145.042 338.778 144.577 339.674 144.38 340.645C144.184 341.615 144.263 342.621 144.61 343.549C144.967 344.47 145.572 345.275 146.357 345.874C147.142 346.474 148.078 346.846 149.06 346.949L182.971 349.314C183.551 349.112 184.044 348.719 184.369 348.198C184.659 347.793 184.815 347.306 184.815 346.808C184.815 346.309 184.659 345.823 184.369 345.417L184.299 345.35C185.032 344.968 185.678 344.437 186.193 343.791C186.738 343.084 187.118 342.265 187.306 341.393C187.495 340.521 187.488 339.618 187.285 338.749L184.64 327.497C210.012 315.372 233.783 300.152 255.413 282.183C255.621 282.305 255.846 282.398 256.079 282.46C256.762 282.408 257.401 282.116 257.885 281.632C294.301 247.151 315.707 223.523 315.707 204.764C315.788 202.162 315.395 199.566 314.548 197.105C317.831 198.463 321.331 199.219 324.882 199.335L324.842 199.346C329.732 199.198 334.514 197.861 338.771 195.449L338.782 195.452C339.333 195.615 339.926 195.563 340.44 195.304C342.494 194.094 344.367 192.599 346.003 190.864C348.775 188.145 350.977 184.901 352.48 181.321C353.984 177.741 354.758 173.897 354.759 170.015C354.759 166.132 353.984 162.288 352.481 158.708C350.978 155.129 348.777 151.884 346.006 149.165C345.906 149.076 345.8 148.994 345.689 148.92C340.156 143.61 332.782 140.645 325.113 140.648L325.116 140.646ZM324.882 145.408C330.313 145.44 335.585 147.246 339.894 150.552L318.212 172.366C318.138 172.45 318.07 172.538 318.007 172.629C317.616 173.025 317.387 173.552 317.365 174.108C317.365 174.443 317.44 174.775 317.586 175.077C317.731 175.38 317.944 175.645 318.206 175.854H318.212L334.605 192.248C330.118 194.207 325.144 194.763 320.335 193.846C315.526 192.929 311.106 190.58 307.655 187.107C300.705 180.12 298.69 169.628 302.406 160.525C306.123 151.414 314.984 145.462 324.882 145.408ZM344.017 154.631C347.562 158.921 349.495 164.315 349.481 169.88C349.471 176.399 346.872 182.648 342.257 187.252C341.331 188.123 340.345 188.926 339.306 189.657L326.075 176.631L323.487 174.043L324.199 173.331L344.014 154.626L344.017 154.631ZM343.033 165.9C342.547 165.747 342.021 165.777 341.555 165.983C341.094 166.222 340.746 166.634 340.588 167.128C340.51 167.375 340.482 167.635 340.505 167.893C340.528 168.151 340.602 168.401 340.722 168.63C341.198 169.635 341.386 170.752 341.264 171.857C341.142 172.962 340.715 174.011 340.031 174.887C339.856 175.056 339.719 175.26 339.628 175.486C339.538 175.713 339.497 175.955 339.507 176.198C339.518 176.693 339.695 177.166 340.031 177.521C340.39 177.658 340.786 177.658 341.144 177.521C341.467 177.601 341.806 177.592 342.124 177.494C342.443 177.396 342.728 177.213 342.95 176.964C344.094 175.563 344.819 173.866 345.04 172.069C345.261 170.273 344.97 168.451 344.2 166.814V166.824C343.937 166.384 343.522 166.055 343.033 165.9ZM291.226 183.968C294.469 184.079 297.589 185.234 300.122 187.263C297.395 187.656 294.868 188.919 292.917 190.864L231.623 251.884L219.594 239.855C251.381 208.217 270.817 191.692 282.9 186.277C285.39 184.709 288.285 183.908 291.226 183.968ZM301.882 191.923C303.94 191.925 305.914 192.74 307.373 194.191C308.147 194.921 308.758 195.806 309.165 196.788C309.572 197.771 309.767 198.828 309.735 199.891C309.7 200.951 309.447 201.992 308.991 202.949C308.536 203.906 307.888 204.759 307.088 205.455L241.916 262.177L234.883 255.144L296.392 194.191C297.851 192.741 299.825 191.924 301.882 191.923ZM309.929 209.924C305.387 227.936 281.315 252.341 256.214 276.055L246.063 265.915L309.929 209.924ZM216.049 243.407L216.785 244.133L226.226 253.574L200.346 259.111L216.049 243.407ZM231.618 259.102L231.628 259.113L234.767 262.325L234.816 262.551L235.025 262.583L235.692 263.265L237.896 265.523L223.423 267.297L231.618 259.102ZM242.01 270.057L251.626 279.667C230.363 297.348 207.03 312.379 182.141 324.43C181.333 324.815 180.683 325.468 180.302 326.278C179.921 327.088 179.833 328.005 180.053 328.873L182.834 340.966C182.937 341.108 182.992 341.279 182.992 341.454C182.992 341.629 182.937 341.8 182.834 341.942C182.681 342.079 182.483 342.155 182.278 342.155C182.072 342.155 181.874 342.079 181.721 341.942L165.322 325.408L215.869 274.12L242.01 270.057ZM161.565 329.02L163.901 331.208L175.973 343.28L149.055 341.539L161.565 329.02Z" fill="#F37036"/>
<defs>
<filter id="filter0_i_343_795" x="0" y="0" width="500" height="500" filterUnits="userSpaceOnUse" color-interpolation-filters="sRGB">
<feFlood flood-opacity="0" result="BackgroundImageFix"/>
<feBlend mode="normal" in="SourceGraphic" in2="BackgroundImageFix" result="shape"/>
<feColorMatrix in="SourceAlpha" type="matrix" values="0 0 0 0 0 0 0 0 0 0 0 0 0 0 0 0 0 0 127 0" result="hardAlpha"/>
<feMorphology radius="20" operator="erode" in="SourceAlpha" result="effect1_innerShadow_343_795"/>
<feOffset/>
<feGaussianBlur stdDeviation="25"/>
<feComposite in2="hardAlpha" operator="arithmetic" k2="-1" k3="1"/>
<feColorMatrix type="matrix" values="0 0 0 0 0.952941 0 0 0 0 0.439216 0 0 0 0 0.211765 0 0 0 1 0"/>
<feBlend mode="normal" in2="shape" result="effect1_innerShadow_343_795"/>
</filter>
</defs>
</svg>
