<svg width="500" height="500" viewBox="0 0 500 500" fill="none" xmlns="http://www.w3.org/2000/svg">
<g filter="url(#filter0_i_275_700)">
<rect width="500" height="500" rx="140" fill="#1B1F23"/>
</g>
<path d="M328.25 345.235C330.366 327.63 329.732 325.046 342.845 327.9L346.173 328.191C356.257 328.649 369.448 326.568 377.198 322.968C393.882 315.226 403.772 302.305 387.325 305.697C349.803 313.439 347.224 300.733 347.224 300.733C386.846 241.947 403.408 167.32 389.109 149.052C350.116 99.2275 282.619 122.788 281.49 123.397L281.129 123.465C273.716 121.926 265.418 121.007 256.097 120.856C239.117 120.576 226.233 125.308 216.459 132.718C216.459 132.718 96.0478 83.11 101.65 195.106C102.841 218.93 135.799 375.382 175.11 328.126C189.479 310.847 203.363 296.236 203.363 296.236C210.256 300.814 218.513 303.153 227.168 302.313L227.839 301.741C227.629 303.886 227.721 305.986 228.106 308.47C217.982 319.786 220.957 321.772 200.711 325.938C180.225 330.158 192.26 337.674 200.115 339.638C209.641 342.02 231.677 345.394 246.568 324.553L245.975 326.93C249.947 330.109 249.681 349.773 250.241 363.821C250.804 377.872 251.745 390.982 254.609 398.713C257.474 406.445 260.853 426.351 287.462 420.649C309.699 415.895 326.701 409.037 328.25 345.235Z" fill="black"/>
<path d="M278.798 434.552C267.03 434.552 259.366 430 254.712 425.605C247.687 418.976 244.9 410.436 243.235 405.335L242.515 403.206C239.163 394.157 238.026 381.127 237.352 364.35C237.25 361.83 237.18 359.235 237.101 356.483C237.045 354.47 236.975 351.945 236.872 349.305C232.633 351.326 228.132 352.748 223.501 353.53C215.204 354.947 206.284 354.489 196.984 352.164C190.422 350.523 183.604 347.122 179.718 341.87C168.392 351.789 157.589 350.444 151.703 348.48C141.32 345.017 132.029 335.286 123.295 318.738C117.073 306.948 111.055 291.587 105.407 273.08C95.5709 240.85 89.3216 206.904 88.7665 195.758C87.0203 160.874 96.4116 135.925 116.674 121.613C148.637 99.0364 197.065 112.314 214.721 118.342C226.584 111.193 240.54 107.714 256.31 107.964C264.78 108.102 272.845 108.845 280.337 110.182C288.152 107.724 303.587 104.197 321.257 104.418C353.813 104.806 380.79 117.493 399.269 141.107C412.457 157.955 405.936 193.335 400.877 212.926C393.758 240.483 381.284 269.792 365.961 295.306C370.122 295.336 376.15 294.837 384.719 293.067C401.627 289.577 406.572 298.642 407.914 302.701C413.29 318.983 389.92 331.287 382.631 334.672C373.291 339.008 358.063 341.649 345.591 341.077L345.047 341.042L341.77 340.754L341.446 343.486L341.134 346.157C340.296 378.492 335.677 398.97 326.172 412.5C316.21 426.686 302.364 430.66 290.167 433.274C286.007 434.164 282.226 434.552 278.798 434.552ZM254.033 316.867C261.629 322.947 262.295 334.386 262.891 355.764C262.966 358.432 263.036 360.957 263.13 363.315C263.416 370.456 264.087 387.177 266.706 394.243C267.076 395.243 267.407 396.256 267.757 397.331C270.676 406.267 272.139 410.749 284.759 408.051C295.352 405.779 300.798 403.742 305.061 397.673C311.257 388.851 314.722 371.103 315.358 344.923L328.247 345.235L315.447 343.699L315.824 340.503C317.051 329.967 317.934 322.357 324.976 317.323C330.627 313.286 337.065 313.677 342.193 314.601C336.558 310.343 335.001 305.35 334.586 303.302L333.51 298.006L336.531 293.525C353.931 267.709 368.279 235.98 375.899 206.472C383.73 176.153 381.343 160.052 378.955 157.007C347.348 116.62 292.539 133.295 286.815 135.187L285.848 135.71L280.997 136.613L278.512 136.098C271.662 134.675 264.052 133.888 255.895 133.756C243.078 133.54 232.739 136.569 224.261 143.002L218.378 147.462L211.552 144.651C196.968 138.688 154.131 126.698 131.527 142.708C118.981 151.596 113.265 169.009 114.537 194.467C114.957 202.872 120.667 234.69 130.088 265.548C143.107 308.193 154.937 322.359 159.877 324.006C160.739 324.297 162.976 322.559 165.202 319.885C174.483 308.76 184.093 297.913 194.02 287.359L201.484 279.504L210.509 285.5C214.147 287.917 218.16 289.289 222.28 289.547L243.803 271.191L240.685 303.011C240.615 303.725 240.58 304.698 240.861 306.503L241.798 312.534L237.729 317.083L237.26 317.611L249.085 323.068L254.033 316.867Z" fill="black"/>
<path d="M387.325 305.697C349.8 313.439 347.221 300.733 347.221 300.733C386.843 241.944 403.405 167.314 389.112 149.052C350.118 99.2302 282.616 122.791 281.49 123.402L281.126 123.467C273.713 121.928 265.415 121.012 256.089 120.861C239.109 120.584 226.23 125.313 216.456 132.724C216.456 132.724 96.0423 83.118 101.642 195.111C102.833 218.938 135.79 375.39 175.102 328.134C189.471 310.855 203.352 296.244 203.352 296.244C210.248 300.822 218.502 303.161 227.155 302.321L227.828 301.749C227.618 303.894 227.715 305.994 228.098 308.478C217.971 319.794 220.946 321.78 200.7 325.946C180.214 330.166 192.249 337.682 200.107 339.646C209.631 342.028 231.669 345.402 246.557 324.561L245.962 326.938C249.931 330.117 252.718 347.612 252.251 363.471C251.785 379.33 251.47 390.219 254.599 398.724C257.724 407.229 260.84 426.362 287.453 420.66C309.691 415.895 321.214 403.545 322.82 382.946C323.957 368.3 326.531 370.467 326.695 357.373L328.762 351.175C331.144 331.322 329.139 324.919 342.842 327.897L346.17 328.188C356.254 328.646 369.451 326.566 377.198 322.965C393.879 315.229 403.772 302.304 387.325 305.697Z" fill="#336791"/>
<path d="M280.143 426.605C257.959 426.605 250.931 409.037 248.056 401.853C243.846 391.324 242.938 350.466 243.876 316.959C243.89 316.394 244.016 315.837 244.246 315.321C244.476 314.804 244.806 314.339 245.216 313.95C245.627 313.562 246.111 313.259 246.639 313.058C247.168 312.858 247.731 312.764 248.296 312.782C248.86 312.797 249.416 312.924 249.931 313.154C250.447 313.384 250.912 313.714 251.3 314.124C251.688 314.534 251.991 315.017 252.192 315.545C252.393 316.072 252.489 316.634 252.472 317.199C251.392 355.845 252.925 390.866 256.04 398.659C260.902 410.81 268.275 421.439 289.119 416.973C308.907 412.729 316.317 405.227 319.619 386.091C322.152 371.407 327.161 329.632 327.778 321.389C327.82 320.826 327.972 320.276 328.226 319.772C328.48 319.267 328.831 318.818 329.259 318.449C329.687 318.081 330.184 317.8 330.721 317.624C331.257 317.448 331.823 317.379 332.387 317.422C333.523 317.508 334.579 318.042 335.323 318.906C336.067 319.77 336.437 320.894 336.353 322.03C335.709 330.613 330.724 372.307 328.094 387.554C324.197 410.155 314.121 420.406 290.922 425.381C286.979 426.225 283.398 426.602 280.143 426.605ZM159.858 340.8C157.919 340.793 155.993 340.475 154.156 339.856C139.747 335.049 126.022 311.583 113.362 270.102C103.725 238.527 97.6188 205.569 97.0826 194.858C95.4953 163.102 103.671 140.636 121.39 128.086C156.441 103.251 215.406 126.9 217.898 127.919C218.954 128.35 219.796 129.183 220.237 130.235C220.679 131.287 220.685 132.471 220.253 133.527C219.822 134.583 218.989 135.424 217.937 135.866C216.886 136.308 215.702 136.313 214.646 135.882C214.077 135.65 157.535 112.998 126.343 135.114C111.193 145.856 104.237 165.813 105.668 194.429C106.118 203.454 111.823 235.619 121.584 267.59C132.886 304.622 145.748 327.989 156.875 331.699C158.621 332.281 163.935 334.052 171.532 324.916C180.39 314.277 189.581 303.918 199.091 293.856C199.887 293.063 200.962 292.612 202.086 292.601C203.209 292.589 204.293 293.019 205.104 293.796C205.916 294.574 206.391 295.638 206.427 296.761C206.464 297.885 206.059 298.978 205.3 299.806C205.171 299.941 192.238 313.461 178.145 330.417C171.47 338.444 165.072 340.8 159.858 340.8ZM346.955 304.568C346.175 304.567 345.41 304.354 344.743 303.952C344.075 303.55 343.529 302.974 343.163 302.286C342.797 301.598 342.625 300.823 342.665 300.044C342.706 299.266 342.957 298.513 343.392 297.866C383.445 238.432 397.504 166.619 385.463 151.232C370.308 131.867 348.908 121.753 321.855 121.169C301.825 120.737 285.904 125.852 283.301 126.744L282.646 127.011C280.029 127.833 278.022 126.399 277.265 124.723C276.833 123.763 276.767 122.677 277.081 121.672C277.394 120.667 278.064 119.811 278.965 119.266C279.089 119.193 279.482 119.026 280.121 118.792C284.543 117.172 300.707 112.322 320.726 112.551C350.66 112.869 375.387 124.41 392.23 145.934C400.198 156.117 400.217 179.578 392.281 210.304C384.191 241.631 368.968 275.297 350.52 302.674C349.695 303.905 348.337 304.568 346.955 304.568ZM349.003 332.082C342.163 332.082 336.033 331.117 332.362 328.918C328.59 326.657 327.87 323.585 327.776 321.955C326.746 303.873 336.722 300.725 341.81 299.289C341.102 298.216 340.094 296.955 339.051 295.654C336.084 291.946 332.02 286.869 328.889 279.275C328.398 278.089 326.862 275.332 325.084 272.139C315.439 254.844 295.371 218.855 308.263 200.425C314.229 191.896 326.11 188.538 343.616 190.411C338.466 174.722 313.943 125.645 255.755 124.691C238.255 124.4 223.902 129.781 213.118 140.671C188.972 165.056 189.845 209.178 189.859 209.62C189.874 210.184 189.777 210.746 189.575 211.273C189.373 211.8 189.069 212.283 188.68 212.692C188.291 213.102 187.826 213.431 187.31 213.661C186.794 213.89 186.238 214.016 185.674 214.031C185.109 214.046 184.548 213.95 184.02 213.747C183.493 213.545 183.011 213.241 182.601 212.852C182.192 212.464 181.863 211.998 181.633 211.482C181.403 210.967 181.277 210.411 181.263 209.846C181.209 207.887 180.309 161.585 207.009 134.618C219.504 121.999 235.953 115.768 255.898 116.094C293.123 116.706 317.086 135.631 330.63 151.399C345.394 168.583 352.633 187.539 353.228 193.866C353.673 198.571 350.296 199.512 349.614 199.652L348.062 199.687C330.883 196.935 319.861 198.846 315.304 205.357C305.498 219.372 324.483 253.416 332.589 267.954C334.658 271.662 336.151 274.343 336.836 275.998C339.498 282.455 342.972 286.793 345.761 290.28C348.216 293.347 350.342 296.007 351.102 299.127C351.455 299.747 356.465 307.158 386.191 301.022C393.642 299.486 398.11 300.798 399.476 304.929C402.163 313.054 387.088 322.532 378.742 326.407C371.264 329.883 359.329 332.082 349.003 332.082ZM336.348 321.246C337.291 322.197 342.01 323.839 351.781 323.418C360.469 323.046 369.631 321.157 375.129 318.605C382.159 315.339 386.854 311.688 389.284 309.195L387.937 309.443C368.931 313.367 355.486 312.844 347.979 307.888C347.474 307.555 346.988 307.195 346.523 306.807C345.71 307.128 344.958 307.338 344.421 307.489C340.164 308.683 335.76 309.92 336.348 321.246ZM213.568 345.27C208.846 345.27 203.877 344.626 198.803 343.357C193.545 342.042 184.682 338.083 184.817 331.581C184.971 324.286 195.58 322.098 199.574 321.276C214.002 318.303 214.942 317.112 219.45 311.386C220.766 309.718 222.401 307.64 224.633 305.15C227.944 301.442 231.564 299.564 235.39 299.564C238.055 299.564 240.241 300.467 241.685 301.068C246.288 302.975 250.128 307.589 251.707 313.105C253.133 318.082 252.451 322.874 249.794 326.595C241.071 338.811 228.543 345.27 213.568 345.27ZM194.106 331.95C195.402 332.952 198 334.292 200.891 335.014C205.287 336.113 209.55 336.671 213.57 336.671C225.821 336.671 235.657 331.6 242.801 321.596C244.291 319.511 243.844 316.862 243.445 315.469C242.609 312.55 240.535 309.896 238.398 309.009C237.239 308.529 236.277 308.163 235.393 308.163C234.919 308.163 233.474 308.163 231.043 310.882C229.366 312.768 227.753 314.711 226.209 316.708C220.593 323.839 218.02 326.258 201.312 329.7C197.235 330.535 195.143 331.387 194.106 331.95ZM227.168 312.116C226.142 312.115 225.15 311.746 224.371 311.077C223.593 310.408 223.08 309.482 222.924 308.467C222.816 307.754 222.744 307.035 222.708 306.314C211.757 306.11 201.191 301.41 193.168 293.04C183.025 282.457 178.409 267.795 180.505 252.815C182.782 236.546 181.931 222.186 181.473 214.47C181.346 212.325 181.254 210.776 181.26 209.703C181.268 208.342 181.295 204.734 193.357 198.62C197.647 196.445 206.249 192.651 215.645 191.678C231.213 190.069 241.475 197.003 244.547 211.204C252.839 249.546 245.205 266.504 239.629 278.889C238.592 281.196 237.611 283.374 236.826 285.484L236.134 287.343C233.188 295.241 230.642 302.065 231.423 307.16C231.509 307.719 231.484 308.288 231.35 308.837C231.215 309.385 230.974 309.902 230.64 310.357C230.306 310.812 229.886 311.197 229.403 311.49C228.92 311.782 228.384 311.977 227.826 312.062L227.168 312.116ZM189.886 210.894L190.053 213.964C190.527 221.978 191.411 236.891 189.018 254.008C187.291 266.364 191.063 278.423 199.374 287.09C205.941 293.94 214.584 297.721 223.466 297.721H223.649C224.643 293.53 226.295 289.105 228.074 284.338L228.761 282.49C229.648 280.107 230.685 277.801 231.785 275.359C237.15 263.437 243.83 248.597 236.137 213.023C234.614 205.976 230.919 201.899 224.848 200.554C212.377 197.8 193.791 207.181 189.886 210.894ZM215.837 209.07C215.621 210.59 218.62 214.648 222.533 215.19C226.438 215.737 229.78 212.562 229.992 211.043C230.205 209.523 227.209 207.847 223.296 207.302C219.383 206.758 216.044 207.55 215.837 209.07ZM223.431 216.685L222.334 216.61C219.909 216.273 217.456 214.745 215.777 212.519C215.187 211.738 214.225 210.223 214.417 208.871C214.689 206.887 217.109 205.699 220.884 205.699C221.728 205.699 222.606 205.761 223.49 205.885C225.554 206.17 227.47 206.766 228.885 207.556C231.337 208.924 231.518 210.452 231.407 211.242C231.105 213.433 227.621 216.685 223.431 216.685ZM217.262 209.323C217.384 210.261 219.706 213.355 222.73 213.772L223.433 213.821C226.225 213.821 228.311 211.625 228.556 210.905C228.297 210.415 226.503 209.197 223.099 208.722C222.366 208.619 221.627 208.566 220.887 208.563C218.699 208.563 217.537 209.057 217.262 209.323ZM334.769 205.968C334.982 207.488 331.985 211.547 328.075 212.091C324.167 212.635 320.823 209.463 320.608 207.944C320.403 206.424 323.399 204.745 327.307 204.203C331.214 203.656 334.553 204.451 334.769 205.968ZM327.172 212.867C323.41 212.867 320.163 209.94 319.896 208.041C319.586 205.761 323.34 204.028 327.204 203.492C328.056 203.373 328.899 203.314 329.711 203.314C333.047 203.314 335.256 204.292 335.477 205.871C335.62 206.893 334.836 208.469 333.486 209.892C332.594 210.827 330.721 212.447 328.169 212.8L327.172 212.867ZM329.713 204.748C328.966 204.748 328.197 204.802 327.407 204.912C323.523 205.454 321.206 207.011 321.319 207.847C321.448 208.765 323.928 211.436 327.175 211.436L327.975 211.379C330.096 211.086 331.689 209.701 332.449 208.903C333.642 207.65 334.117 206.47 334.06 206.068C333.985 205.534 332.551 204.748 329.713 204.748ZM340.398 293.253C339.619 293.253 338.855 293.042 338.187 292.641C337.518 292.24 336.972 291.666 336.605 290.978C336.239 290.291 336.066 289.517 336.106 288.739C336.145 287.961 336.396 287.208 336.83 286.561C345.987 272.885 344.311 258.94 342.691 245.452C341.999 239.707 341.287 233.765 341.471 228.063C341.659 222.196 342.406 217.356 343.125 212.676C343.98 207.13 344.788 201.891 344.454 195.671C344.423 195.108 344.504 194.544 344.692 194.011C344.88 193.479 345.17 192.988 345.547 192.568C345.924 192.148 346.381 191.806 346.89 191.562C347.399 191.319 347.951 191.177 348.515 191.147C349.079 191.116 349.643 191.197 350.175 191.385C350.708 191.573 351.198 191.863 351.618 192.24C352.467 193.002 352.978 194.069 353.039 195.208C353.422 202.317 352.509 208.245 351.625 213.983C350.943 218.41 350.237 222.989 350.067 228.338C349.903 233.388 350.547 238.75 351.229 244.426C352.953 258.767 354.907 275.022 343.977 291.345C343.583 291.932 343.05 292.413 342.426 292.746C341.802 293.078 341.105 293.253 340.398 293.253Z" fill="white"/>
<defs>
<filter id="filter0_i_275_700" x="0" y="0" width="500" height="500" filterUnits="userSpaceOnUse" color-interpolation-filters="sRGB">
<feFlood flood-opacity="0" result="BackgroundImageFix"/>
<feBlend mode="normal" in="SourceGraphic" in2="BackgroundImageFix" result="shape"/>
<feColorMatrix in="SourceAlpha" type="matrix" values="0 0 0 0 0 0 0 0 0 0 0 0 0 0 0 0 0 0 127 0" result="hardAlpha"/>
<feMorphology radius="20" operator="erode" in="SourceAlpha" result="effect1_innerShadow_275_700"/>
<feOffset/>
<feGaussianBlur stdDeviation="25"/>
<feComposite in2="hardAlpha" operator="arithmetic" k2="-1" k3="1"/>
<feColorMatrix type="matrix" values="0 0 0 0 0.2 0 0 0 0 0.403922 0 0 0 0 0.568627 0 0 0 1 0"/>
<feBlend mode="normal" in2="shape" result="effect1_innerShadow_275_700"/>
</filter>
</defs>
</svg>
