<svg width="500" height="500" viewBox="0 0 500 500" fill="none" xmlns="http://www.w3.org/2000/svg">
<g filter="url(#filter0_i_275_547)">
<rect width="500" height="500" rx="140" fill="#1B1F23"/>
</g>
<path d="M252.096 212.541C270.693 212.541 285.86 227.708 285.86 246.666C285.86 264.722 270.693 280.069 252.096 280.069C233.499 280.069 218.332 264.722 218.332 246.666C218.332 227.708 233.499 212.541 252.096 212.541ZM168.499 391.11C179.874 397.972 204.791 387.499 233.499 360.416C224.11 349.763 214.902 338.208 206.235 326.11C191.686 324.708 177.222 322.538 162.902 319.611C153.693 358.249 157.124 384.791 168.499 391.11ZM181.318 287.472L176.082 278.263C174.096 283.499 172.11 288.735 170.846 293.791C175.721 294.874 181.138 295.777 186.735 296.68L181.318 287.472ZM299.402 273.749L314.027 246.666L299.402 219.583C293.985 210.013 288.207 201.527 282.971 193.041C273.221 192.499 262.93 192.499 252.096 192.499C241.263 192.499 230.971 192.499 221.221 193.041C215.985 201.527 210.207 210.013 204.791 219.583L190.166 246.666L204.791 273.749C210.207 283.319 215.985 291.805 221.221 300.291C230.971 300.833 241.263 300.833 252.096 300.833C262.93 300.833 273.221 300.833 282.971 300.291C288.207 291.805 293.985 283.319 299.402 273.749ZM252.096 152.416C248.666 156.388 245.055 160.541 241.443 165.416H262.749C259.138 160.541 255.527 156.388 252.096 152.416ZM252.096 340.916C255.527 336.944 259.138 332.791 262.749 327.916H241.443C245.055 332.791 248.666 336.944 252.096 340.916ZM335.513 102.222C324.318 95.3605 299.402 105.833 270.693 132.916C280.082 143.569 289.291 155.124 297.957 167.222C312.763 168.666 327.388 170.833 341.291 173.722C350.499 135.083 347.068 108.541 335.513 102.222ZM322.874 205.86L328.11 215.069C330.096 209.833 332.082 204.597 333.346 199.541C328.471 198.458 323.055 197.555 317.457 196.652L322.874 205.86ZM349.055 78.5688C375.596 93.7355 378.485 133.638 367.291 180.222C413.152 193.763 446.193 216.152 446.193 246.666C446.193 277.18 413.152 299.569 367.291 313.11C378.485 359.694 375.596 399.597 349.055 414.763C322.693 429.93 286.763 412.597 252.096 379.555C217.43 412.597 181.499 429.93 154.957 414.763C128.596 399.597 125.707 359.694 136.902 313.11C91.0407 299.569 57.999 277.18 57.999 246.666C57.999 216.152 91.0407 193.763 136.902 180.222C125.707 133.638 128.596 93.7355 154.957 78.5688C181.499 63.4021 217.43 80.7355 252.096 113.777C286.763 80.7355 322.693 63.4021 349.055 78.5688ZM343.818 246.666C349.957 260.208 355.374 273.749 359.888 287.472C397.805 276.097 419.11 259.847 419.11 246.666C419.11 233.485 397.805 217.235 359.888 205.86C355.374 219.583 349.957 233.124 343.818 246.666ZM160.374 246.666C154.235 233.124 148.818 219.583 144.305 205.86C106.388 217.235 85.0824 233.485 85.0824 246.666C85.0824 259.847 106.388 276.097 144.305 287.472C148.818 273.749 154.235 260.208 160.374 246.666ZM322.874 287.472L317.457 296.68C323.055 295.777 328.471 294.874 333.346 293.791C332.082 288.735 330.096 283.499 328.11 278.263L322.874 287.472ZM270.693 360.416C299.402 387.499 324.318 397.972 335.513 391.11C347.068 384.791 350.499 358.249 341.291 319.611C327.388 322.499 312.763 324.666 297.957 326.11C289.291 338.208 280.082 349.763 270.693 360.416ZM181.318 205.86L186.735 196.652C181.138 197.555 175.721 198.458 170.846 199.541C172.11 204.597 174.096 209.833 176.082 215.069L181.318 205.86ZM233.499 132.916C204.791 105.833 179.874 95.3605 168.499 102.222C157.124 108.541 153.693 135.083 162.902 173.722C177.222 170.794 191.686 168.624 206.235 167.222C214.902 155.124 224.11 143.569 233.499 132.916Z" fill="#61DBFB"/>
<defs>
<filter id="filter0_i_275_547" x="0" y="0" width="500" height="500" filterUnits="userSpaceOnUse" color-interpolation-filters="sRGB">
<feFlood flood-opacity="0" result="BackgroundImageFix"/>
<feBlend mode="normal" in="SourceGraphic" in2="BackgroundImageFix" result="shape"/>
<feColorMatrix in="SourceAlpha" type="matrix" values="0 0 0 0 0 0 0 0 0 0 0 0 0 0 0 0 0 0 127 0" result="hardAlpha"/>
<feMorphology radius="20" operator="erode" in="SourceAlpha" result="effect1_innerShadow_275_547"/>
<feOffset/>
<feGaussianBlur stdDeviation="25"/>
<feComposite in2="hardAlpha" operator="arithmetic" k2="-1" k3="1"/>
<feColorMatrix type="matrix" values="0 0 0 0 0.380392 0 0 0 0 0.858824 0 0 0 0 0.984314 0 0 0 1 0"/>
<feBlend mode="normal" in2="shape" result="effect1_innerShadow_275_547"/>
</filter>
</defs>
</svg>
