<svg width="500" height="500" viewBox="0 0 500 500" fill="none" xmlns="http://www.w3.org/2000/svg">
<g filter="url(#filter0_i_275_552)">
<rect width="500" height="500" rx="140" fill="#1B1F23"/>
</g>
<path d="M342.969 75H157.031C111.727 75 75 111.727 75 157.031V342.969C75 388.273 111.727 425 157.031 425H342.969C388.273 425 425 388.273 425 342.969V157.031C425 111.727 388.273 75 342.969 75Z" fill="#764ABC"/>
<path d="M302.745 301.405C312.836 300.36 320.491 291.661 320.142 281.222C319.795 270.784 311.096 262.433 300.657 262.433H299.961C289.174 262.78 280.823 271.827 281.171 282.614C281.519 287.834 283.607 292.357 286.738 295.489C274.908 318.802 256.814 335.852 229.673 350.119C211.231 359.862 192.093 363.341 172.955 360.906C157.297 358.818 145.119 351.858 137.463 340.376C126.328 323.326 125.285 304.884 134.679 286.442C141.291 273.219 151.729 263.476 158.341 258.605C156.949 254.082 154.862 246.426 153.817 240.859C103.364 277.396 108.582 326.806 123.892 350.119C135.376 367.516 158.688 378.304 184.438 378.304C191.397 378.304 198.356 377.608 205.315 375.867C249.855 367.169 283.607 340.724 302.745 301.405Z" fill="white"/>
<path d="M363.986 258.258C337.541 227.288 298.57 210.239 254.031 210.239H248.464C245.331 203.975 238.72 199.8 231.413 199.8H230.718C219.93 200.148 211.58 209.195 211.927 219.982C212.276 230.42 220.974 238.771 231.413 238.771H232.109C239.764 238.424 246.376 233.553 249.16 226.941H255.423C281.867 226.941 306.92 234.596 329.538 249.558C346.935 261.041 359.463 276.004 366.422 294.097C372.338 308.711 371.989 322.978 365.726 335.157C355.983 353.599 339.629 363.69 318.055 363.69C304.137 363.69 290.915 359.514 283.954 356.382C280.128 359.862 273.169 365.429 268.297 368.908C283.259 375.867 298.57 379.696 313.184 379.696C346.588 379.696 371.293 361.253 380.688 342.811C390.78 322.63 390.084 287.834 363.986 258.258Z" fill="white"/>
<path d="M187.221 307.321C187.57 317.759 196.268 326.11 206.708 326.11H207.404C218.189 325.761 226.542 316.715 226.193 305.928C225.846 295.489 217.146 287.138 206.708 287.138H206.01C205.316 287.138 204.271 287.138 203.577 287.487C189.309 263.825 183.394 238.075 185.482 210.239C186.874 189.363 193.833 171.268 206.012 156.304C216.102 143.43 235.588 137.167 248.81 136.819C285.694 136.123 301.353 182.054 302.396 200.497C306.92 201.54 314.575 203.975 319.795 205.715C315.619 149.348 280.823 120.117 247.418 120.117C216.102 120.117 187.221 142.735 175.738 176.139C159.733 220.678 170.171 263.476 189.656 297.23C187.917 299.664 186.873 303.493 187.221 307.321Z" fill="white"/>
<defs>
<filter id="filter0_i_275_552" x="0" y="0" width="500" height="500" filterUnits="userSpaceOnUse" color-interpolation-filters="sRGB">
<feFlood flood-opacity="0" result="BackgroundImageFix"/>
<feBlend mode="normal" in="SourceGraphic" in2="BackgroundImageFix" result="shape"/>
<feColorMatrix in="SourceAlpha" type="matrix" values="0 0 0 0 0 0 0 0 0 0 0 0 0 0 0 0 0 0 127 0" result="hardAlpha"/>
<feMorphology radius="20" operator="erode" in="SourceAlpha" result="effect1_innerShadow_275_552"/>
<feOffset/>
<feGaussianBlur stdDeviation="25"/>
<feComposite in2="hardAlpha" operator="arithmetic" k2="-1" k3="1"/>
<feColorMatrix type="matrix" values="0 0 0 0 0.462745 0 0 0 0 0.290196 0 0 0 0 0.737255 0 0 0 1 0"/>
<feBlend mode="normal" in2="shape" result="effect1_innerShadow_275_552"/>
</filter>
</defs>
</svg>
