<svg width="500" height="500" viewBox="0 0 500 500" fill="none" xmlns="http://www.w3.org/2000/svg">
<g filter="url(#filter0_i_275_715)">
<rect width="500" height="500" rx="140" fill="#1B1F23"/>
</g>
<path d="M364.061 247.501C364.096 252.395 363.159 257.246 361.302 261.774C359.446 266.302 356.708 270.416 353.248 273.876C349.788 277.336 345.674 280.074 341.146 281.93C336.619 283.787 331.767 284.724 326.874 284.689C317.034 284.689 307.595 288.589 300.625 295.534C293.655 302.479 289.721 311.904 289.686 321.744C289.721 326.637 288.784 331.489 286.927 336.016C285.071 340.544 282.333 344.658 278.873 348.118C275.413 351.578 271.299 354.316 266.771 356.172C262.244 358.029 257.392 358.967 252.499 358.931C242.636 358.931 233.177 355.013 226.203 348.039C219.229 341.065 215.311 331.606 215.311 321.744C215.311 311.881 219.229 302.422 226.203 295.448C233.177 288.474 242.636 284.556 252.499 284.556C257.628 284.991 262.793 284.356 267.664 282.691C272.536 281.026 277.009 278.368 280.8 274.885C284.59 271.401 287.617 267.169 289.687 262.455C291.757 257.742 292.826 252.65 292.826 247.501C292.826 242.353 291.757 237.261 289.687 232.548C287.617 227.834 284.59 223.602 280.8 220.118C277.009 216.635 272.536 213.977 267.664 212.312C262.793 210.647 257.628 210.012 252.499 210.447C245.144 210.447 237.954 208.266 231.838 204.18C225.723 200.093 220.956 194.285 218.142 187.49C215.327 180.695 214.591 173.218 216.026 166.004C217.46 158.791 221.002 152.165 226.203 146.964C231.404 141.763 238.03 138.221 245.244 136.786C252.457 135.351 259.934 136.088 266.73 138.903C273.525 141.717 279.333 146.484 283.419 152.599C287.505 158.714 289.686 165.904 289.686 173.259C289.651 178.153 290.588 183.004 292.445 187.532C294.301 192.06 297.039 196.173 300.499 199.634C303.959 203.094 308.073 205.832 312.601 207.688C317.129 209.544 321.98 210.482 326.874 210.447C336.713 210.447 346.152 214.346 353.122 221.292C360.092 228.237 364.026 237.662 364.061 247.501Z" fill="#F44250"/>
<path d="M215.311 247.501C215.311 237.639 211.393 228.18 204.419 221.206C197.445 214.232 187.986 210.314 178.124 210.314C168.261 210.314 158.802 214.232 151.828 221.206C144.854 228.18 140.936 237.639 140.936 247.501C140.936 257.364 144.854 266.823 151.828 273.797C158.802 280.771 168.261 284.689 178.124 284.689C187.986 284.689 197.445 280.771 204.419 273.797C211.393 266.823 215.311 257.364 215.311 247.501ZM140.936 321.744C140.936 311.881 137.018 302.422 130.044 295.448C123.07 288.474 113.611 284.556 103.749 284.556C93.8858 284.556 84.427 288.474 77.453 295.448C70.479 302.422 66.561 311.881 66.561 321.744C66.561 331.606 70.479 341.065 77.453 348.039C84.427 355.013 93.8858 358.931 103.749 358.931C113.611 358.931 123.07 355.013 130.044 348.039C137.018 341.065 140.936 331.606 140.936 321.744ZM438.436 321.744C438.436 311.881 434.518 302.422 427.544 295.448C420.57 288.474 411.111 284.556 401.249 284.556C391.386 284.556 381.927 288.474 374.953 295.448C367.979 302.422 364.061 311.881 364.061 321.744C364.061 331.606 367.979 341.065 374.953 348.039C381.927 355.013 391.386 358.931 401.249 358.931C411.111 358.931 420.57 355.013 427.544 348.039C434.518 341.065 438.436 331.606 438.436 321.744Z" fill="#D2D2D2"/>
<defs>
<filter id="filter0_i_275_715" x="0" y="0" width="500" height="500" filterUnits="userSpaceOnUse" color-interpolation-filters="sRGB">
<feFlood flood-opacity="0" result="BackgroundImageFix"/>
<feBlend mode="normal" in="SourceGraphic" in2="BackgroundImageFix" result="shape"/>
<feColorMatrix in="SourceAlpha" type="matrix" values="0 0 0 0 0 0 0 0 0 0 0 0 0 0 0 0 0 0 127 0" result="hardAlpha"/>
<feMorphology radius="20" operator="erode" in="SourceAlpha" result="effect1_innerShadow_275_715"/>
<feOffset/>
<feGaussianBlur stdDeviation="25"/>
<feComposite in2="hardAlpha" operator="arithmetic" k2="-1" k3="1"/>
<feColorMatrix type="matrix" values="0 0 0 0 0.956863 0 0 0 0 0.258824 0 0 0 0 0.313726 0 0 0 1 0"/>
<feBlend mode="normal" in2="shape" result="effect1_innerShadow_275_715"/>
</filter>
</defs>
</svg>
