<svg width="500" height="500" viewBox="0 0 500 500" fill="none" xmlns="http://www.w3.org/2000/svg">
<g filter="url(#filter0_i_275_675)">
<rect width="500" height="500" rx="140" fill="#1B1F23"/>
</g>
<path d="M339.544 75.4541H156.298C111.649 75.4541 75.4541 111.649 75.4541 156.298V339.544C75.4541 384.193 111.649 420.388 156.298 420.388H339.544C384.193 420.388 420.388 384.193 420.388 339.544V156.298C420.388 111.649 384.193 75.4541 339.544 75.4541Z" fill="#CD6799"/>
<mask id="mask0_275_675" style="mask-type:luminance" maskUnits="userSpaceOnUse" x="113" y="146" width="270" height="203">
<path d="M113.181 146.866H382.661V348.853H113.181V146.866Z" fill="white"/>
</mask>
<g mask="url(#mask0_275_675)">
<path d="M345.08 262.962C335.683 263.011 327.518 265.274 320.68 268.618C318.171 263.651 315.662 259.223 315.219 255.976C314.727 252.188 314.137 249.876 314.727 245.35C315.317 240.824 317.974 234.381 317.924 233.889C317.874 233.397 317.334 231.085 311.923 231.035C306.512 230.986 301.839 232.069 301.297 233.496C300.756 234.921 299.724 238.169 299.035 241.514C298.1 246.433 288.212 263.995 282.555 273.194C280.735 269.603 279.161 266.454 278.816 263.946C278.324 260.158 277.734 257.846 278.324 253.32C278.914 248.794 281.572 242.35 281.522 241.858C281.472 241.366 280.932 239.054 275.52 239.005C270.109 238.957 265.435 240.037 264.895 241.464C264.353 242.891 263.763 246.237 262.631 249.483C261.501 252.73 248.366 282.049 244.922 289.624C243.531 292.69 242.071 295.724 240.545 298.725C240.545 298.725 240.495 298.873 240.348 299.118C239.868 300.059 239.375 300.994 238.871 301.922V301.972C238.134 303.3 237.346 304.529 236.952 304.529C236.657 304.529 236.117 300.988 237.051 296.167C239.019 285.984 243.692 270.144 243.644 269.603C243.644 269.308 244.529 266.553 240.593 265.126C236.756 263.699 235.379 266.061 235.034 266.061C234.69 266.061 234.444 266.898 234.444 266.898C234.444 266.898 238.724 249.089 226.278 249.089C218.505 249.089 207.781 257.599 202.47 265.274C196.43 268.561 190.395 271.856 184.365 275.161C181.464 276.785 178.463 278.409 175.658 279.934C175.461 279.737 175.265 279.491 175.068 279.294C160.015 263.207 132.172 251.845 133.353 230.249C133.796 222.377 136.501 201.716 186.825 176.628C228.246 156.213 261.206 161.87 266.912 174.414C275.077 192.321 249.252 225.574 206.454 230.395C190.121 232.216 181.562 225.919 179.398 223.559C177.135 221.098 176.79 220.952 175.953 221.443C174.576 222.18 175.461 224.394 175.953 225.673C177.233 229.018 182.496 234.921 191.4 237.824C199.271 240.382 218.407 241.809 241.577 232.856C267.502 222.82 287.77 194.927 281.817 171.561C275.865 147.85 236.511 140.028 199.271 153.261C177.133 161.132 153.128 173.529 135.861 189.664C115.347 208.851 112.101 225.526 113.43 232.511C118.201 257.304 152.39 273.439 166.066 285.393C165.377 285.787 164.737 286.132 164.197 286.427C157.359 289.821 131.287 303.447 124.792 317.862C117.414 334.193 125.974 345.901 131.631 347.475C149.193 352.346 167.246 343.589 176.938 329.126C186.63 314.663 185.448 295.872 180.971 287.264C180.922 287.155 180.856 287.055 180.774 286.969C182.546 285.935 184.365 284.853 186.137 283.82C189.392 281.896 192.689 280.042 196.024 278.26C194.352 282.836 193.122 288.296 192.532 296.167C191.794 305.416 195.582 317.418 200.55 322.141C202.764 324.207 205.371 324.256 207.044 324.256C212.849 324.256 215.456 319.435 218.358 313.729C221.899 306.743 225.098 298.626 225.098 298.626C225.098 298.626 221.113 320.567 231.935 320.567C235.871 320.567 239.855 315.451 241.627 312.844V312.892C241.627 312.892 241.725 312.746 241.922 312.401C242.315 311.761 242.56 311.367 242.56 311.367V311.269C244.135 308.515 247.676 302.267 252.941 291.887C259.729 278.507 266.272 261.782 266.272 261.782C266.272 261.782 266.862 265.864 268.879 272.652C270.059 276.638 272.52 281.016 274.487 285.247C272.913 287.46 271.93 288.689 271.93 288.689L271.978 288.739C270.699 290.411 269.322 292.231 267.797 294.002C262.434 300.398 256.04 307.728 255.154 309.843C254.121 312.352 254.368 314.171 256.335 315.648C257.762 316.73 260.319 316.877 262.926 316.73C267.747 316.385 271.143 315.205 272.815 314.466C275.422 313.533 278.473 312.106 281.325 309.99C286.589 306.104 289.787 300.545 289.492 293.215C289.343 289.181 288.015 285.148 286.393 281.359C286.884 280.671 287.326 279.982 287.818 279.294C296.133 267.143 302.576 253.812 302.576 253.812C302.576 253.812 303.166 257.894 305.183 264.684C306.167 268.127 308.184 271.866 309.956 275.506C302.134 281.853 297.313 289.231 295.591 294.052C292.492 303.005 294.903 307.038 299.477 307.973C301.544 308.416 304.495 307.433 306.66 306.498C309.414 305.613 312.661 304.087 315.76 301.824C321.023 297.938 326.091 292.527 325.796 285.197C325.648 281.852 324.762 278.555 323.532 275.358C330.174 272.604 338.734 271.079 349.654 272.357C373.071 275.113 377.695 289.723 376.808 295.872C375.923 302.02 371.004 305.366 369.38 306.399C367.758 307.433 367.216 307.776 367.364 308.515C367.561 309.597 368.348 309.547 369.725 309.35C371.644 309.007 382.023 304.382 382.466 293.068C383.204 278.605 369.43 262.814 345.08 262.962ZM164.442 323.863C156.671 332.323 145.848 335.522 141.174 332.816C136.156 329.913 138.124 317.418 147.669 308.465C153.472 303.005 160.95 297.938 165.918 294.839C167.05 294.15 168.722 293.167 170.739 291.936C171.084 291.74 171.28 291.641 171.28 291.641L172.461 290.903C175.953 303.694 172.608 314.959 164.442 323.863ZM221.015 285.393C218.31 291.986 212.654 308.858 209.21 307.925C206.259 307.136 204.438 294.347 208.619 281.704C210.735 275.358 215.211 267.783 217.818 264.831C222.049 260.108 226.722 258.534 227.854 260.453C229.28 262.962 222.689 281.261 221.015 285.393ZM267.7 307.728C266.568 308.318 265.486 308.712 264.995 308.416C264.65 308.22 265.486 307.433 265.486 307.433C265.486 307.433 271.341 301.135 273.653 298.283C274.98 296.609 276.555 294.642 278.227 292.428V293.068C278.227 300.595 270.947 305.661 267.7 307.728ZM303.709 299.511C302.873 298.921 303.021 296.954 305.825 290.805C306.907 288.394 309.465 284.361 313.843 280.474C314.335 282.049 314.68 283.573 314.63 285C314.581 294.495 307.792 298.036 303.709 299.511Z" fill="white"/>
</g>
<defs>
<filter id="filter0_i_275_675" x="0" y="0" width="500" height="500" filterUnits="userSpaceOnUse" color-interpolation-filters="sRGB">
<feFlood flood-opacity="0" result="BackgroundImageFix"/>
<feBlend mode="normal" in="SourceGraphic" in2="BackgroundImageFix" result="shape"/>
<feColorMatrix in="SourceAlpha" type="matrix" values="0 0 0 0 0 0 0 0 0 0 0 0 0 0 0 0 0 0 127 0" result="hardAlpha"/>
<feMorphology radius="20" operator="erode" in="SourceAlpha" result="effect1_innerShadow_275_675"/>
<feOffset/>
<feGaussianBlur stdDeviation="25"/>
<feComposite in2="hardAlpha" operator="arithmetic" k2="-1" k3="1"/>
<feColorMatrix type="matrix" values="0 0 0 0 0.803922 0 0 0 0 0.403922 0 0 0 0 0.6 0 0 0 1 0"/>
<feBlend mode="normal" in2="shape" result="effect1_innerShadow_275_675"/>
</filter>
</defs>
</svg>
