<svg width="500" height="500" viewBox="0 0 500 500" fill="none" xmlns="http://www.w3.org/2000/svg">
<g filter="url(#filter0_i_275_594)">
<rect width="500" height="500" rx="140" fill="#1B1F23"/>
</g>
<path d="M173.438 224.844C183.646 184.01 209.167 163.594 250 163.594C311.25 163.594 318.906 209.531 349.531 217.188C369.948 222.292 387.813 214.635 403.125 194.219C392.917 235.052 367.396 255.469 326.562 255.469C265.313 255.469 257.656 209.531 227.031 201.875C206.615 196.771 188.75 204.427 173.438 224.844ZM96.875 316.719C107.083 275.885 132.604 255.469 173.438 255.469C234.687 255.469 242.344 301.406 272.969 309.063C293.385 314.167 311.25 306.51 326.562 286.094C316.354 326.927 290.833 347.344 250 347.344C188.75 347.344 181.094 301.406 150.469 293.75C130.052 288.646 112.187 296.302 96.875 316.719Z" fill="#44A8B3"/>
<defs>
<filter id="filter0_i_275_594" x="0" y="0" width="500" height="500" filterUnits="userSpaceOnUse" color-interpolation-filters="sRGB">
<feFlood flood-opacity="0" result="BackgroundImageFix"/>
<feBlend mode="normal" in="SourceGraphic" in2="BackgroundImageFix" result="shape"/>
<feColorMatrix in="SourceAlpha" type="matrix" values="0 0 0 0 0 0 0 0 0 0 0 0 0 0 0 0 0 0 127 0" result="hardAlpha"/>
<feMorphology radius="20" operator="erode" in="SourceAlpha" result="effect1_innerShadow_275_594"/>
<feOffset/>
<feGaussianBlur stdDeviation="25"/>
<feComposite in2="hardAlpha" operator="arithmetic" k2="-1" k3="1"/>
<feColorMatrix type="matrix" values="0 0 0 0 0.266667 0 0 0 0 0.658824 0 0 0 0 0.701961 0 0 0 1 0"/>
<feBlend mode="normal" in2="shape" result="effect1_innerShadow_275_594"/>
</filter>
</defs>
</svg>
