<svg width="500" height="500" viewBox="0 0 500 500" fill="none" xmlns="http://www.w3.org/2000/svg">
<g filter="url(#filter0_i_275_668)">
<rect width="500" height="500" rx="140" fill="#1B1F23"/>
</g>
<path d="M339.544 75.4541H156.298C111.649 75.4541 75.4541 111.649 75.4541 156.298V339.544C75.4541 384.193 111.649 420.388 156.298 420.388H339.544C384.193 420.388 420.388 384.193 420.388 339.544V156.298C420.388 111.649 384.193 75.4541 339.544 75.4541Z" fill="#007ACC"/>
<path d="M151.732 249.065L151.623 263.191H196.518V390.761H228.275V263.191H273.17V249.338C273.17 241.673 273.007 235.267 272.787 235.103C272.623 234.885 245.302 234.774 212.177 234.83L151.896 234.994L151.732 249.065ZM353.782 234.592C362.541 236.783 369.222 240.671 375.354 247.021C378.53 250.416 383.237 256.604 383.621 258.082C383.731 258.52 368.729 268.594 359.64 274.233C359.312 274.452 357.997 273.028 356.518 270.839C352.084 264.378 347.43 261.585 340.312 261.093C329.855 260.38 323.121 265.856 323.176 275C323.176 277.682 323.558 279.269 324.654 281.46C326.953 286.223 331.224 289.07 344.638 294.874C369.331 305.497 379.897 312.504 386.468 322.468C393.805 333.583 395.447 351.323 390.465 364.518C384.99 378.862 371.411 388.608 352.302 391.839C346.39 392.879 332.373 392.715 326.023 391.565C312.17 389.101 299.03 382.258 290.927 373.279C287.751 369.774 281.564 360.631 281.948 359.973C282.111 359.755 283.535 358.879 285.123 357.948C286.656 357.072 292.461 353.732 297.935 350.556L307.845 344.807L309.926 347.873C312.828 352.308 319.178 358.386 323.011 360.411C334.016 366.216 349.128 365.394 356.574 358.715C359.75 355.812 361.063 352.801 361.063 348.367C361.063 344.369 360.57 342.617 358.49 339.606C355.807 335.774 350.333 332.543 334.782 325.809C316.989 318.143 309.323 313.38 302.315 305.824C298.264 301.445 294.43 294.436 292.843 288.577C291.529 283.705 291.201 271.495 292.241 266.568C295.909 249.376 308.885 237.386 327.61 233.826C333.688 232.676 347.813 233.114 353.782 234.592Z" fill="white"/>
<defs>
<filter id="filter0_i_275_668" x="0" y="0" width="500" height="500" filterUnits="userSpaceOnUse" color-interpolation-filters="sRGB">
<feFlood flood-opacity="0" result="BackgroundImageFix"/>
<feBlend mode="normal" in="SourceGraphic" in2="BackgroundImageFix" result="shape"/>
<feColorMatrix in="SourceAlpha" type="matrix" values="0 0 0 0 0 0 0 0 0 0 0 0 0 0 0 0 0 0 127 0" result="hardAlpha"/>
<feMorphology radius="20" operator="erode" in="SourceAlpha" result="effect1_innerShadow_275_668"/>
<feOffset/>
<feGaussianBlur stdDeviation="25"/>
<feComposite in2="hardAlpha" operator="arithmetic" k2="-1" k3="1"/>
<feColorMatrix type="matrix" values="0 0 0 0 0 0 0 0 0 0.478431 0 0 0 0 0.8 0 0 0 1 0"/>
<feBlend mode="normal" in2="shape" result="effect1_innerShadow_275_668"/>
</filter>
</defs>
</svg>
