<svg width="500" height="500" viewBox="0 0 500 500" fill="none" xmlns="http://www.w3.org/2000/svg">
<g filter="url(#filter0_i_275_649)">
<rect width="500" height="500" rx="140" fill="#1B1F23"/>
</g>
<path fill-rule="evenodd" clip-rule="evenodd" d="M129.359 250C129.359 218.149 141.999 187.6 164.505 165.062C187.011 142.523 217.541 129.838 249.392 129.792C278.198 130.491 290.481 147.189 293.541 162.139C294.131 165.133 293.978 170.641 292.951 177.722C292.681 179.622 292.375 181.516 292.033 183.405L253.588 190.136H253.567C235.251 193.284 219.974 199.578 208.368 210.528C196.675 221.543 190.25 235.772 186.949 251.77L177.245 298.673L177.049 299.613L176.611 301.755C175.868 305.427 174.623 311.459 173.726 317.601C172.699 324.704 171.759 334.277 173.18 342.823C159.465 331.555 148.42 317.385 140.843 301.334C133.265 285.283 129.343 267.75 129.359 250ZM249.589 402.992C290.165 402.998 329.081 386.885 357.777 358.197C386.473 329.51 402.597 290.598 402.603 250.022C402.609 209.446 386.495 170.529 357.808 141.834C329.12 113.138 290.209 97.0136 249.632 97.0078H249.501C229.41 97.0092 209.516 100.968 190.955 108.658C172.393 116.348 155.528 127.618 141.323 141.826C112.633 170.52 96.5171 209.435 96.52 250.011C96.5229 290.587 112.644 329.5 141.338 358.19C170.032 386.879 208.947 402.995 249.523 402.992H249.589ZM249.742 370.208C220.936 369.509 208.652 352.811 205.593 337.861C205.002 334.867 205.155 329.359 206.183 322.278C206.453 320.378 206.759 318.484 207.101 316.595L245.545 309.864C263.861 306.716 279.16 300.422 290.766 289.472C302.459 278.457 308.884 264.228 312.184 248.23L321.889 201.327L322.085 200.387C322.187 199.804 322.333 199.097 322.522 198.267C323.265 194.551 324.533 188.541 325.407 182.399C326.435 175.296 327.374 165.723 325.932 157.177C345.043 172.903 358.834 194.145 365.423 218.001C372.011 241.858 371.075 267.166 362.742 290.471C354.41 313.776 339.087 333.94 318.866 348.212C298.646 362.483 274.491 370.165 249.742 370.208ZM284.974 217.915L259.184 222.44H259.14C244.89 224.887 236.322 229.215 230.836 234.395C225.438 239.487 221.438 246.853 219.056 258.393L214.16 282.085L239.95 277.56H239.994C254.244 275.113 262.812 270.785 268.298 265.605C273.696 260.513 277.696 253.147 280.078 241.607L284.974 217.915Z" fill="#9EB9FF"/>
<defs>
<filter id="filter0_i_275_649" x="0" y="0" width="500" height="500" filterUnits="userSpaceOnUse" color-interpolation-filters="sRGB">
<feFlood flood-opacity="0" result="BackgroundImageFix"/>
<feBlend mode="normal" in="SourceGraphic" in2="BackgroundImageFix" result="shape"/>
<feColorMatrix in="SourceAlpha" type="matrix" values="0 0 0 0 0 0 0 0 0 0 0 0 0 0 0 0 0 0 127 0" result="hardAlpha"/>
<feMorphology radius="20" operator="erode" in="SourceAlpha" result="effect1_innerShadow_275_649"/>
<feOffset/>
<feGaussianBlur stdDeviation="25"/>
<feComposite in2="hardAlpha" operator="arithmetic" k2="-1" k3="1"/>
<feColorMatrix type="matrix" values="0 0 0 0 0.619608 0 0 0 0 0.72549 0 0 0 0 1 0 0 0 1 0"/>
<feBlend mode="normal" in2="shape" result="effect1_innerShadow_275_649"/>
</filter>
</defs>
</svg>
